M48
; DRILL file {KiCad (5.1.5-0-10_14)} date Wednesday, 10 June 2020 at 11:06:50
; FORMAT={3:3/ absolute / metric / suppress leading zeros}
; #@! TF.CreationDate,2020-06-10T11:06:50+09:00
; #@! TF.GenerationSoftware,Kicad,Pcbnew,(5.1.5-0-10_14)
FMAT,2
METRIC,TZ
T1C0.300
T2C0.400
T3C0.500
T4C0.650
T5C0.750
T6C1.000
%
G90
G05
T1
X164091Y-118155
X164091Y-119155
X164841Y-118655
X165591Y-118155
X165591Y-119155
T2
X144500Y-107200
X144700Y-106300
X145300Y-107000
X145900Y-106400
X146200Y-107300
X146700Y-106100
X147000Y-106900
X147187Y-84313
X147600Y-106100
X148100Y-106900
X148700Y-89000
X148700Y-91000
X148900Y-98300
X150000Y-98300
X151000Y-122700
X151400Y-123500
X151500Y-86200
X152000Y-98600
X152000Y-122700
X152200Y-97000
X152300Y-89600
X152300Y-123500
X152900Y-101100
X152900Y-122700
X153200Y-123600
X153800Y-122700
X154000Y-86400
X154100Y-123600
X154100Y-124500
X154500Y-96200
X154600Y-112800
X154800Y-122600
X155000Y-123500
X156300Y-88100
X156300Y-89300
X157000Y-104500
X157400Y-89775
X157800Y-88300
X158000Y-128000
X158500Y-105500
X158700Y-84950
X158700Y-96600
X158900Y-108500
X159000Y-92100
X159713Y-89187
X160200Y-84800
X160902Y-89097
X160925Y-83525
X161925Y-86800
X162100Y-96300
X162500Y-108750
X162500Y-110500
X162800Y-98000
X163200Y-96200
X164500Y-96200
X166200Y-85500
X166600Y-116000
X166644Y-120249
X166800Y-103300
X167050Y-98750
X167500Y-109750
X168400Y-109000
X169700Y-115600
X170600Y-108900
X170600Y-111800
X170900Y-100500
X171400Y-108000
X171414Y-110714
X171800Y-86200
X171800Y-118500
X171800Y-119500
X172000Y-100600
X172500Y-89700
X172500Y-91100
X173300Y-128000
X174300Y-102700
X174300Y-128000
X174700Y-126200
X174700Y-127200
X175200Y-127900
X175800Y-128600
X176100Y-127800
X176845Y-86200
X176900Y-128600
X177900Y-128500
X178300Y-108300
X178700Y-89600
X178800Y-96900
X178800Y-107500
X178900Y-100000
X178900Y-101000
X178900Y-102000
X178900Y-103000
X179200Y-108300
X179600Y-89600
X179600Y-107100
X180000Y-107900
X180500Y-107100
X180600Y-89600
X180800Y-107900
X181400Y-107300
X181400Y-108500
X181400Y-109300
T3
X185250Y-115000
X185250Y-116250
X143750Y-123650
X143750Y-124900
X184250Y-123750
X184250Y-125000
X144500Y-115000
X144500Y-116250
T4
X149900Y-83500
X151170Y-83500
X152440Y-83500
X153710Y-83500
X154980Y-83500
X156250Y-83500
X157520Y-83500
X158790Y-83500
T5
X163400Y-127700
X165400Y-127700
T6
X165960Y-83000
X168500Y-83000
X171040Y-83000
X173580Y-83000
X176120Y-83000
X141750Y-82750
X141750Y-85290
X141750Y-87830
X141750Y-90370
T0
M30
