G04 #@! TF.GenerationSoftware,KiCad,Pcbnew,(5.1.5-0-10_14)*
G04 #@! TF.CreationDate,2020-06-08T21:05:12+09:00*
G04 #@! TF.ProjectId,controller_system,636f6e74-726f-46c6-9c65-725f73797374,rev?*
G04 #@! TF.SameCoordinates,Original*
G04 #@! TF.FileFunction,Soldermask,Bot*
G04 #@! TF.FilePolarity,Negative*
%FSLAX46Y46*%
G04 Gerber Fmt 4.6, Leading zero omitted, Abs format (unit mm)*
G04 Created by KiCad (PCBNEW (5.1.5-0-10_14)) date 2020-06-08 21:05:12*
%MOMM*%
%LPD*%
G04 APERTURE LIST*
%ADD10C,0.100000*%
G04 APERTURE END LIST*
D10*
G36*
X163527618Y-127283420D02*
G01*
X163608400Y-127307925D01*
X163650336Y-127320646D01*
X163763425Y-127381094D01*
X163862554Y-127462446D01*
X163943906Y-127561575D01*
X164004354Y-127674664D01*
X164004355Y-127674668D01*
X164041580Y-127797382D01*
X164051000Y-127893027D01*
X164051000Y-128506973D01*
X164041580Y-128602618D01*
X164014040Y-128693404D01*
X164004354Y-128725336D01*
X163943906Y-128838425D01*
X163862554Y-128937553D01*
X163763424Y-129018906D01*
X163650335Y-129079354D01*
X163618403Y-129089040D01*
X163527617Y-129116580D01*
X163400000Y-129129149D01*
X163272382Y-129116580D01*
X163181596Y-129089040D01*
X163149664Y-129079354D01*
X163036575Y-129018906D01*
X162937447Y-128937554D01*
X162856094Y-128838424D01*
X162795646Y-128725335D01*
X162785960Y-128693403D01*
X162758420Y-128602617D01*
X162749000Y-128506972D01*
X162749000Y-127893027D01*
X162758420Y-127797382D01*
X162795645Y-127674668D01*
X162795645Y-127674667D01*
X162827957Y-127614217D01*
X162856095Y-127561574D01*
X162869493Y-127545249D01*
X162937447Y-127462446D01*
X163036576Y-127381094D01*
X163149665Y-127320646D01*
X163191601Y-127307925D01*
X163272383Y-127283420D01*
X163400000Y-127270851D01*
X163527618Y-127283420D01*
G37*
G36*
X165891242Y-127278404D02*
G01*
X165928337Y-127289657D01*
X165962515Y-127307925D01*
X165992481Y-127332519D01*
X166017075Y-127362485D01*
X166035343Y-127396663D01*
X166046596Y-127433758D01*
X166051000Y-127478474D01*
X166051000Y-128921526D01*
X166046596Y-128966242D01*
X166035343Y-129003337D01*
X166017075Y-129037515D01*
X165992481Y-129067481D01*
X165962515Y-129092075D01*
X165928337Y-129110343D01*
X165891242Y-129121596D01*
X165846526Y-129126000D01*
X164953474Y-129126000D01*
X164908758Y-129121596D01*
X164871663Y-129110343D01*
X164837485Y-129092075D01*
X164807519Y-129067481D01*
X164782925Y-129037515D01*
X164764657Y-129003337D01*
X164753404Y-128966242D01*
X164749000Y-128921526D01*
X164749000Y-127478474D01*
X164753404Y-127433758D01*
X164764657Y-127396663D01*
X164782925Y-127362485D01*
X164807519Y-127332519D01*
X164837485Y-127307925D01*
X164871663Y-127289657D01*
X164908758Y-127278404D01*
X164953474Y-127274000D01*
X165846526Y-127274000D01*
X165891242Y-127278404D01*
G37*
G36*
X184588410Y-124555525D02*
G01*
X184673426Y-124581314D01*
X184751775Y-124623193D01*
X184820449Y-124679551D01*
X184876807Y-124748225D01*
X184918686Y-124826574D01*
X184944475Y-124911590D01*
X184953182Y-125000000D01*
X184944475Y-125088410D01*
X184918686Y-125173426D01*
X184876807Y-125251775D01*
X184820449Y-125320449D01*
X184751775Y-125376807D01*
X184673426Y-125418686D01*
X184588410Y-125444475D01*
X184522158Y-125451000D01*
X183977842Y-125451000D01*
X183911590Y-125444475D01*
X183826574Y-125418686D01*
X183748225Y-125376807D01*
X183679551Y-125320449D01*
X183623193Y-125251775D01*
X183581314Y-125173426D01*
X183555525Y-125088410D01*
X183546818Y-125000000D01*
X183555525Y-124911590D01*
X183581314Y-124826574D01*
X183623193Y-124748225D01*
X183679551Y-124679551D01*
X183748225Y-124623193D01*
X183826574Y-124581314D01*
X183911590Y-124555525D01*
X183977842Y-124549000D01*
X184522158Y-124549000D01*
X184588410Y-124555525D01*
G37*
G36*
X144088410Y-124455525D02*
G01*
X144173426Y-124481314D01*
X144251775Y-124523193D01*
X144320449Y-124579551D01*
X144376807Y-124648225D01*
X144418686Y-124726574D01*
X144444475Y-124811590D01*
X144453182Y-124900000D01*
X144444475Y-124988410D01*
X144418686Y-125073426D01*
X144376807Y-125151775D01*
X144320449Y-125220449D01*
X144251775Y-125276807D01*
X144173426Y-125318686D01*
X144088410Y-125344475D01*
X144022158Y-125351000D01*
X143477842Y-125351000D01*
X143411590Y-125344475D01*
X143326574Y-125318686D01*
X143248225Y-125276807D01*
X143179551Y-125220449D01*
X143123193Y-125151775D01*
X143081314Y-125073426D01*
X143055525Y-124988410D01*
X143046818Y-124900000D01*
X143055525Y-124811590D01*
X143081314Y-124726574D01*
X143123193Y-124648225D01*
X143179551Y-124579551D01*
X143248225Y-124523193D01*
X143326574Y-124481314D01*
X143411590Y-124455525D01*
X143477842Y-124449000D01*
X144022158Y-124449000D01*
X144088410Y-124455525D01*
G37*
G36*
X184819683Y-123302725D02*
G01*
X184850143Y-123311966D01*
X184878223Y-123326974D01*
X184902831Y-123347169D01*
X184923026Y-123371777D01*
X184938034Y-123399857D01*
X184947275Y-123430317D01*
X184951000Y-123468140D01*
X184951000Y-124031860D01*
X184947275Y-124069683D01*
X184938034Y-124100143D01*
X184923026Y-124128223D01*
X184902831Y-124152831D01*
X184878223Y-124173026D01*
X184850143Y-124188034D01*
X184819683Y-124197275D01*
X184781860Y-124201000D01*
X183718140Y-124201000D01*
X183680317Y-124197275D01*
X183649857Y-124188034D01*
X183621777Y-124173026D01*
X183597169Y-124152831D01*
X183576974Y-124128223D01*
X183561966Y-124100143D01*
X183552725Y-124069683D01*
X183549000Y-124031860D01*
X183549000Y-123468140D01*
X183552725Y-123430317D01*
X183561966Y-123399857D01*
X183576974Y-123371777D01*
X183597169Y-123347169D01*
X183621777Y-123326974D01*
X183649857Y-123311966D01*
X183680317Y-123302725D01*
X183718140Y-123299000D01*
X184781860Y-123299000D01*
X184819683Y-123302725D01*
G37*
G36*
X144319683Y-123202725D02*
G01*
X144350143Y-123211966D01*
X144378223Y-123226974D01*
X144402831Y-123247169D01*
X144423026Y-123271777D01*
X144438034Y-123299857D01*
X144447275Y-123330317D01*
X144451000Y-123368140D01*
X144451000Y-123931860D01*
X144447275Y-123969683D01*
X144438034Y-124000143D01*
X144423026Y-124028223D01*
X144402831Y-124052831D01*
X144378223Y-124073026D01*
X144350143Y-124088034D01*
X144319683Y-124097275D01*
X144281860Y-124101000D01*
X143218140Y-124101000D01*
X143180317Y-124097275D01*
X143149857Y-124088034D01*
X143121777Y-124073026D01*
X143097169Y-124052831D01*
X143076974Y-124028223D01*
X143061966Y-124000143D01*
X143052725Y-123969683D01*
X143049000Y-123931860D01*
X143049000Y-123368140D01*
X143052725Y-123330317D01*
X143061966Y-123299857D01*
X143076974Y-123271777D01*
X143097169Y-123247169D01*
X143121777Y-123226974D01*
X143149857Y-123211966D01*
X143180317Y-123202725D01*
X143218140Y-123199000D01*
X144281860Y-123199000D01*
X144319683Y-123202725D01*
G37*
G36*
X164193264Y-117817370D02*
G01*
X164193267Y-117817371D01*
X164193266Y-117817371D01*
X164257139Y-117843827D01*
X164314629Y-117882241D01*
X164363521Y-117931133D01*
X164401935Y-117988623D01*
X164423505Y-118040699D01*
X164428392Y-118052498D01*
X164441881Y-118120311D01*
X164441881Y-118189451D01*
X164429665Y-118250864D01*
X164427263Y-118275250D01*
X164429665Y-118299637D01*
X164436778Y-118323086D01*
X164448329Y-118344696D01*
X164463874Y-118363638D01*
X164482816Y-118379184D01*
X164504426Y-118390735D01*
X164527875Y-118397848D01*
X164552261Y-118400250D01*
X164576648Y-118397848D01*
X164600097Y-118390735D01*
X164621708Y-118379184D01*
X164674623Y-118343827D01*
X164738496Y-118317371D01*
X164738495Y-118317371D01*
X164738498Y-118317370D01*
X164806311Y-118303881D01*
X164875451Y-118303881D01*
X164943264Y-118317370D01*
X164943267Y-118317371D01*
X164943266Y-118317371D01*
X165007139Y-118343827D01*
X165060054Y-118379184D01*
X165081665Y-118390735D01*
X165105114Y-118397848D01*
X165129500Y-118400250D01*
X165153886Y-118397848D01*
X165177335Y-118390735D01*
X165198946Y-118379184D01*
X165217887Y-118363639D01*
X165233433Y-118344697D01*
X165244984Y-118323086D01*
X165252097Y-118299637D01*
X165254499Y-118275251D01*
X165252097Y-118250864D01*
X165239881Y-118189451D01*
X165239881Y-118120311D01*
X165253370Y-118052498D01*
X165258257Y-118040699D01*
X165279827Y-117988623D01*
X165318241Y-117931133D01*
X165367133Y-117882241D01*
X165424623Y-117843827D01*
X165488496Y-117817371D01*
X165488495Y-117817371D01*
X165488498Y-117817370D01*
X165556311Y-117803881D01*
X165625451Y-117803881D01*
X165693264Y-117817370D01*
X165693267Y-117817371D01*
X165693266Y-117817371D01*
X165757139Y-117843827D01*
X165814629Y-117882241D01*
X165863521Y-117931133D01*
X165901935Y-117988623D01*
X165923505Y-118040699D01*
X165928392Y-118052498D01*
X165941881Y-118120311D01*
X165941881Y-118189451D01*
X165928392Y-118257264D01*
X165928391Y-118257266D01*
X165901935Y-118321139D01*
X165863521Y-118378629D01*
X165814629Y-118427521D01*
X165757139Y-118465935D01*
X165707064Y-118486676D01*
X165693264Y-118492392D01*
X165625451Y-118505881D01*
X165556311Y-118505881D01*
X165488498Y-118492392D01*
X165474698Y-118486676D01*
X165424623Y-118465935D01*
X165371708Y-118430578D01*
X165350097Y-118419027D01*
X165326648Y-118411914D01*
X165302262Y-118409512D01*
X165277876Y-118411914D01*
X165254427Y-118419027D01*
X165232816Y-118430578D01*
X165213875Y-118446123D01*
X165198329Y-118465065D01*
X165186778Y-118486676D01*
X165179665Y-118510125D01*
X165177263Y-118534511D01*
X165179665Y-118558898D01*
X165191881Y-118620311D01*
X165191881Y-118689451D01*
X165179665Y-118750864D01*
X165177263Y-118775250D01*
X165179665Y-118799637D01*
X165186778Y-118823086D01*
X165198329Y-118844696D01*
X165213874Y-118863638D01*
X165232816Y-118879184D01*
X165254426Y-118890735D01*
X165277875Y-118897848D01*
X165302261Y-118900250D01*
X165326648Y-118897848D01*
X165350097Y-118890735D01*
X165371708Y-118879184D01*
X165424623Y-118843827D01*
X165488496Y-118817371D01*
X165488495Y-118817371D01*
X165488498Y-118817370D01*
X165556311Y-118803881D01*
X165625451Y-118803881D01*
X165693264Y-118817370D01*
X165693267Y-118817371D01*
X165693266Y-118817371D01*
X165757139Y-118843827D01*
X165814629Y-118882241D01*
X165863521Y-118931133D01*
X165901935Y-118988623D01*
X165909083Y-119005881D01*
X165928392Y-119052498D01*
X165941881Y-119120311D01*
X165941881Y-119189451D01*
X165928392Y-119257264D01*
X165928391Y-119257266D01*
X165901935Y-119321139D01*
X165863521Y-119378629D01*
X165814629Y-119427521D01*
X165757139Y-119465935D01*
X165705063Y-119487505D01*
X165693264Y-119492392D01*
X165625451Y-119505881D01*
X165556311Y-119505881D01*
X165488498Y-119492392D01*
X165476699Y-119487505D01*
X165424623Y-119465935D01*
X165367133Y-119427521D01*
X165318241Y-119378629D01*
X165279827Y-119321139D01*
X165253371Y-119257266D01*
X165253370Y-119257264D01*
X165239881Y-119189451D01*
X165239881Y-119120311D01*
X165252097Y-119058897D01*
X165254499Y-119034512D01*
X165252097Y-119010125D01*
X165244984Y-118986676D01*
X165233433Y-118965066D01*
X165217888Y-118946124D01*
X165198946Y-118930578D01*
X165177336Y-118919027D01*
X165153887Y-118911914D01*
X165129501Y-118909512D01*
X165105114Y-118911914D01*
X165081665Y-118919027D01*
X165060054Y-118930578D01*
X165007139Y-118965935D01*
X164957064Y-118986676D01*
X164943264Y-118992392D01*
X164875451Y-119005881D01*
X164806311Y-119005881D01*
X164738498Y-118992392D01*
X164724698Y-118986676D01*
X164674623Y-118965935D01*
X164621708Y-118930578D01*
X164600097Y-118919027D01*
X164576648Y-118911914D01*
X164552262Y-118909512D01*
X164527876Y-118911914D01*
X164504427Y-118919027D01*
X164482816Y-118930578D01*
X164463875Y-118946123D01*
X164448329Y-118965065D01*
X164436778Y-118986676D01*
X164429665Y-119010125D01*
X164427263Y-119034511D01*
X164429665Y-119058897D01*
X164441881Y-119120311D01*
X164441881Y-119189451D01*
X164428392Y-119257264D01*
X164428391Y-119257266D01*
X164401935Y-119321139D01*
X164363521Y-119378629D01*
X164314629Y-119427521D01*
X164257139Y-119465935D01*
X164205063Y-119487505D01*
X164193264Y-119492392D01*
X164125451Y-119505881D01*
X164056311Y-119505881D01*
X163988498Y-119492392D01*
X163976699Y-119487505D01*
X163924623Y-119465935D01*
X163867133Y-119427521D01*
X163818241Y-119378629D01*
X163779827Y-119321139D01*
X163753371Y-119257266D01*
X163753370Y-119257264D01*
X163739881Y-119189451D01*
X163739881Y-119120311D01*
X163753370Y-119052498D01*
X163772679Y-119005881D01*
X163779827Y-118988623D01*
X163818241Y-118931133D01*
X163867133Y-118882241D01*
X163924623Y-118843827D01*
X163988496Y-118817371D01*
X163988495Y-118817371D01*
X163988498Y-118817370D01*
X164056311Y-118803881D01*
X164125451Y-118803881D01*
X164193264Y-118817370D01*
X164193267Y-118817371D01*
X164193266Y-118817371D01*
X164257139Y-118843827D01*
X164310054Y-118879184D01*
X164331665Y-118890735D01*
X164355114Y-118897848D01*
X164379500Y-118900250D01*
X164403886Y-118897848D01*
X164427335Y-118890735D01*
X164448946Y-118879184D01*
X164467887Y-118863639D01*
X164483433Y-118844697D01*
X164494984Y-118823086D01*
X164502097Y-118799637D01*
X164504499Y-118775251D01*
X164502097Y-118750864D01*
X164489881Y-118689451D01*
X164489881Y-118620311D01*
X164502097Y-118558898D01*
X164504499Y-118534512D01*
X164502097Y-118510125D01*
X164494984Y-118486676D01*
X164483433Y-118465066D01*
X164467888Y-118446124D01*
X164448946Y-118430578D01*
X164427336Y-118419027D01*
X164403887Y-118411914D01*
X164379501Y-118409512D01*
X164355114Y-118411914D01*
X164331665Y-118419027D01*
X164310054Y-118430578D01*
X164257139Y-118465935D01*
X164207064Y-118486676D01*
X164193264Y-118492392D01*
X164125451Y-118505881D01*
X164056311Y-118505881D01*
X163988498Y-118492392D01*
X163974698Y-118486676D01*
X163924623Y-118465935D01*
X163867133Y-118427521D01*
X163818241Y-118378629D01*
X163779827Y-118321139D01*
X163753371Y-118257266D01*
X163753370Y-118257264D01*
X163739881Y-118189451D01*
X163739881Y-118120311D01*
X163753370Y-118052498D01*
X163758257Y-118040699D01*
X163779827Y-117988623D01*
X163818241Y-117931133D01*
X163867133Y-117882241D01*
X163924623Y-117843827D01*
X163988496Y-117817371D01*
X163988495Y-117817371D01*
X163988498Y-117817370D01*
X164056311Y-117803881D01*
X164125451Y-117803881D01*
X164193264Y-117817370D01*
G37*
G36*
X185819683Y-115802725D02*
G01*
X185850143Y-115811966D01*
X185878223Y-115826974D01*
X185902831Y-115847169D01*
X185923026Y-115871777D01*
X185938034Y-115899857D01*
X185947275Y-115930317D01*
X185951000Y-115968140D01*
X185951000Y-116531860D01*
X185947275Y-116569683D01*
X185938034Y-116600143D01*
X185923026Y-116628223D01*
X185902831Y-116652831D01*
X185878223Y-116673026D01*
X185850143Y-116688034D01*
X185819683Y-116697275D01*
X185781860Y-116701000D01*
X184718140Y-116701000D01*
X184680317Y-116697275D01*
X184649857Y-116688034D01*
X184621777Y-116673026D01*
X184597169Y-116652831D01*
X184576974Y-116628223D01*
X184561966Y-116600143D01*
X184552725Y-116569683D01*
X184549000Y-116531860D01*
X184549000Y-115968140D01*
X184552725Y-115930317D01*
X184561966Y-115899857D01*
X184576974Y-115871777D01*
X184597169Y-115847169D01*
X184621777Y-115826974D01*
X184649857Y-115811966D01*
X184680317Y-115802725D01*
X184718140Y-115799000D01*
X185781860Y-115799000D01*
X185819683Y-115802725D01*
G37*
G36*
X145069683Y-115802725D02*
G01*
X145100143Y-115811966D01*
X145128223Y-115826974D01*
X145152831Y-115847169D01*
X145173026Y-115871777D01*
X145188034Y-115899857D01*
X145197275Y-115930317D01*
X145201000Y-115968140D01*
X145201000Y-116531860D01*
X145197275Y-116569683D01*
X145188034Y-116600143D01*
X145173026Y-116628223D01*
X145152831Y-116652831D01*
X145128223Y-116673026D01*
X145100143Y-116688034D01*
X145069683Y-116697275D01*
X145031860Y-116701000D01*
X143968140Y-116701000D01*
X143930317Y-116697275D01*
X143899857Y-116688034D01*
X143871777Y-116673026D01*
X143847169Y-116652831D01*
X143826974Y-116628223D01*
X143811966Y-116600143D01*
X143802725Y-116569683D01*
X143799000Y-116531860D01*
X143799000Y-115968140D01*
X143802725Y-115930317D01*
X143811966Y-115899857D01*
X143826974Y-115871777D01*
X143847169Y-115847169D01*
X143871777Y-115826974D01*
X143899857Y-115811966D01*
X143930317Y-115802725D01*
X143968140Y-115799000D01*
X145031860Y-115799000D01*
X145069683Y-115802725D01*
G37*
G36*
X144838410Y-114555525D02*
G01*
X144923426Y-114581314D01*
X145001775Y-114623193D01*
X145070449Y-114679551D01*
X145126807Y-114748225D01*
X145168686Y-114826574D01*
X145194475Y-114911590D01*
X145203182Y-115000000D01*
X145194475Y-115088410D01*
X145168686Y-115173426D01*
X145126807Y-115251775D01*
X145070449Y-115320449D01*
X145001775Y-115376807D01*
X144923426Y-115418686D01*
X144838410Y-115444475D01*
X144772158Y-115451000D01*
X144227842Y-115451000D01*
X144161590Y-115444475D01*
X144076574Y-115418686D01*
X143998225Y-115376807D01*
X143929551Y-115320449D01*
X143873193Y-115251775D01*
X143831314Y-115173426D01*
X143805525Y-115088410D01*
X143796818Y-115000000D01*
X143805525Y-114911590D01*
X143831314Y-114826574D01*
X143873193Y-114748225D01*
X143929551Y-114679551D01*
X143998225Y-114623193D01*
X144076574Y-114581314D01*
X144161590Y-114555525D01*
X144227842Y-114549000D01*
X144772158Y-114549000D01*
X144838410Y-114555525D01*
G37*
G36*
X185588410Y-114555525D02*
G01*
X185673426Y-114581314D01*
X185751775Y-114623193D01*
X185820449Y-114679551D01*
X185876807Y-114748225D01*
X185918686Y-114826574D01*
X185944475Y-114911590D01*
X185953182Y-115000000D01*
X185944475Y-115088410D01*
X185918686Y-115173426D01*
X185876807Y-115251775D01*
X185820449Y-115320449D01*
X185751775Y-115376807D01*
X185673426Y-115418686D01*
X185588410Y-115444475D01*
X185522158Y-115451000D01*
X184977842Y-115451000D01*
X184911590Y-115444475D01*
X184826574Y-115418686D01*
X184748225Y-115376807D01*
X184679551Y-115320449D01*
X184623193Y-115251775D01*
X184581314Y-115173426D01*
X184555525Y-115088410D01*
X184546818Y-115000000D01*
X184555525Y-114911590D01*
X184581314Y-114826574D01*
X184623193Y-114748225D01*
X184679551Y-114679551D01*
X184748225Y-114623193D01*
X184826574Y-114581314D01*
X184911590Y-114555525D01*
X184977842Y-114549000D01*
X185522158Y-114549000D01*
X185588410Y-114555525D01*
G37*
G36*
X141863512Y-89473927D02*
G01*
X142012812Y-89503624D01*
X142176784Y-89571544D01*
X142324354Y-89670147D01*
X142449853Y-89795646D01*
X142548456Y-89943216D01*
X142616376Y-90107188D01*
X142651000Y-90281259D01*
X142651000Y-90458741D01*
X142616376Y-90632812D01*
X142548456Y-90796784D01*
X142449853Y-90944354D01*
X142324354Y-91069853D01*
X142176784Y-91168456D01*
X142012812Y-91236376D01*
X141863512Y-91266073D01*
X141838742Y-91271000D01*
X141661258Y-91271000D01*
X141636488Y-91266073D01*
X141487188Y-91236376D01*
X141323216Y-91168456D01*
X141175646Y-91069853D01*
X141050147Y-90944354D01*
X140951544Y-90796784D01*
X140883624Y-90632812D01*
X140849000Y-90458741D01*
X140849000Y-90281259D01*
X140883624Y-90107188D01*
X140951544Y-89943216D01*
X141050147Y-89795646D01*
X141175646Y-89670147D01*
X141323216Y-89571544D01*
X141487188Y-89503624D01*
X141636488Y-89473927D01*
X141661258Y-89469000D01*
X141838742Y-89469000D01*
X141863512Y-89473927D01*
G37*
G36*
X141863512Y-86933927D02*
G01*
X142012812Y-86963624D01*
X142176784Y-87031544D01*
X142324354Y-87130147D01*
X142449853Y-87255646D01*
X142548456Y-87403216D01*
X142616376Y-87567188D01*
X142651000Y-87741259D01*
X142651000Y-87918741D01*
X142616376Y-88092812D01*
X142548456Y-88256784D01*
X142449853Y-88404354D01*
X142324354Y-88529853D01*
X142176784Y-88628456D01*
X142012812Y-88696376D01*
X141863512Y-88726073D01*
X141838742Y-88731000D01*
X141661258Y-88731000D01*
X141636488Y-88726073D01*
X141487188Y-88696376D01*
X141323216Y-88628456D01*
X141175646Y-88529853D01*
X141050147Y-88404354D01*
X140951544Y-88256784D01*
X140883624Y-88092812D01*
X140849000Y-87918741D01*
X140849000Y-87741259D01*
X140883624Y-87567188D01*
X140951544Y-87403216D01*
X141050147Y-87255646D01*
X141175646Y-87130147D01*
X141323216Y-87031544D01*
X141487188Y-86963624D01*
X141636488Y-86933927D01*
X141661258Y-86929000D01*
X141838742Y-86929000D01*
X141863512Y-86933927D01*
G37*
G36*
X141863512Y-84393927D02*
G01*
X142012812Y-84423624D01*
X142176784Y-84491544D01*
X142324354Y-84590147D01*
X142449853Y-84715646D01*
X142548456Y-84863216D01*
X142616376Y-85027188D01*
X142651000Y-85201259D01*
X142651000Y-85378741D01*
X142616376Y-85552812D01*
X142548456Y-85716784D01*
X142449853Y-85864354D01*
X142324354Y-85989853D01*
X142176784Y-86088456D01*
X142012812Y-86156376D01*
X141863512Y-86186073D01*
X141838742Y-86191000D01*
X141661258Y-86191000D01*
X141636488Y-86186073D01*
X141487188Y-86156376D01*
X141323216Y-86088456D01*
X141175646Y-85989853D01*
X141050147Y-85864354D01*
X140951544Y-85716784D01*
X140883624Y-85552812D01*
X140849000Y-85378741D01*
X140849000Y-85201259D01*
X140883624Y-85027188D01*
X140951544Y-84863216D01*
X141050147Y-84715646D01*
X141175646Y-84590147D01*
X141323216Y-84491544D01*
X141487188Y-84423624D01*
X141636488Y-84393927D01*
X141661258Y-84389000D01*
X141838742Y-84389000D01*
X141863512Y-84393927D01*
G37*
G36*
X150451000Y-83172218D02*
G01*
X150453402Y-83196604D01*
X150460515Y-83220053D01*
X150472066Y-83241664D01*
X150487611Y-83260606D01*
X150506553Y-83276151D01*
X150528164Y-83287702D01*
X150551613Y-83294815D01*
X150575999Y-83297217D01*
X150600385Y-83294815D01*
X150623834Y-83287702D01*
X150645445Y-83276151D01*
X150664387Y-83260606D01*
X150679932Y-83241664D01*
X150742009Y-83148760D01*
X150742010Y-83148758D01*
X150818758Y-83072010D01*
X150909004Y-83011710D01*
X150909005Y-83011709D01*
X151009279Y-82970174D01*
X151115730Y-82949000D01*
X151224270Y-82949000D01*
X151330721Y-82970174D01*
X151430995Y-83011709D01*
X151430996Y-83011710D01*
X151521242Y-83072010D01*
X151597990Y-83148758D01*
X151597991Y-83148760D01*
X151658291Y-83239005D01*
X151689516Y-83314389D01*
X151701067Y-83336000D01*
X151716612Y-83354941D01*
X151735554Y-83370487D01*
X151757165Y-83382038D01*
X151780614Y-83389151D01*
X151805000Y-83391553D01*
X151829386Y-83389151D01*
X151852835Y-83382038D01*
X151874446Y-83370487D01*
X151893387Y-83354942D01*
X151908933Y-83336000D01*
X151920484Y-83314389D01*
X151951709Y-83239005D01*
X152012009Y-83148760D01*
X152012010Y-83148758D01*
X152088758Y-83072010D01*
X152179004Y-83011710D01*
X152179005Y-83011709D01*
X152279279Y-82970174D01*
X152385730Y-82949000D01*
X152494270Y-82949000D01*
X152600721Y-82970174D01*
X152700995Y-83011709D01*
X152700996Y-83011710D01*
X152791242Y-83072010D01*
X152867990Y-83148758D01*
X152867991Y-83148760D01*
X152928291Y-83239005D01*
X152959516Y-83314389D01*
X152971067Y-83336000D01*
X152986612Y-83354941D01*
X153005554Y-83370487D01*
X153027165Y-83382038D01*
X153050614Y-83389151D01*
X153075000Y-83391553D01*
X153099386Y-83389151D01*
X153122835Y-83382038D01*
X153144446Y-83370487D01*
X153163387Y-83354942D01*
X153178933Y-83336000D01*
X153190484Y-83314389D01*
X153221709Y-83239005D01*
X153282009Y-83148760D01*
X153282010Y-83148758D01*
X153358758Y-83072010D01*
X153449004Y-83011710D01*
X153449005Y-83011709D01*
X153549279Y-82970174D01*
X153655730Y-82949000D01*
X153764270Y-82949000D01*
X153870721Y-82970174D01*
X153970995Y-83011709D01*
X153970996Y-83011710D01*
X154061242Y-83072010D01*
X154137990Y-83148758D01*
X154137991Y-83148760D01*
X154198291Y-83239005D01*
X154229516Y-83314389D01*
X154241067Y-83336000D01*
X154256612Y-83354941D01*
X154275554Y-83370487D01*
X154297165Y-83382038D01*
X154320614Y-83389151D01*
X154345000Y-83391553D01*
X154369386Y-83389151D01*
X154392835Y-83382038D01*
X154414446Y-83370487D01*
X154433387Y-83354942D01*
X154448933Y-83336000D01*
X154460484Y-83314389D01*
X154491709Y-83239005D01*
X154552009Y-83148760D01*
X154552010Y-83148758D01*
X154628758Y-83072010D01*
X154719004Y-83011710D01*
X154719005Y-83011709D01*
X154819279Y-82970174D01*
X154925730Y-82949000D01*
X155034270Y-82949000D01*
X155140721Y-82970174D01*
X155240995Y-83011709D01*
X155240996Y-83011710D01*
X155331242Y-83072010D01*
X155407990Y-83148758D01*
X155407991Y-83148760D01*
X155468291Y-83239005D01*
X155499516Y-83314389D01*
X155511067Y-83336000D01*
X155526612Y-83354941D01*
X155545554Y-83370487D01*
X155567165Y-83382038D01*
X155590614Y-83389151D01*
X155615000Y-83391553D01*
X155639386Y-83389151D01*
X155662835Y-83382038D01*
X155684446Y-83370487D01*
X155703387Y-83354942D01*
X155718933Y-83336000D01*
X155730484Y-83314389D01*
X155761709Y-83239005D01*
X155822009Y-83148760D01*
X155822010Y-83148758D01*
X155898758Y-83072010D01*
X155989004Y-83011710D01*
X155989005Y-83011709D01*
X156089279Y-82970174D01*
X156195730Y-82949000D01*
X156304270Y-82949000D01*
X156410721Y-82970174D01*
X156510995Y-83011709D01*
X156510996Y-83011710D01*
X156601242Y-83072010D01*
X156677990Y-83148758D01*
X156677991Y-83148760D01*
X156738291Y-83239005D01*
X156769516Y-83314389D01*
X156781067Y-83336000D01*
X156796612Y-83354941D01*
X156815554Y-83370487D01*
X156837165Y-83382038D01*
X156860614Y-83389151D01*
X156885000Y-83391553D01*
X156909386Y-83389151D01*
X156932835Y-83382038D01*
X156954446Y-83370487D01*
X156973387Y-83354942D01*
X156988933Y-83336000D01*
X157000484Y-83314389D01*
X157031709Y-83239005D01*
X157092009Y-83148760D01*
X157092010Y-83148758D01*
X157168758Y-83072010D01*
X157259004Y-83011710D01*
X157259005Y-83011709D01*
X157359279Y-82970174D01*
X157465730Y-82949000D01*
X157574270Y-82949000D01*
X157680721Y-82970174D01*
X157780995Y-83011709D01*
X157780996Y-83011710D01*
X157871242Y-83072010D01*
X157947990Y-83148758D01*
X157947991Y-83148760D01*
X158008291Y-83239005D01*
X158039516Y-83314389D01*
X158051067Y-83336000D01*
X158066612Y-83354941D01*
X158085554Y-83370487D01*
X158107165Y-83382038D01*
X158130614Y-83389151D01*
X158155000Y-83391553D01*
X158179386Y-83389151D01*
X158202835Y-83382038D01*
X158224446Y-83370487D01*
X158243387Y-83354942D01*
X158258933Y-83336000D01*
X158270484Y-83314389D01*
X158301709Y-83239005D01*
X158362009Y-83148760D01*
X158362010Y-83148758D01*
X158438758Y-83072010D01*
X158529004Y-83011710D01*
X158529005Y-83011709D01*
X158629279Y-82970174D01*
X158735730Y-82949000D01*
X158844270Y-82949000D01*
X158950721Y-82970174D01*
X159050995Y-83011709D01*
X159050996Y-83011710D01*
X159141242Y-83072010D01*
X159217990Y-83148758D01*
X159217991Y-83148760D01*
X159278291Y-83239005D01*
X159319826Y-83339279D01*
X159341000Y-83445730D01*
X159341000Y-83554270D01*
X159319826Y-83660721D01*
X159278291Y-83760995D01*
X159278290Y-83760996D01*
X159217990Y-83851242D01*
X159141242Y-83927990D01*
X159095812Y-83958345D01*
X159050995Y-83988291D01*
X158950721Y-84029826D01*
X158844270Y-84051000D01*
X158735730Y-84051000D01*
X158629279Y-84029826D01*
X158529005Y-83988291D01*
X158484188Y-83958345D01*
X158438758Y-83927990D01*
X158362010Y-83851242D01*
X158301710Y-83760996D01*
X158301709Y-83760995D01*
X158270484Y-83685611D01*
X158258933Y-83664000D01*
X158243388Y-83645059D01*
X158224446Y-83629513D01*
X158202835Y-83617962D01*
X158179386Y-83610849D01*
X158155000Y-83608447D01*
X158130614Y-83610849D01*
X158107165Y-83617962D01*
X158085554Y-83629513D01*
X158066613Y-83645058D01*
X158051067Y-83664000D01*
X158039516Y-83685611D01*
X158008291Y-83760995D01*
X158008290Y-83760996D01*
X157947990Y-83851242D01*
X157871242Y-83927990D01*
X157825812Y-83958345D01*
X157780995Y-83988291D01*
X157680721Y-84029826D01*
X157574270Y-84051000D01*
X157465730Y-84051000D01*
X157359279Y-84029826D01*
X157259005Y-83988291D01*
X157214188Y-83958345D01*
X157168758Y-83927990D01*
X157092010Y-83851242D01*
X157031710Y-83760996D01*
X157031709Y-83760995D01*
X157000484Y-83685611D01*
X156988933Y-83664000D01*
X156973388Y-83645059D01*
X156954446Y-83629513D01*
X156932835Y-83617962D01*
X156909386Y-83610849D01*
X156885000Y-83608447D01*
X156860614Y-83610849D01*
X156837165Y-83617962D01*
X156815554Y-83629513D01*
X156796613Y-83645058D01*
X156781067Y-83664000D01*
X156769516Y-83685611D01*
X156738291Y-83760995D01*
X156738290Y-83760996D01*
X156677990Y-83851242D01*
X156601242Y-83927990D01*
X156555812Y-83958345D01*
X156510995Y-83988291D01*
X156410721Y-84029826D01*
X156304270Y-84051000D01*
X156195730Y-84051000D01*
X156089279Y-84029826D01*
X155989005Y-83988291D01*
X155944188Y-83958345D01*
X155898758Y-83927990D01*
X155822010Y-83851242D01*
X155761710Y-83760996D01*
X155761709Y-83760995D01*
X155730484Y-83685611D01*
X155718933Y-83664000D01*
X155703388Y-83645059D01*
X155684446Y-83629513D01*
X155662835Y-83617962D01*
X155639386Y-83610849D01*
X155615000Y-83608447D01*
X155590614Y-83610849D01*
X155567165Y-83617962D01*
X155545554Y-83629513D01*
X155526613Y-83645058D01*
X155511067Y-83664000D01*
X155499516Y-83685611D01*
X155468291Y-83760995D01*
X155468290Y-83760996D01*
X155407990Y-83851242D01*
X155331242Y-83927990D01*
X155285812Y-83958345D01*
X155240995Y-83988291D01*
X155140721Y-84029826D01*
X155034270Y-84051000D01*
X154925730Y-84051000D01*
X154819279Y-84029826D01*
X154719005Y-83988291D01*
X154674188Y-83958345D01*
X154628758Y-83927990D01*
X154552010Y-83851242D01*
X154491710Y-83760996D01*
X154491709Y-83760995D01*
X154460484Y-83685611D01*
X154448933Y-83664000D01*
X154433388Y-83645059D01*
X154414446Y-83629513D01*
X154392835Y-83617962D01*
X154369386Y-83610849D01*
X154345000Y-83608447D01*
X154320614Y-83610849D01*
X154297165Y-83617962D01*
X154275554Y-83629513D01*
X154256613Y-83645058D01*
X154241067Y-83664000D01*
X154229516Y-83685611D01*
X154198291Y-83760995D01*
X154198290Y-83760996D01*
X154137990Y-83851242D01*
X154061242Y-83927990D01*
X154015812Y-83958345D01*
X153970995Y-83988291D01*
X153870721Y-84029826D01*
X153764270Y-84051000D01*
X153655730Y-84051000D01*
X153549279Y-84029826D01*
X153449005Y-83988291D01*
X153404188Y-83958345D01*
X153358758Y-83927990D01*
X153282010Y-83851242D01*
X153221710Y-83760996D01*
X153221709Y-83760995D01*
X153190484Y-83685611D01*
X153178933Y-83664000D01*
X153163388Y-83645059D01*
X153144446Y-83629513D01*
X153122835Y-83617962D01*
X153099386Y-83610849D01*
X153075000Y-83608447D01*
X153050614Y-83610849D01*
X153027165Y-83617962D01*
X153005554Y-83629513D01*
X152986613Y-83645058D01*
X152971067Y-83664000D01*
X152959516Y-83685611D01*
X152928291Y-83760995D01*
X152928290Y-83760996D01*
X152867990Y-83851242D01*
X152791242Y-83927990D01*
X152745812Y-83958345D01*
X152700995Y-83988291D01*
X152600721Y-84029826D01*
X152494270Y-84051000D01*
X152385730Y-84051000D01*
X152279279Y-84029826D01*
X152179005Y-83988291D01*
X152134188Y-83958345D01*
X152088758Y-83927990D01*
X152012010Y-83851242D01*
X151951710Y-83760996D01*
X151951709Y-83760995D01*
X151920484Y-83685611D01*
X151908933Y-83664000D01*
X151893388Y-83645059D01*
X151874446Y-83629513D01*
X151852835Y-83617962D01*
X151829386Y-83610849D01*
X151805000Y-83608447D01*
X151780614Y-83610849D01*
X151757165Y-83617962D01*
X151735554Y-83629513D01*
X151716613Y-83645058D01*
X151701067Y-83664000D01*
X151689516Y-83685611D01*
X151658291Y-83760995D01*
X151658290Y-83760996D01*
X151597990Y-83851242D01*
X151521242Y-83927990D01*
X151475812Y-83958345D01*
X151430995Y-83988291D01*
X151330721Y-84029826D01*
X151224270Y-84051000D01*
X151115730Y-84051000D01*
X151009279Y-84029826D01*
X150909005Y-83988291D01*
X150864188Y-83958345D01*
X150818758Y-83927990D01*
X150742010Y-83851242D01*
X150721012Y-83819816D01*
X150679932Y-83758336D01*
X150664386Y-83739394D01*
X150645444Y-83723849D01*
X150623833Y-83712298D01*
X150600385Y-83705185D01*
X150575998Y-83702783D01*
X150551612Y-83705185D01*
X150528163Y-83712298D01*
X150506553Y-83723849D01*
X150487611Y-83739395D01*
X150472066Y-83758337D01*
X150460515Y-83779948D01*
X150453402Y-83803396D01*
X150451000Y-83827782D01*
X150451000Y-84051000D01*
X149349000Y-84051000D01*
X149349000Y-82949000D01*
X150451000Y-82949000D01*
X150451000Y-83172218D01*
G37*
G36*
X166861000Y-83901000D02*
G01*
X165059000Y-83901000D01*
X165059000Y-82099000D01*
X166861000Y-82099000D01*
X166861000Y-83901000D01*
G37*
G36*
X173693512Y-82103927D02*
G01*
X173842812Y-82133624D01*
X174006784Y-82201544D01*
X174154354Y-82300147D01*
X174279853Y-82425646D01*
X174378456Y-82573216D01*
X174446376Y-82737188D01*
X174481000Y-82911259D01*
X174481000Y-83088741D01*
X174446376Y-83262812D01*
X174378456Y-83426784D01*
X174279853Y-83574354D01*
X174154354Y-83699853D01*
X174006784Y-83798456D01*
X173842812Y-83866376D01*
X173693512Y-83896073D01*
X173668742Y-83901000D01*
X173491258Y-83901000D01*
X173466488Y-83896073D01*
X173317188Y-83866376D01*
X173153216Y-83798456D01*
X173005646Y-83699853D01*
X172880147Y-83574354D01*
X172781544Y-83426784D01*
X172713624Y-83262812D01*
X172679000Y-83088741D01*
X172679000Y-82911259D01*
X172713624Y-82737188D01*
X172781544Y-82573216D01*
X172880147Y-82425646D01*
X173005646Y-82300147D01*
X173153216Y-82201544D01*
X173317188Y-82133624D01*
X173466488Y-82103927D01*
X173491258Y-82099000D01*
X173668742Y-82099000D01*
X173693512Y-82103927D01*
G37*
G36*
X171153512Y-82103927D02*
G01*
X171302812Y-82133624D01*
X171466784Y-82201544D01*
X171614354Y-82300147D01*
X171739853Y-82425646D01*
X171838456Y-82573216D01*
X171906376Y-82737188D01*
X171941000Y-82911259D01*
X171941000Y-83088741D01*
X171906376Y-83262812D01*
X171838456Y-83426784D01*
X171739853Y-83574354D01*
X171614354Y-83699853D01*
X171466784Y-83798456D01*
X171302812Y-83866376D01*
X171153512Y-83896073D01*
X171128742Y-83901000D01*
X170951258Y-83901000D01*
X170926488Y-83896073D01*
X170777188Y-83866376D01*
X170613216Y-83798456D01*
X170465646Y-83699853D01*
X170340147Y-83574354D01*
X170241544Y-83426784D01*
X170173624Y-83262812D01*
X170139000Y-83088741D01*
X170139000Y-82911259D01*
X170173624Y-82737188D01*
X170241544Y-82573216D01*
X170340147Y-82425646D01*
X170465646Y-82300147D01*
X170613216Y-82201544D01*
X170777188Y-82133624D01*
X170926488Y-82103927D01*
X170951258Y-82099000D01*
X171128742Y-82099000D01*
X171153512Y-82103927D01*
G37*
G36*
X168613512Y-82103927D02*
G01*
X168762812Y-82133624D01*
X168926784Y-82201544D01*
X169074354Y-82300147D01*
X169199853Y-82425646D01*
X169298456Y-82573216D01*
X169366376Y-82737188D01*
X169401000Y-82911259D01*
X169401000Y-83088741D01*
X169366376Y-83262812D01*
X169298456Y-83426784D01*
X169199853Y-83574354D01*
X169074354Y-83699853D01*
X168926784Y-83798456D01*
X168762812Y-83866376D01*
X168613512Y-83896073D01*
X168588742Y-83901000D01*
X168411258Y-83901000D01*
X168386488Y-83896073D01*
X168237188Y-83866376D01*
X168073216Y-83798456D01*
X167925646Y-83699853D01*
X167800147Y-83574354D01*
X167701544Y-83426784D01*
X167633624Y-83262812D01*
X167599000Y-83088741D01*
X167599000Y-82911259D01*
X167633624Y-82737188D01*
X167701544Y-82573216D01*
X167800147Y-82425646D01*
X167925646Y-82300147D01*
X168073216Y-82201544D01*
X168237188Y-82133624D01*
X168386488Y-82103927D01*
X168411258Y-82099000D01*
X168588742Y-82099000D01*
X168613512Y-82103927D01*
G37*
G36*
X176233512Y-82103927D02*
G01*
X176382812Y-82133624D01*
X176546784Y-82201544D01*
X176694354Y-82300147D01*
X176819853Y-82425646D01*
X176918456Y-82573216D01*
X176986376Y-82737188D01*
X177021000Y-82911259D01*
X177021000Y-83088741D01*
X176986376Y-83262812D01*
X176918456Y-83426784D01*
X176819853Y-83574354D01*
X176694354Y-83699853D01*
X176546784Y-83798456D01*
X176382812Y-83866376D01*
X176233512Y-83896073D01*
X176208742Y-83901000D01*
X176031258Y-83901000D01*
X176006488Y-83896073D01*
X175857188Y-83866376D01*
X175693216Y-83798456D01*
X175545646Y-83699853D01*
X175420147Y-83574354D01*
X175321544Y-83426784D01*
X175253624Y-83262812D01*
X175219000Y-83088741D01*
X175219000Y-82911259D01*
X175253624Y-82737188D01*
X175321544Y-82573216D01*
X175420147Y-82425646D01*
X175545646Y-82300147D01*
X175693216Y-82201544D01*
X175857188Y-82133624D01*
X176006488Y-82103927D01*
X176031258Y-82099000D01*
X176208742Y-82099000D01*
X176233512Y-82103927D01*
G37*
G36*
X142651000Y-83651000D02*
G01*
X140849000Y-83651000D01*
X140849000Y-81849000D01*
X142651000Y-81849000D01*
X142651000Y-83651000D01*
G37*
M02*
