G04 #@! TF.GenerationSoftware,KiCad,Pcbnew,(5.1.5-0-10_14)*
G04 #@! TF.CreationDate,2020-06-08T21:05:12+09:00*
G04 #@! TF.ProjectId,controller_system,636f6e74-726f-46c6-9c65-725f73797374,rev?*
G04 #@! TF.SameCoordinates,Original*
G04 #@! TF.FileFunction,Paste,Top*
G04 #@! TF.FilePolarity,Positive*
%FSLAX46Y46*%
G04 Gerber Fmt 4.6, Leading zero omitted, Abs format (unit mm)*
G04 Created by KiCad (PCBNEW (5.1.5-0-10_14)) date 2020-06-08 21:05:12*
%MOMM*%
%LPD*%
G04 APERTURE LIST*
%ADD10R,2.100000X1.400000*%
%ADD11R,1.600000X0.550000*%
%ADD12R,0.550000X1.600000*%
%ADD13C,0.100000*%
%ADD14R,0.800000X2.900000*%
%ADD15R,0.900000X0.800000*%
%ADD16O,0.230000X0.800000*%
%ADD17R,0.230000X0.230000*%
%ADD18R,1.050000X0.680000*%
%ADD19R,0.500000X0.260000*%
%ADD20R,1.500000X2.000000*%
%ADD21R,3.800000X2.000000*%
%ADD22R,1.200000X3.500000*%
%ADD23R,1.550000X1.300000*%
G04 APERTURE END LIST*
D10*
X148500000Y-113300000D03*
X148500000Y-117700000D03*
X180500000Y-113900000D03*
X180500000Y-118300000D03*
X148500000Y-126600000D03*
X148500000Y-122200000D03*
X180500000Y-126450000D03*
X180500000Y-122050000D03*
D11*
X162500000Y-93550000D03*
X162500000Y-92750000D03*
X162500000Y-91950000D03*
X162500000Y-91150000D03*
X162500000Y-90350000D03*
X162500000Y-89550000D03*
X162500000Y-88750000D03*
X162500000Y-87950000D03*
D12*
X161050000Y-86500000D03*
X160250000Y-86500000D03*
X159450000Y-86500000D03*
X158650000Y-86500000D03*
X157850000Y-86500000D03*
X157050000Y-86500000D03*
X156250000Y-86500000D03*
X155450000Y-86500000D03*
D11*
X154000000Y-87950000D03*
X154000000Y-88750000D03*
X154000000Y-89550000D03*
X154000000Y-90350000D03*
X154000000Y-91150000D03*
X154000000Y-91950000D03*
X154000000Y-92750000D03*
X154000000Y-93550000D03*
D12*
X155450000Y-95000000D03*
X156250000Y-95000000D03*
X157050000Y-95000000D03*
X157850000Y-95000000D03*
X158650000Y-95000000D03*
X159450000Y-95000000D03*
X160250000Y-95000000D03*
X161050000Y-95000000D03*
D13*
G36*
X160730142Y-105013674D02*
G01*
X160753803Y-105017184D01*
X160777007Y-105022996D01*
X160799529Y-105031054D01*
X160821153Y-105041282D01*
X160841670Y-105053579D01*
X160860883Y-105067829D01*
X160878607Y-105083893D01*
X160894671Y-105101617D01*
X160908921Y-105120830D01*
X160921218Y-105141347D01*
X160931446Y-105162971D01*
X160939504Y-105185493D01*
X160945316Y-105208697D01*
X160948826Y-105232358D01*
X160950000Y-105256250D01*
X160950000Y-105743750D01*
X160948826Y-105767642D01*
X160945316Y-105791303D01*
X160939504Y-105814507D01*
X160931446Y-105837029D01*
X160921218Y-105858653D01*
X160908921Y-105879170D01*
X160894671Y-105898383D01*
X160878607Y-105916107D01*
X160860883Y-105932171D01*
X160841670Y-105946421D01*
X160821153Y-105958718D01*
X160799529Y-105968946D01*
X160777007Y-105977004D01*
X160753803Y-105982816D01*
X160730142Y-105986326D01*
X160706250Y-105987500D01*
X159793750Y-105987500D01*
X159769858Y-105986326D01*
X159746197Y-105982816D01*
X159722993Y-105977004D01*
X159700471Y-105968946D01*
X159678847Y-105958718D01*
X159658330Y-105946421D01*
X159639117Y-105932171D01*
X159621393Y-105916107D01*
X159605329Y-105898383D01*
X159591079Y-105879170D01*
X159578782Y-105858653D01*
X159568554Y-105837029D01*
X159560496Y-105814507D01*
X159554684Y-105791303D01*
X159551174Y-105767642D01*
X159550000Y-105743750D01*
X159550000Y-105256250D01*
X159551174Y-105232358D01*
X159554684Y-105208697D01*
X159560496Y-105185493D01*
X159568554Y-105162971D01*
X159578782Y-105141347D01*
X159591079Y-105120830D01*
X159605329Y-105101617D01*
X159621393Y-105083893D01*
X159639117Y-105067829D01*
X159658330Y-105053579D01*
X159678847Y-105041282D01*
X159700471Y-105031054D01*
X159722993Y-105022996D01*
X159746197Y-105017184D01*
X159769858Y-105013674D01*
X159793750Y-105012500D01*
X160706250Y-105012500D01*
X160730142Y-105013674D01*
G37*
G36*
X160730142Y-103138674D02*
G01*
X160753803Y-103142184D01*
X160777007Y-103147996D01*
X160799529Y-103156054D01*
X160821153Y-103166282D01*
X160841670Y-103178579D01*
X160860883Y-103192829D01*
X160878607Y-103208893D01*
X160894671Y-103226617D01*
X160908921Y-103245830D01*
X160921218Y-103266347D01*
X160931446Y-103287971D01*
X160939504Y-103310493D01*
X160945316Y-103333697D01*
X160948826Y-103357358D01*
X160950000Y-103381250D01*
X160950000Y-103868750D01*
X160948826Y-103892642D01*
X160945316Y-103916303D01*
X160939504Y-103939507D01*
X160931446Y-103962029D01*
X160921218Y-103983653D01*
X160908921Y-104004170D01*
X160894671Y-104023383D01*
X160878607Y-104041107D01*
X160860883Y-104057171D01*
X160841670Y-104071421D01*
X160821153Y-104083718D01*
X160799529Y-104093946D01*
X160777007Y-104102004D01*
X160753803Y-104107816D01*
X160730142Y-104111326D01*
X160706250Y-104112500D01*
X159793750Y-104112500D01*
X159769858Y-104111326D01*
X159746197Y-104107816D01*
X159722993Y-104102004D01*
X159700471Y-104093946D01*
X159678847Y-104083718D01*
X159658330Y-104071421D01*
X159639117Y-104057171D01*
X159621393Y-104041107D01*
X159605329Y-104023383D01*
X159591079Y-104004170D01*
X159578782Y-103983653D01*
X159568554Y-103962029D01*
X159560496Y-103939507D01*
X159554684Y-103916303D01*
X159551174Y-103892642D01*
X159550000Y-103868750D01*
X159550000Y-103381250D01*
X159551174Y-103357358D01*
X159554684Y-103333697D01*
X159560496Y-103310493D01*
X159568554Y-103287971D01*
X159578782Y-103266347D01*
X159591079Y-103245830D01*
X159605329Y-103226617D01*
X159621393Y-103208893D01*
X159639117Y-103192829D01*
X159658330Y-103178579D01*
X159678847Y-103166282D01*
X159700471Y-103156054D01*
X159722993Y-103147996D01*
X159746197Y-103142184D01*
X159769858Y-103138674D01*
X159793750Y-103137500D01*
X160706250Y-103137500D01*
X160730142Y-103138674D01*
G37*
G36*
X166205142Y-109051174D02*
G01*
X166228803Y-109054684D01*
X166252007Y-109060496D01*
X166274529Y-109068554D01*
X166296153Y-109078782D01*
X166316670Y-109091079D01*
X166335883Y-109105329D01*
X166353607Y-109121393D01*
X166369671Y-109139117D01*
X166383921Y-109158330D01*
X166396218Y-109178847D01*
X166406446Y-109200471D01*
X166414504Y-109222993D01*
X166420316Y-109246197D01*
X166423826Y-109269858D01*
X166425000Y-109293750D01*
X166425000Y-110206250D01*
X166423826Y-110230142D01*
X166420316Y-110253803D01*
X166414504Y-110277007D01*
X166406446Y-110299529D01*
X166396218Y-110321153D01*
X166383921Y-110341670D01*
X166369671Y-110360883D01*
X166353607Y-110378607D01*
X166335883Y-110394671D01*
X166316670Y-110408921D01*
X166296153Y-110421218D01*
X166274529Y-110431446D01*
X166252007Y-110439504D01*
X166228803Y-110445316D01*
X166205142Y-110448826D01*
X166181250Y-110450000D01*
X165693750Y-110450000D01*
X165669858Y-110448826D01*
X165646197Y-110445316D01*
X165622993Y-110439504D01*
X165600471Y-110431446D01*
X165578847Y-110421218D01*
X165558330Y-110408921D01*
X165539117Y-110394671D01*
X165521393Y-110378607D01*
X165505329Y-110360883D01*
X165491079Y-110341670D01*
X165478782Y-110321153D01*
X165468554Y-110299529D01*
X165460496Y-110277007D01*
X165454684Y-110253803D01*
X165451174Y-110230142D01*
X165450000Y-110206250D01*
X165450000Y-109293750D01*
X165451174Y-109269858D01*
X165454684Y-109246197D01*
X165460496Y-109222993D01*
X165468554Y-109200471D01*
X165478782Y-109178847D01*
X165491079Y-109158330D01*
X165505329Y-109139117D01*
X165521393Y-109121393D01*
X165539117Y-109105329D01*
X165558330Y-109091079D01*
X165578847Y-109078782D01*
X165600471Y-109068554D01*
X165622993Y-109060496D01*
X165646197Y-109054684D01*
X165669858Y-109051174D01*
X165693750Y-109050000D01*
X166181250Y-109050000D01*
X166205142Y-109051174D01*
G37*
G36*
X164330142Y-109051174D02*
G01*
X164353803Y-109054684D01*
X164377007Y-109060496D01*
X164399529Y-109068554D01*
X164421153Y-109078782D01*
X164441670Y-109091079D01*
X164460883Y-109105329D01*
X164478607Y-109121393D01*
X164494671Y-109139117D01*
X164508921Y-109158330D01*
X164521218Y-109178847D01*
X164531446Y-109200471D01*
X164539504Y-109222993D01*
X164545316Y-109246197D01*
X164548826Y-109269858D01*
X164550000Y-109293750D01*
X164550000Y-110206250D01*
X164548826Y-110230142D01*
X164545316Y-110253803D01*
X164539504Y-110277007D01*
X164531446Y-110299529D01*
X164521218Y-110321153D01*
X164508921Y-110341670D01*
X164494671Y-110360883D01*
X164478607Y-110378607D01*
X164460883Y-110394671D01*
X164441670Y-110408921D01*
X164421153Y-110421218D01*
X164399529Y-110431446D01*
X164377007Y-110439504D01*
X164353803Y-110445316D01*
X164330142Y-110448826D01*
X164306250Y-110450000D01*
X163818750Y-110450000D01*
X163794858Y-110448826D01*
X163771197Y-110445316D01*
X163747993Y-110439504D01*
X163725471Y-110431446D01*
X163703847Y-110421218D01*
X163683330Y-110408921D01*
X163664117Y-110394671D01*
X163646393Y-110378607D01*
X163630329Y-110360883D01*
X163616079Y-110341670D01*
X163603782Y-110321153D01*
X163593554Y-110299529D01*
X163585496Y-110277007D01*
X163579684Y-110253803D01*
X163576174Y-110230142D01*
X163575000Y-110206250D01*
X163575000Y-109293750D01*
X163576174Y-109269858D01*
X163579684Y-109246197D01*
X163585496Y-109222993D01*
X163593554Y-109200471D01*
X163603782Y-109178847D01*
X163616079Y-109158330D01*
X163630329Y-109139117D01*
X163646393Y-109121393D01*
X163664117Y-109105329D01*
X163683330Y-109091079D01*
X163703847Y-109078782D01*
X163725471Y-109068554D01*
X163747993Y-109060496D01*
X163771197Y-109054684D01*
X163794858Y-109051174D01*
X163818750Y-109050000D01*
X164306250Y-109050000D01*
X164330142Y-109051174D01*
G37*
G36*
X169230142Y-105326174D02*
G01*
X169253803Y-105329684D01*
X169277007Y-105335496D01*
X169299529Y-105343554D01*
X169321153Y-105353782D01*
X169341670Y-105366079D01*
X169360883Y-105380329D01*
X169378607Y-105396393D01*
X169394671Y-105414117D01*
X169408921Y-105433330D01*
X169421218Y-105453847D01*
X169431446Y-105475471D01*
X169439504Y-105497993D01*
X169445316Y-105521197D01*
X169448826Y-105544858D01*
X169450000Y-105568750D01*
X169450000Y-106056250D01*
X169448826Y-106080142D01*
X169445316Y-106103803D01*
X169439504Y-106127007D01*
X169431446Y-106149529D01*
X169421218Y-106171153D01*
X169408921Y-106191670D01*
X169394671Y-106210883D01*
X169378607Y-106228607D01*
X169360883Y-106244671D01*
X169341670Y-106258921D01*
X169321153Y-106271218D01*
X169299529Y-106281446D01*
X169277007Y-106289504D01*
X169253803Y-106295316D01*
X169230142Y-106298826D01*
X169206250Y-106300000D01*
X168293750Y-106300000D01*
X168269858Y-106298826D01*
X168246197Y-106295316D01*
X168222993Y-106289504D01*
X168200471Y-106281446D01*
X168178847Y-106271218D01*
X168158330Y-106258921D01*
X168139117Y-106244671D01*
X168121393Y-106228607D01*
X168105329Y-106210883D01*
X168091079Y-106191670D01*
X168078782Y-106171153D01*
X168068554Y-106149529D01*
X168060496Y-106127007D01*
X168054684Y-106103803D01*
X168051174Y-106080142D01*
X168050000Y-106056250D01*
X168050000Y-105568750D01*
X168051174Y-105544858D01*
X168054684Y-105521197D01*
X168060496Y-105497993D01*
X168068554Y-105475471D01*
X168078782Y-105453847D01*
X168091079Y-105433330D01*
X168105329Y-105414117D01*
X168121393Y-105396393D01*
X168139117Y-105380329D01*
X168158330Y-105366079D01*
X168178847Y-105353782D01*
X168200471Y-105343554D01*
X168222993Y-105335496D01*
X168246197Y-105329684D01*
X168269858Y-105326174D01*
X168293750Y-105325000D01*
X169206250Y-105325000D01*
X169230142Y-105326174D01*
G37*
G36*
X169230142Y-107201174D02*
G01*
X169253803Y-107204684D01*
X169277007Y-107210496D01*
X169299529Y-107218554D01*
X169321153Y-107228782D01*
X169341670Y-107241079D01*
X169360883Y-107255329D01*
X169378607Y-107271393D01*
X169394671Y-107289117D01*
X169408921Y-107308330D01*
X169421218Y-107328847D01*
X169431446Y-107350471D01*
X169439504Y-107372993D01*
X169445316Y-107396197D01*
X169448826Y-107419858D01*
X169450000Y-107443750D01*
X169450000Y-107931250D01*
X169448826Y-107955142D01*
X169445316Y-107978803D01*
X169439504Y-108002007D01*
X169431446Y-108024529D01*
X169421218Y-108046153D01*
X169408921Y-108066670D01*
X169394671Y-108085883D01*
X169378607Y-108103607D01*
X169360883Y-108119671D01*
X169341670Y-108133921D01*
X169321153Y-108146218D01*
X169299529Y-108156446D01*
X169277007Y-108164504D01*
X169253803Y-108170316D01*
X169230142Y-108173826D01*
X169206250Y-108175000D01*
X168293750Y-108175000D01*
X168269858Y-108173826D01*
X168246197Y-108170316D01*
X168222993Y-108164504D01*
X168200471Y-108156446D01*
X168178847Y-108146218D01*
X168158330Y-108133921D01*
X168139117Y-108119671D01*
X168121393Y-108103607D01*
X168105329Y-108085883D01*
X168091079Y-108066670D01*
X168078782Y-108046153D01*
X168068554Y-108024529D01*
X168060496Y-108002007D01*
X168054684Y-107978803D01*
X168051174Y-107955142D01*
X168050000Y-107931250D01*
X168050000Y-107443750D01*
X168051174Y-107419858D01*
X168054684Y-107396197D01*
X168060496Y-107372993D01*
X168068554Y-107350471D01*
X168078782Y-107328847D01*
X168091079Y-107308330D01*
X168105329Y-107289117D01*
X168121393Y-107271393D01*
X168139117Y-107255329D01*
X168158330Y-107241079D01*
X168178847Y-107228782D01*
X168200471Y-107218554D01*
X168222993Y-107210496D01*
X168246197Y-107204684D01*
X168269858Y-107201174D01*
X168293750Y-107200000D01*
X169206250Y-107200000D01*
X169230142Y-107201174D01*
G37*
G36*
X160730142Y-108888674D02*
G01*
X160753803Y-108892184D01*
X160777007Y-108897996D01*
X160799529Y-108906054D01*
X160821153Y-108916282D01*
X160841670Y-108928579D01*
X160860883Y-108942829D01*
X160878607Y-108958893D01*
X160894671Y-108976617D01*
X160908921Y-108995830D01*
X160921218Y-109016347D01*
X160931446Y-109037971D01*
X160939504Y-109060493D01*
X160945316Y-109083697D01*
X160948826Y-109107358D01*
X160950000Y-109131250D01*
X160950000Y-109618750D01*
X160948826Y-109642642D01*
X160945316Y-109666303D01*
X160939504Y-109689507D01*
X160931446Y-109712029D01*
X160921218Y-109733653D01*
X160908921Y-109754170D01*
X160894671Y-109773383D01*
X160878607Y-109791107D01*
X160860883Y-109807171D01*
X160841670Y-109821421D01*
X160821153Y-109833718D01*
X160799529Y-109843946D01*
X160777007Y-109852004D01*
X160753803Y-109857816D01*
X160730142Y-109861326D01*
X160706250Y-109862500D01*
X159793750Y-109862500D01*
X159769858Y-109861326D01*
X159746197Y-109857816D01*
X159722993Y-109852004D01*
X159700471Y-109843946D01*
X159678847Y-109833718D01*
X159658330Y-109821421D01*
X159639117Y-109807171D01*
X159621393Y-109791107D01*
X159605329Y-109773383D01*
X159591079Y-109754170D01*
X159578782Y-109733653D01*
X159568554Y-109712029D01*
X159560496Y-109689507D01*
X159554684Y-109666303D01*
X159551174Y-109642642D01*
X159550000Y-109618750D01*
X159550000Y-109131250D01*
X159551174Y-109107358D01*
X159554684Y-109083697D01*
X159560496Y-109060493D01*
X159568554Y-109037971D01*
X159578782Y-109016347D01*
X159591079Y-108995830D01*
X159605329Y-108976617D01*
X159621393Y-108958893D01*
X159639117Y-108942829D01*
X159658330Y-108928579D01*
X159678847Y-108916282D01*
X159700471Y-108906054D01*
X159722993Y-108897996D01*
X159746197Y-108892184D01*
X159769858Y-108888674D01*
X159793750Y-108887500D01*
X160706250Y-108887500D01*
X160730142Y-108888674D01*
G37*
G36*
X160730142Y-107013674D02*
G01*
X160753803Y-107017184D01*
X160777007Y-107022996D01*
X160799529Y-107031054D01*
X160821153Y-107041282D01*
X160841670Y-107053579D01*
X160860883Y-107067829D01*
X160878607Y-107083893D01*
X160894671Y-107101617D01*
X160908921Y-107120830D01*
X160921218Y-107141347D01*
X160931446Y-107162971D01*
X160939504Y-107185493D01*
X160945316Y-107208697D01*
X160948826Y-107232358D01*
X160950000Y-107256250D01*
X160950000Y-107743750D01*
X160948826Y-107767642D01*
X160945316Y-107791303D01*
X160939504Y-107814507D01*
X160931446Y-107837029D01*
X160921218Y-107858653D01*
X160908921Y-107879170D01*
X160894671Y-107898383D01*
X160878607Y-107916107D01*
X160860883Y-107932171D01*
X160841670Y-107946421D01*
X160821153Y-107958718D01*
X160799529Y-107968946D01*
X160777007Y-107977004D01*
X160753803Y-107982816D01*
X160730142Y-107986326D01*
X160706250Y-107987500D01*
X159793750Y-107987500D01*
X159769858Y-107986326D01*
X159746197Y-107982816D01*
X159722993Y-107977004D01*
X159700471Y-107968946D01*
X159678847Y-107958718D01*
X159658330Y-107946421D01*
X159639117Y-107932171D01*
X159621393Y-107916107D01*
X159605329Y-107898383D01*
X159591079Y-107879170D01*
X159578782Y-107858653D01*
X159568554Y-107837029D01*
X159560496Y-107814507D01*
X159554684Y-107791303D01*
X159551174Y-107767642D01*
X159550000Y-107743750D01*
X159550000Y-107256250D01*
X159551174Y-107232358D01*
X159554684Y-107208697D01*
X159560496Y-107185493D01*
X159568554Y-107162971D01*
X159578782Y-107141347D01*
X159591079Y-107120830D01*
X159605329Y-107101617D01*
X159621393Y-107083893D01*
X159639117Y-107067829D01*
X159658330Y-107053579D01*
X159678847Y-107041282D01*
X159700471Y-107031054D01*
X159722993Y-107022996D01*
X159746197Y-107017184D01*
X159769858Y-107013674D01*
X159793750Y-107012500D01*
X160706250Y-107012500D01*
X160730142Y-107013674D01*
G37*
G36*
X150480142Y-89576174D02*
G01*
X150503803Y-89579684D01*
X150527007Y-89585496D01*
X150549529Y-89593554D01*
X150571153Y-89603782D01*
X150591670Y-89616079D01*
X150610883Y-89630329D01*
X150628607Y-89646393D01*
X150644671Y-89664117D01*
X150658921Y-89683330D01*
X150671218Y-89703847D01*
X150681446Y-89725471D01*
X150689504Y-89747993D01*
X150695316Y-89771197D01*
X150698826Y-89794858D01*
X150700000Y-89818750D01*
X150700000Y-90306250D01*
X150698826Y-90330142D01*
X150695316Y-90353803D01*
X150689504Y-90377007D01*
X150681446Y-90399529D01*
X150671218Y-90421153D01*
X150658921Y-90441670D01*
X150644671Y-90460883D01*
X150628607Y-90478607D01*
X150610883Y-90494671D01*
X150591670Y-90508921D01*
X150571153Y-90521218D01*
X150549529Y-90531446D01*
X150527007Y-90539504D01*
X150503803Y-90545316D01*
X150480142Y-90548826D01*
X150456250Y-90550000D01*
X149543750Y-90550000D01*
X149519858Y-90548826D01*
X149496197Y-90545316D01*
X149472993Y-90539504D01*
X149450471Y-90531446D01*
X149428847Y-90521218D01*
X149408330Y-90508921D01*
X149389117Y-90494671D01*
X149371393Y-90478607D01*
X149355329Y-90460883D01*
X149341079Y-90441670D01*
X149328782Y-90421153D01*
X149318554Y-90399529D01*
X149310496Y-90377007D01*
X149304684Y-90353803D01*
X149301174Y-90330142D01*
X149300000Y-90306250D01*
X149300000Y-89818750D01*
X149301174Y-89794858D01*
X149304684Y-89771197D01*
X149310496Y-89747993D01*
X149318554Y-89725471D01*
X149328782Y-89703847D01*
X149341079Y-89683330D01*
X149355329Y-89664117D01*
X149371393Y-89646393D01*
X149389117Y-89630329D01*
X149408330Y-89616079D01*
X149428847Y-89603782D01*
X149450471Y-89593554D01*
X149472993Y-89585496D01*
X149496197Y-89579684D01*
X149519858Y-89576174D01*
X149543750Y-89575000D01*
X150456250Y-89575000D01*
X150480142Y-89576174D01*
G37*
G36*
X150480142Y-91451174D02*
G01*
X150503803Y-91454684D01*
X150527007Y-91460496D01*
X150549529Y-91468554D01*
X150571153Y-91478782D01*
X150591670Y-91491079D01*
X150610883Y-91505329D01*
X150628607Y-91521393D01*
X150644671Y-91539117D01*
X150658921Y-91558330D01*
X150671218Y-91578847D01*
X150681446Y-91600471D01*
X150689504Y-91622993D01*
X150695316Y-91646197D01*
X150698826Y-91669858D01*
X150700000Y-91693750D01*
X150700000Y-92181250D01*
X150698826Y-92205142D01*
X150695316Y-92228803D01*
X150689504Y-92252007D01*
X150681446Y-92274529D01*
X150671218Y-92296153D01*
X150658921Y-92316670D01*
X150644671Y-92335883D01*
X150628607Y-92353607D01*
X150610883Y-92369671D01*
X150591670Y-92383921D01*
X150571153Y-92396218D01*
X150549529Y-92406446D01*
X150527007Y-92414504D01*
X150503803Y-92420316D01*
X150480142Y-92423826D01*
X150456250Y-92425000D01*
X149543750Y-92425000D01*
X149519858Y-92423826D01*
X149496197Y-92420316D01*
X149472993Y-92414504D01*
X149450471Y-92406446D01*
X149428847Y-92396218D01*
X149408330Y-92383921D01*
X149389117Y-92369671D01*
X149371393Y-92353607D01*
X149355329Y-92335883D01*
X149341079Y-92316670D01*
X149328782Y-92296153D01*
X149318554Y-92274529D01*
X149310496Y-92252007D01*
X149304684Y-92228803D01*
X149301174Y-92205142D01*
X149300000Y-92181250D01*
X149300000Y-91693750D01*
X149301174Y-91669858D01*
X149304684Y-91646197D01*
X149310496Y-91622993D01*
X149318554Y-91600471D01*
X149328782Y-91578847D01*
X149341079Y-91558330D01*
X149355329Y-91539117D01*
X149371393Y-91521393D01*
X149389117Y-91505329D01*
X149408330Y-91491079D01*
X149428847Y-91478782D01*
X149450471Y-91468554D01*
X149472993Y-91460496D01*
X149496197Y-91454684D01*
X149519858Y-91451174D01*
X149543750Y-91450000D01*
X150456250Y-91450000D01*
X150480142Y-91451174D01*
G37*
G36*
X150480142Y-85576174D02*
G01*
X150503803Y-85579684D01*
X150527007Y-85585496D01*
X150549529Y-85593554D01*
X150571153Y-85603782D01*
X150591670Y-85616079D01*
X150610883Y-85630329D01*
X150628607Y-85646393D01*
X150644671Y-85664117D01*
X150658921Y-85683330D01*
X150671218Y-85703847D01*
X150681446Y-85725471D01*
X150689504Y-85747993D01*
X150695316Y-85771197D01*
X150698826Y-85794858D01*
X150700000Y-85818750D01*
X150700000Y-86306250D01*
X150698826Y-86330142D01*
X150695316Y-86353803D01*
X150689504Y-86377007D01*
X150681446Y-86399529D01*
X150671218Y-86421153D01*
X150658921Y-86441670D01*
X150644671Y-86460883D01*
X150628607Y-86478607D01*
X150610883Y-86494671D01*
X150591670Y-86508921D01*
X150571153Y-86521218D01*
X150549529Y-86531446D01*
X150527007Y-86539504D01*
X150503803Y-86545316D01*
X150480142Y-86548826D01*
X150456250Y-86550000D01*
X149543750Y-86550000D01*
X149519858Y-86548826D01*
X149496197Y-86545316D01*
X149472993Y-86539504D01*
X149450471Y-86531446D01*
X149428847Y-86521218D01*
X149408330Y-86508921D01*
X149389117Y-86494671D01*
X149371393Y-86478607D01*
X149355329Y-86460883D01*
X149341079Y-86441670D01*
X149328782Y-86421153D01*
X149318554Y-86399529D01*
X149310496Y-86377007D01*
X149304684Y-86353803D01*
X149301174Y-86330142D01*
X149300000Y-86306250D01*
X149300000Y-85818750D01*
X149301174Y-85794858D01*
X149304684Y-85771197D01*
X149310496Y-85747993D01*
X149318554Y-85725471D01*
X149328782Y-85703847D01*
X149341079Y-85683330D01*
X149355329Y-85664117D01*
X149371393Y-85646393D01*
X149389117Y-85630329D01*
X149408330Y-85616079D01*
X149428847Y-85603782D01*
X149450471Y-85593554D01*
X149472993Y-85585496D01*
X149496197Y-85579684D01*
X149519858Y-85576174D01*
X149543750Y-85575000D01*
X150456250Y-85575000D01*
X150480142Y-85576174D01*
G37*
G36*
X150480142Y-87451174D02*
G01*
X150503803Y-87454684D01*
X150527007Y-87460496D01*
X150549529Y-87468554D01*
X150571153Y-87478782D01*
X150591670Y-87491079D01*
X150610883Y-87505329D01*
X150628607Y-87521393D01*
X150644671Y-87539117D01*
X150658921Y-87558330D01*
X150671218Y-87578847D01*
X150681446Y-87600471D01*
X150689504Y-87622993D01*
X150695316Y-87646197D01*
X150698826Y-87669858D01*
X150700000Y-87693750D01*
X150700000Y-88181250D01*
X150698826Y-88205142D01*
X150695316Y-88228803D01*
X150689504Y-88252007D01*
X150681446Y-88274529D01*
X150671218Y-88296153D01*
X150658921Y-88316670D01*
X150644671Y-88335883D01*
X150628607Y-88353607D01*
X150610883Y-88369671D01*
X150591670Y-88383921D01*
X150571153Y-88396218D01*
X150549529Y-88406446D01*
X150527007Y-88414504D01*
X150503803Y-88420316D01*
X150480142Y-88423826D01*
X150456250Y-88425000D01*
X149543750Y-88425000D01*
X149519858Y-88423826D01*
X149496197Y-88420316D01*
X149472993Y-88414504D01*
X149450471Y-88406446D01*
X149428847Y-88396218D01*
X149408330Y-88383921D01*
X149389117Y-88369671D01*
X149371393Y-88353607D01*
X149355329Y-88335883D01*
X149341079Y-88316670D01*
X149328782Y-88296153D01*
X149318554Y-88274529D01*
X149310496Y-88252007D01*
X149304684Y-88228803D01*
X149301174Y-88205142D01*
X149300000Y-88181250D01*
X149300000Y-87693750D01*
X149301174Y-87669858D01*
X149304684Y-87646197D01*
X149310496Y-87622993D01*
X149318554Y-87600471D01*
X149328782Y-87578847D01*
X149341079Y-87558330D01*
X149355329Y-87539117D01*
X149371393Y-87521393D01*
X149389117Y-87505329D01*
X149408330Y-87491079D01*
X149428847Y-87478782D01*
X149450471Y-87468554D01*
X149472993Y-87460496D01*
X149496197Y-87454684D01*
X149519858Y-87451174D01*
X149543750Y-87450000D01*
X150456250Y-87450000D01*
X150480142Y-87451174D01*
G37*
G36*
X173455142Y-92051174D02*
G01*
X173478803Y-92054684D01*
X173502007Y-92060496D01*
X173524529Y-92068554D01*
X173546153Y-92078782D01*
X173566670Y-92091079D01*
X173585883Y-92105329D01*
X173603607Y-92121393D01*
X173619671Y-92139117D01*
X173633921Y-92158330D01*
X173646218Y-92178847D01*
X173656446Y-92200471D01*
X173664504Y-92222993D01*
X173670316Y-92246197D01*
X173673826Y-92269858D01*
X173675000Y-92293750D01*
X173675000Y-93206250D01*
X173673826Y-93230142D01*
X173670316Y-93253803D01*
X173664504Y-93277007D01*
X173656446Y-93299529D01*
X173646218Y-93321153D01*
X173633921Y-93341670D01*
X173619671Y-93360883D01*
X173603607Y-93378607D01*
X173585883Y-93394671D01*
X173566670Y-93408921D01*
X173546153Y-93421218D01*
X173524529Y-93431446D01*
X173502007Y-93439504D01*
X173478803Y-93445316D01*
X173455142Y-93448826D01*
X173431250Y-93450000D01*
X172943750Y-93450000D01*
X172919858Y-93448826D01*
X172896197Y-93445316D01*
X172872993Y-93439504D01*
X172850471Y-93431446D01*
X172828847Y-93421218D01*
X172808330Y-93408921D01*
X172789117Y-93394671D01*
X172771393Y-93378607D01*
X172755329Y-93360883D01*
X172741079Y-93341670D01*
X172728782Y-93321153D01*
X172718554Y-93299529D01*
X172710496Y-93277007D01*
X172704684Y-93253803D01*
X172701174Y-93230142D01*
X172700000Y-93206250D01*
X172700000Y-92293750D01*
X172701174Y-92269858D01*
X172704684Y-92246197D01*
X172710496Y-92222993D01*
X172718554Y-92200471D01*
X172728782Y-92178847D01*
X172741079Y-92158330D01*
X172755329Y-92139117D01*
X172771393Y-92121393D01*
X172789117Y-92105329D01*
X172808330Y-92091079D01*
X172828847Y-92078782D01*
X172850471Y-92068554D01*
X172872993Y-92060496D01*
X172896197Y-92054684D01*
X172919858Y-92051174D01*
X172943750Y-92050000D01*
X173431250Y-92050000D01*
X173455142Y-92051174D01*
G37*
G36*
X171580142Y-92051174D02*
G01*
X171603803Y-92054684D01*
X171627007Y-92060496D01*
X171649529Y-92068554D01*
X171671153Y-92078782D01*
X171691670Y-92091079D01*
X171710883Y-92105329D01*
X171728607Y-92121393D01*
X171744671Y-92139117D01*
X171758921Y-92158330D01*
X171771218Y-92178847D01*
X171781446Y-92200471D01*
X171789504Y-92222993D01*
X171795316Y-92246197D01*
X171798826Y-92269858D01*
X171800000Y-92293750D01*
X171800000Y-93206250D01*
X171798826Y-93230142D01*
X171795316Y-93253803D01*
X171789504Y-93277007D01*
X171781446Y-93299529D01*
X171771218Y-93321153D01*
X171758921Y-93341670D01*
X171744671Y-93360883D01*
X171728607Y-93378607D01*
X171710883Y-93394671D01*
X171691670Y-93408921D01*
X171671153Y-93421218D01*
X171649529Y-93431446D01*
X171627007Y-93439504D01*
X171603803Y-93445316D01*
X171580142Y-93448826D01*
X171556250Y-93450000D01*
X171068750Y-93450000D01*
X171044858Y-93448826D01*
X171021197Y-93445316D01*
X170997993Y-93439504D01*
X170975471Y-93431446D01*
X170953847Y-93421218D01*
X170933330Y-93408921D01*
X170914117Y-93394671D01*
X170896393Y-93378607D01*
X170880329Y-93360883D01*
X170866079Y-93341670D01*
X170853782Y-93321153D01*
X170843554Y-93299529D01*
X170835496Y-93277007D01*
X170829684Y-93253803D01*
X170826174Y-93230142D01*
X170825000Y-93206250D01*
X170825000Y-92293750D01*
X170826174Y-92269858D01*
X170829684Y-92246197D01*
X170835496Y-92222993D01*
X170843554Y-92200471D01*
X170853782Y-92178847D01*
X170866079Y-92158330D01*
X170880329Y-92139117D01*
X170896393Y-92121393D01*
X170914117Y-92105329D01*
X170933330Y-92091079D01*
X170953847Y-92078782D01*
X170975471Y-92068554D01*
X170997993Y-92060496D01*
X171021197Y-92054684D01*
X171044858Y-92051174D01*
X171068750Y-92050000D01*
X171556250Y-92050000D01*
X171580142Y-92051174D01*
G37*
G36*
X173455142Y-87551174D02*
G01*
X173478803Y-87554684D01*
X173502007Y-87560496D01*
X173524529Y-87568554D01*
X173546153Y-87578782D01*
X173566670Y-87591079D01*
X173585883Y-87605329D01*
X173603607Y-87621393D01*
X173619671Y-87639117D01*
X173633921Y-87658330D01*
X173646218Y-87678847D01*
X173656446Y-87700471D01*
X173664504Y-87722993D01*
X173670316Y-87746197D01*
X173673826Y-87769858D01*
X173675000Y-87793750D01*
X173675000Y-88706250D01*
X173673826Y-88730142D01*
X173670316Y-88753803D01*
X173664504Y-88777007D01*
X173656446Y-88799529D01*
X173646218Y-88821153D01*
X173633921Y-88841670D01*
X173619671Y-88860883D01*
X173603607Y-88878607D01*
X173585883Y-88894671D01*
X173566670Y-88908921D01*
X173546153Y-88921218D01*
X173524529Y-88931446D01*
X173502007Y-88939504D01*
X173478803Y-88945316D01*
X173455142Y-88948826D01*
X173431250Y-88950000D01*
X172943750Y-88950000D01*
X172919858Y-88948826D01*
X172896197Y-88945316D01*
X172872993Y-88939504D01*
X172850471Y-88931446D01*
X172828847Y-88921218D01*
X172808330Y-88908921D01*
X172789117Y-88894671D01*
X172771393Y-88878607D01*
X172755329Y-88860883D01*
X172741079Y-88841670D01*
X172728782Y-88821153D01*
X172718554Y-88799529D01*
X172710496Y-88777007D01*
X172704684Y-88753803D01*
X172701174Y-88730142D01*
X172700000Y-88706250D01*
X172700000Y-87793750D01*
X172701174Y-87769858D01*
X172704684Y-87746197D01*
X172710496Y-87722993D01*
X172718554Y-87700471D01*
X172728782Y-87678847D01*
X172741079Y-87658330D01*
X172755329Y-87639117D01*
X172771393Y-87621393D01*
X172789117Y-87605329D01*
X172808330Y-87591079D01*
X172828847Y-87578782D01*
X172850471Y-87568554D01*
X172872993Y-87560496D01*
X172896197Y-87554684D01*
X172919858Y-87551174D01*
X172943750Y-87550000D01*
X173431250Y-87550000D01*
X173455142Y-87551174D01*
G37*
G36*
X171580142Y-87551174D02*
G01*
X171603803Y-87554684D01*
X171627007Y-87560496D01*
X171649529Y-87568554D01*
X171671153Y-87578782D01*
X171691670Y-87591079D01*
X171710883Y-87605329D01*
X171728607Y-87621393D01*
X171744671Y-87639117D01*
X171758921Y-87658330D01*
X171771218Y-87678847D01*
X171781446Y-87700471D01*
X171789504Y-87722993D01*
X171795316Y-87746197D01*
X171798826Y-87769858D01*
X171800000Y-87793750D01*
X171800000Y-88706250D01*
X171798826Y-88730142D01*
X171795316Y-88753803D01*
X171789504Y-88777007D01*
X171781446Y-88799529D01*
X171771218Y-88821153D01*
X171758921Y-88841670D01*
X171744671Y-88860883D01*
X171728607Y-88878607D01*
X171710883Y-88894671D01*
X171691670Y-88908921D01*
X171671153Y-88921218D01*
X171649529Y-88931446D01*
X171627007Y-88939504D01*
X171603803Y-88945316D01*
X171580142Y-88948826D01*
X171556250Y-88950000D01*
X171068750Y-88950000D01*
X171044858Y-88948826D01*
X171021197Y-88945316D01*
X170997993Y-88939504D01*
X170975471Y-88931446D01*
X170953847Y-88921218D01*
X170933330Y-88908921D01*
X170914117Y-88894671D01*
X170896393Y-88878607D01*
X170880329Y-88860883D01*
X170866079Y-88841670D01*
X170853782Y-88821153D01*
X170843554Y-88799529D01*
X170835496Y-88777007D01*
X170829684Y-88753803D01*
X170826174Y-88730142D01*
X170825000Y-88706250D01*
X170825000Y-87793750D01*
X170826174Y-87769858D01*
X170829684Y-87746197D01*
X170835496Y-87722993D01*
X170843554Y-87700471D01*
X170853782Y-87678847D01*
X170866079Y-87658330D01*
X170880329Y-87639117D01*
X170896393Y-87621393D01*
X170914117Y-87605329D01*
X170933330Y-87591079D01*
X170953847Y-87578782D01*
X170975471Y-87568554D01*
X170997993Y-87560496D01*
X171021197Y-87554684D01*
X171044858Y-87551174D01*
X171068750Y-87550000D01*
X171556250Y-87550000D01*
X171580142Y-87551174D01*
G37*
G36*
X159580142Y-100051174D02*
G01*
X159603803Y-100054684D01*
X159627007Y-100060496D01*
X159649529Y-100068554D01*
X159671153Y-100078782D01*
X159691670Y-100091079D01*
X159710883Y-100105329D01*
X159728607Y-100121393D01*
X159744671Y-100139117D01*
X159758921Y-100158330D01*
X159771218Y-100178847D01*
X159781446Y-100200471D01*
X159789504Y-100222993D01*
X159795316Y-100246197D01*
X159798826Y-100269858D01*
X159800000Y-100293750D01*
X159800000Y-101206250D01*
X159798826Y-101230142D01*
X159795316Y-101253803D01*
X159789504Y-101277007D01*
X159781446Y-101299529D01*
X159771218Y-101321153D01*
X159758921Y-101341670D01*
X159744671Y-101360883D01*
X159728607Y-101378607D01*
X159710883Y-101394671D01*
X159691670Y-101408921D01*
X159671153Y-101421218D01*
X159649529Y-101431446D01*
X159627007Y-101439504D01*
X159603803Y-101445316D01*
X159580142Y-101448826D01*
X159556250Y-101450000D01*
X159068750Y-101450000D01*
X159044858Y-101448826D01*
X159021197Y-101445316D01*
X158997993Y-101439504D01*
X158975471Y-101431446D01*
X158953847Y-101421218D01*
X158933330Y-101408921D01*
X158914117Y-101394671D01*
X158896393Y-101378607D01*
X158880329Y-101360883D01*
X158866079Y-101341670D01*
X158853782Y-101321153D01*
X158843554Y-101299529D01*
X158835496Y-101277007D01*
X158829684Y-101253803D01*
X158826174Y-101230142D01*
X158825000Y-101206250D01*
X158825000Y-100293750D01*
X158826174Y-100269858D01*
X158829684Y-100246197D01*
X158835496Y-100222993D01*
X158843554Y-100200471D01*
X158853782Y-100178847D01*
X158866079Y-100158330D01*
X158880329Y-100139117D01*
X158896393Y-100121393D01*
X158914117Y-100105329D01*
X158933330Y-100091079D01*
X158953847Y-100078782D01*
X158975471Y-100068554D01*
X158997993Y-100060496D01*
X159021197Y-100054684D01*
X159044858Y-100051174D01*
X159068750Y-100050000D01*
X159556250Y-100050000D01*
X159580142Y-100051174D01*
G37*
G36*
X161455142Y-100051174D02*
G01*
X161478803Y-100054684D01*
X161502007Y-100060496D01*
X161524529Y-100068554D01*
X161546153Y-100078782D01*
X161566670Y-100091079D01*
X161585883Y-100105329D01*
X161603607Y-100121393D01*
X161619671Y-100139117D01*
X161633921Y-100158330D01*
X161646218Y-100178847D01*
X161656446Y-100200471D01*
X161664504Y-100222993D01*
X161670316Y-100246197D01*
X161673826Y-100269858D01*
X161675000Y-100293750D01*
X161675000Y-101206250D01*
X161673826Y-101230142D01*
X161670316Y-101253803D01*
X161664504Y-101277007D01*
X161656446Y-101299529D01*
X161646218Y-101321153D01*
X161633921Y-101341670D01*
X161619671Y-101360883D01*
X161603607Y-101378607D01*
X161585883Y-101394671D01*
X161566670Y-101408921D01*
X161546153Y-101421218D01*
X161524529Y-101431446D01*
X161502007Y-101439504D01*
X161478803Y-101445316D01*
X161455142Y-101448826D01*
X161431250Y-101450000D01*
X160943750Y-101450000D01*
X160919858Y-101448826D01*
X160896197Y-101445316D01*
X160872993Y-101439504D01*
X160850471Y-101431446D01*
X160828847Y-101421218D01*
X160808330Y-101408921D01*
X160789117Y-101394671D01*
X160771393Y-101378607D01*
X160755329Y-101360883D01*
X160741079Y-101341670D01*
X160728782Y-101321153D01*
X160718554Y-101299529D01*
X160710496Y-101277007D01*
X160704684Y-101253803D01*
X160701174Y-101230142D01*
X160700000Y-101206250D01*
X160700000Y-100293750D01*
X160701174Y-100269858D01*
X160704684Y-100246197D01*
X160710496Y-100222993D01*
X160718554Y-100200471D01*
X160728782Y-100178847D01*
X160741079Y-100158330D01*
X160755329Y-100139117D01*
X160771393Y-100121393D01*
X160789117Y-100105329D01*
X160808330Y-100091079D01*
X160828847Y-100078782D01*
X160850471Y-100068554D01*
X160872993Y-100060496D01*
X160896197Y-100054684D01*
X160919858Y-100051174D01*
X160943750Y-100050000D01*
X161431250Y-100050000D01*
X161455142Y-100051174D01*
G37*
G36*
X161599504Y-119579684D02*
G01*
X161623773Y-119583284D01*
X161647571Y-119589245D01*
X161670671Y-119597510D01*
X161692849Y-119608000D01*
X161713893Y-119620613D01*
X161733598Y-119635227D01*
X161751777Y-119651703D01*
X161768253Y-119669882D01*
X161782867Y-119689587D01*
X161795480Y-119710631D01*
X161805970Y-119732809D01*
X161814235Y-119755909D01*
X161820196Y-119779707D01*
X161823796Y-119803976D01*
X161825000Y-119828480D01*
X161825000Y-120578480D01*
X161823796Y-120602984D01*
X161820196Y-120627253D01*
X161814235Y-120651051D01*
X161805970Y-120674151D01*
X161795480Y-120696329D01*
X161782867Y-120717373D01*
X161768253Y-120737078D01*
X161751777Y-120755257D01*
X161733598Y-120771733D01*
X161713893Y-120786347D01*
X161692849Y-120798960D01*
X161670671Y-120809450D01*
X161647571Y-120817715D01*
X161623773Y-120823676D01*
X161599504Y-120827276D01*
X161575000Y-120828480D01*
X159425000Y-120828480D01*
X159400496Y-120827276D01*
X159376227Y-120823676D01*
X159352429Y-120817715D01*
X159329329Y-120809450D01*
X159307151Y-120798960D01*
X159286107Y-120786347D01*
X159266402Y-120771733D01*
X159248223Y-120755257D01*
X159231747Y-120737078D01*
X159217133Y-120717373D01*
X159204520Y-120696329D01*
X159194030Y-120674151D01*
X159185765Y-120651051D01*
X159179804Y-120627253D01*
X159176204Y-120602984D01*
X159175000Y-120578480D01*
X159175000Y-119828480D01*
X159176204Y-119803976D01*
X159179804Y-119779707D01*
X159185765Y-119755909D01*
X159194030Y-119732809D01*
X159204520Y-119710631D01*
X159217133Y-119689587D01*
X159231747Y-119669882D01*
X159248223Y-119651703D01*
X159266402Y-119635227D01*
X159286107Y-119620613D01*
X159307151Y-119608000D01*
X159329329Y-119597510D01*
X159352429Y-119589245D01*
X159376227Y-119583284D01*
X159400496Y-119579684D01*
X159425000Y-119578480D01*
X161575000Y-119578480D01*
X161599504Y-119579684D01*
G37*
G36*
X161599504Y-116779684D02*
G01*
X161623773Y-116783284D01*
X161647571Y-116789245D01*
X161670671Y-116797510D01*
X161692849Y-116808000D01*
X161713893Y-116820613D01*
X161733598Y-116835227D01*
X161751777Y-116851703D01*
X161768253Y-116869882D01*
X161782867Y-116889587D01*
X161795480Y-116910631D01*
X161805970Y-116932809D01*
X161814235Y-116955909D01*
X161820196Y-116979707D01*
X161823796Y-117003976D01*
X161825000Y-117028480D01*
X161825000Y-117778480D01*
X161823796Y-117802984D01*
X161820196Y-117827253D01*
X161814235Y-117851051D01*
X161805970Y-117874151D01*
X161795480Y-117896329D01*
X161782867Y-117917373D01*
X161768253Y-117937078D01*
X161751777Y-117955257D01*
X161733598Y-117971733D01*
X161713893Y-117986347D01*
X161692849Y-117998960D01*
X161670671Y-118009450D01*
X161647571Y-118017715D01*
X161623773Y-118023676D01*
X161599504Y-118027276D01*
X161575000Y-118028480D01*
X159425000Y-118028480D01*
X159400496Y-118027276D01*
X159376227Y-118023676D01*
X159352429Y-118017715D01*
X159329329Y-118009450D01*
X159307151Y-117998960D01*
X159286107Y-117986347D01*
X159266402Y-117971733D01*
X159248223Y-117955257D01*
X159231747Y-117937078D01*
X159217133Y-117917373D01*
X159204520Y-117896329D01*
X159194030Y-117874151D01*
X159185765Y-117851051D01*
X159179804Y-117827253D01*
X159176204Y-117802984D01*
X159175000Y-117778480D01*
X159175000Y-117028480D01*
X159176204Y-117003976D01*
X159179804Y-116979707D01*
X159185765Y-116955909D01*
X159194030Y-116932809D01*
X159204520Y-116910631D01*
X159217133Y-116889587D01*
X159231747Y-116869882D01*
X159248223Y-116851703D01*
X159266402Y-116835227D01*
X159286107Y-116820613D01*
X159307151Y-116808000D01*
X159329329Y-116797510D01*
X159352429Y-116789245D01*
X159376227Y-116783284D01*
X159400496Y-116779684D01*
X159425000Y-116778480D01*
X161575000Y-116778480D01*
X161599504Y-116779684D01*
G37*
G36*
X181549504Y-100576204D02*
G01*
X181573773Y-100579804D01*
X181597571Y-100585765D01*
X181620671Y-100594030D01*
X181642849Y-100604520D01*
X181663893Y-100617133D01*
X181683598Y-100631747D01*
X181701777Y-100648223D01*
X181718253Y-100666402D01*
X181732867Y-100686107D01*
X181745480Y-100707151D01*
X181755970Y-100729329D01*
X181764235Y-100752429D01*
X181770196Y-100776227D01*
X181773796Y-100800496D01*
X181775000Y-100825000D01*
X181775000Y-102675000D01*
X181773796Y-102699504D01*
X181770196Y-102723773D01*
X181764235Y-102747571D01*
X181755970Y-102770671D01*
X181745480Y-102792849D01*
X181732867Y-102813893D01*
X181718253Y-102833598D01*
X181701777Y-102851777D01*
X181683598Y-102868253D01*
X181663893Y-102882867D01*
X181642849Y-102895480D01*
X181620671Y-102905970D01*
X181597571Y-102914235D01*
X181573773Y-102920196D01*
X181549504Y-102923796D01*
X181525000Y-102925000D01*
X179950000Y-102925000D01*
X179925496Y-102923796D01*
X179901227Y-102920196D01*
X179877429Y-102914235D01*
X179854329Y-102905970D01*
X179832151Y-102895480D01*
X179811107Y-102882867D01*
X179791402Y-102868253D01*
X179773223Y-102851777D01*
X179756747Y-102833598D01*
X179742133Y-102813893D01*
X179729520Y-102792849D01*
X179719030Y-102770671D01*
X179710765Y-102747571D01*
X179704804Y-102723773D01*
X179701204Y-102699504D01*
X179700000Y-102675000D01*
X179700000Y-100825000D01*
X179701204Y-100800496D01*
X179704804Y-100776227D01*
X179710765Y-100752429D01*
X179719030Y-100729329D01*
X179729520Y-100707151D01*
X179742133Y-100686107D01*
X179756747Y-100666402D01*
X179773223Y-100648223D01*
X179791402Y-100631747D01*
X179811107Y-100617133D01*
X179832151Y-100604520D01*
X179854329Y-100594030D01*
X179877429Y-100585765D01*
X179901227Y-100579804D01*
X179925496Y-100576204D01*
X179950000Y-100575000D01*
X181525000Y-100575000D01*
X181549504Y-100576204D01*
G37*
G36*
X186474504Y-100576204D02*
G01*
X186498773Y-100579804D01*
X186522571Y-100585765D01*
X186545671Y-100594030D01*
X186567849Y-100604520D01*
X186588893Y-100617133D01*
X186608598Y-100631747D01*
X186626777Y-100648223D01*
X186643253Y-100666402D01*
X186657867Y-100686107D01*
X186670480Y-100707151D01*
X186680970Y-100729329D01*
X186689235Y-100752429D01*
X186695196Y-100776227D01*
X186698796Y-100800496D01*
X186700000Y-100825000D01*
X186700000Y-102675000D01*
X186698796Y-102699504D01*
X186695196Y-102723773D01*
X186689235Y-102747571D01*
X186680970Y-102770671D01*
X186670480Y-102792849D01*
X186657867Y-102813893D01*
X186643253Y-102833598D01*
X186626777Y-102851777D01*
X186608598Y-102868253D01*
X186588893Y-102882867D01*
X186567849Y-102895480D01*
X186545671Y-102905970D01*
X186522571Y-102914235D01*
X186498773Y-102920196D01*
X186474504Y-102923796D01*
X186450000Y-102925000D01*
X184875000Y-102925000D01*
X184850496Y-102923796D01*
X184826227Y-102920196D01*
X184802429Y-102914235D01*
X184779329Y-102905970D01*
X184757151Y-102895480D01*
X184736107Y-102882867D01*
X184716402Y-102868253D01*
X184698223Y-102851777D01*
X184681747Y-102833598D01*
X184667133Y-102813893D01*
X184654520Y-102792849D01*
X184644030Y-102770671D01*
X184635765Y-102747571D01*
X184629804Y-102723773D01*
X184626204Y-102699504D01*
X184625000Y-102675000D01*
X184625000Y-100825000D01*
X184626204Y-100800496D01*
X184629804Y-100776227D01*
X184635765Y-100752429D01*
X184644030Y-100729329D01*
X184654520Y-100707151D01*
X184667133Y-100686107D01*
X184681747Y-100666402D01*
X184698223Y-100648223D01*
X184716402Y-100631747D01*
X184736107Y-100617133D01*
X184757151Y-100604520D01*
X184779329Y-100594030D01*
X184802429Y-100585765D01*
X184826227Y-100579804D01*
X184850496Y-100576204D01*
X184875000Y-100575000D01*
X186450000Y-100575000D01*
X186474504Y-100576204D01*
G37*
G36*
X168780142Y-116741654D02*
G01*
X168803803Y-116745164D01*
X168827007Y-116750976D01*
X168849529Y-116759034D01*
X168871153Y-116769262D01*
X168891670Y-116781559D01*
X168910883Y-116795809D01*
X168928607Y-116811873D01*
X168944671Y-116829597D01*
X168958921Y-116848810D01*
X168971218Y-116869327D01*
X168981446Y-116890951D01*
X168989504Y-116913473D01*
X168995316Y-116936677D01*
X168998826Y-116960338D01*
X169000000Y-116984230D01*
X169000000Y-117471730D01*
X168998826Y-117495622D01*
X168995316Y-117519283D01*
X168989504Y-117542487D01*
X168981446Y-117565009D01*
X168971218Y-117586633D01*
X168958921Y-117607150D01*
X168944671Y-117626363D01*
X168928607Y-117644087D01*
X168910883Y-117660151D01*
X168891670Y-117674401D01*
X168871153Y-117686698D01*
X168849529Y-117696926D01*
X168827007Y-117704984D01*
X168803803Y-117710796D01*
X168780142Y-117714306D01*
X168756250Y-117715480D01*
X167843750Y-117715480D01*
X167819858Y-117714306D01*
X167796197Y-117710796D01*
X167772993Y-117704984D01*
X167750471Y-117696926D01*
X167728847Y-117686698D01*
X167708330Y-117674401D01*
X167689117Y-117660151D01*
X167671393Y-117644087D01*
X167655329Y-117626363D01*
X167641079Y-117607150D01*
X167628782Y-117586633D01*
X167618554Y-117565009D01*
X167610496Y-117542487D01*
X167604684Y-117519283D01*
X167601174Y-117495622D01*
X167600000Y-117471730D01*
X167600000Y-116984230D01*
X167601174Y-116960338D01*
X167604684Y-116936677D01*
X167610496Y-116913473D01*
X167618554Y-116890951D01*
X167628782Y-116869327D01*
X167641079Y-116848810D01*
X167655329Y-116829597D01*
X167671393Y-116811873D01*
X167689117Y-116795809D01*
X167708330Y-116781559D01*
X167728847Y-116769262D01*
X167750471Y-116759034D01*
X167772993Y-116750976D01*
X167796197Y-116745164D01*
X167819858Y-116741654D01*
X167843750Y-116740480D01*
X168756250Y-116740480D01*
X168780142Y-116741654D01*
G37*
G36*
X168780142Y-118616654D02*
G01*
X168803803Y-118620164D01*
X168827007Y-118625976D01*
X168849529Y-118634034D01*
X168871153Y-118644262D01*
X168891670Y-118656559D01*
X168910883Y-118670809D01*
X168928607Y-118686873D01*
X168944671Y-118704597D01*
X168958921Y-118723810D01*
X168971218Y-118744327D01*
X168981446Y-118765951D01*
X168989504Y-118788473D01*
X168995316Y-118811677D01*
X168998826Y-118835338D01*
X169000000Y-118859230D01*
X169000000Y-119346730D01*
X168998826Y-119370622D01*
X168995316Y-119394283D01*
X168989504Y-119417487D01*
X168981446Y-119440009D01*
X168971218Y-119461633D01*
X168958921Y-119482150D01*
X168944671Y-119501363D01*
X168928607Y-119519087D01*
X168910883Y-119535151D01*
X168891670Y-119549401D01*
X168871153Y-119561698D01*
X168849529Y-119571926D01*
X168827007Y-119579984D01*
X168803803Y-119585796D01*
X168780142Y-119589306D01*
X168756250Y-119590480D01*
X167843750Y-119590480D01*
X167819858Y-119589306D01*
X167796197Y-119585796D01*
X167772993Y-119579984D01*
X167750471Y-119571926D01*
X167728847Y-119561698D01*
X167708330Y-119549401D01*
X167689117Y-119535151D01*
X167671393Y-119519087D01*
X167655329Y-119501363D01*
X167641079Y-119482150D01*
X167628782Y-119461633D01*
X167618554Y-119440009D01*
X167610496Y-119417487D01*
X167604684Y-119394283D01*
X167601174Y-119370622D01*
X167600000Y-119346730D01*
X167600000Y-118859230D01*
X167601174Y-118835338D01*
X167604684Y-118811677D01*
X167610496Y-118788473D01*
X167618554Y-118765951D01*
X167628782Y-118744327D01*
X167641079Y-118723810D01*
X167655329Y-118704597D01*
X167671393Y-118686873D01*
X167689117Y-118670809D01*
X167708330Y-118656559D01*
X167728847Y-118644262D01*
X167750471Y-118634034D01*
X167772993Y-118625976D01*
X167796197Y-118620164D01*
X167819858Y-118616654D01*
X167843750Y-118615480D01*
X168756250Y-118615480D01*
X168780142Y-118616654D01*
G37*
G36*
X174599504Y-115226204D02*
G01*
X174623773Y-115229804D01*
X174647571Y-115235765D01*
X174670671Y-115244030D01*
X174692849Y-115254520D01*
X174713893Y-115267133D01*
X174733598Y-115281747D01*
X174751777Y-115298223D01*
X174768253Y-115316402D01*
X174782867Y-115336107D01*
X174795480Y-115357151D01*
X174805970Y-115379329D01*
X174814235Y-115402429D01*
X174820196Y-115426227D01*
X174823796Y-115450496D01*
X174825000Y-115475000D01*
X174825000Y-116225000D01*
X174823796Y-116249504D01*
X174820196Y-116273773D01*
X174814235Y-116297571D01*
X174805970Y-116320671D01*
X174795480Y-116342849D01*
X174782867Y-116363893D01*
X174768253Y-116383598D01*
X174751777Y-116401777D01*
X174733598Y-116418253D01*
X174713893Y-116432867D01*
X174692849Y-116445480D01*
X174670671Y-116455970D01*
X174647571Y-116464235D01*
X174623773Y-116470196D01*
X174599504Y-116473796D01*
X174575000Y-116475000D01*
X172425000Y-116475000D01*
X172400496Y-116473796D01*
X172376227Y-116470196D01*
X172352429Y-116464235D01*
X172329329Y-116455970D01*
X172307151Y-116445480D01*
X172286107Y-116432867D01*
X172266402Y-116418253D01*
X172248223Y-116401777D01*
X172231747Y-116383598D01*
X172217133Y-116363893D01*
X172204520Y-116342849D01*
X172194030Y-116320671D01*
X172185765Y-116297571D01*
X172179804Y-116273773D01*
X172176204Y-116249504D01*
X172175000Y-116225000D01*
X172175000Y-115475000D01*
X172176204Y-115450496D01*
X172179804Y-115426227D01*
X172185765Y-115402429D01*
X172194030Y-115379329D01*
X172204520Y-115357151D01*
X172217133Y-115336107D01*
X172231747Y-115316402D01*
X172248223Y-115298223D01*
X172266402Y-115281747D01*
X172286107Y-115267133D01*
X172307151Y-115254520D01*
X172329329Y-115244030D01*
X172352429Y-115235765D01*
X172376227Y-115229804D01*
X172400496Y-115226204D01*
X172425000Y-115225000D01*
X174575000Y-115225000D01*
X174599504Y-115226204D01*
G37*
G36*
X174599504Y-118026204D02*
G01*
X174623773Y-118029804D01*
X174647571Y-118035765D01*
X174670671Y-118044030D01*
X174692849Y-118054520D01*
X174713893Y-118067133D01*
X174733598Y-118081747D01*
X174751777Y-118098223D01*
X174768253Y-118116402D01*
X174782867Y-118136107D01*
X174795480Y-118157151D01*
X174805970Y-118179329D01*
X174814235Y-118202429D01*
X174820196Y-118226227D01*
X174823796Y-118250496D01*
X174825000Y-118275000D01*
X174825000Y-119025000D01*
X174823796Y-119049504D01*
X174820196Y-119073773D01*
X174814235Y-119097571D01*
X174805970Y-119120671D01*
X174795480Y-119142849D01*
X174782867Y-119163893D01*
X174768253Y-119183598D01*
X174751777Y-119201777D01*
X174733598Y-119218253D01*
X174713893Y-119232867D01*
X174692849Y-119245480D01*
X174670671Y-119255970D01*
X174647571Y-119264235D01*
X174623773Y-119270196D01*
X174599504Y-119273796D01*
X174575000Y-119275000D01*
X172425000Y-119275000D01*
X172400496Y-119273796D01*
X172376227Y-119270196D01*
X172352429Y-119264235D01*
X172329329Y-119255970D01*
X172307151Y-119245480D01*
X172286107Y-119232867D01*
X172266402Y-119218253D01*
X172248223Y-119201777D01*
X172231747Y-119183598D01*
X172217133Y-119163893D01*
X172204520Y-119142849D01*
X172194030Y-119120671D01*
X172185765Y-119097571D01*
X172179804Y-119073773D01*
X172176204Y-119049504D01*
X172175000Y-119025000D01*
X172175000Y-118275000D01*
X172176204Y-118250496D01*
X172179804Y-118226227D01*
X172185765Y-118202429D01*
X172194030Y-118179329D01*
X172204520Y-118157151D01*
X172217133Y-118136107D01*
X172231747Y-118116402D01*
X172248223Y-118098223D01*
X172266402Y-118081747D01*
X172286107Y-118067133D01*
X172307151Y-118054520D01*
X172329329Y-118044030D01*
X172352429Y-118035765D01*
X172376227Y-118029804D01*
X172400496Y-118026204D01*
X172425000Y-118025000D01*
X174575000Y-118025000D01*
X174599504Y-118026204D01*
G37*
G36*
X171080142Y-118616654D02*
G01*
X171103803Y-118620164D01*
X171127007Y-118625976D01*
X171149529Y-118634034D01*
X171171153Y-118644262D01*
X171191670Y-118656559D01*
X171210883Y-118670809D01*
X171228607Y-118686873D01*
X171244671Y-118704597D01*
X171258921Y-118723810D01*
X171271218Y-118744327D01*
X171281446Y-118765951D01*
X171289504Y-118788473D01*
X171295316Y-118811677D01*
X171298826Y-118835338D01*
X171300000Y-118859230D01*
X171300000Y-119346730D01*
X171298826Y-119370622D01*
X171295316Y-119394283D01*
X171289504Y-119417487D01*
X171281446Y-119440009D01*
X171271218Y-119461633D01*
X171258921Y-119482150D01*
X171244671Y-119501363D01*
X171228607Y-119519087D01*
X171210883Y-119535151D01*
X171191670Y-119549401D01*
X171171153Y-119561698D01*
X171149529Y-119571926D01*
X171127007Y-119579984D01*
X171103803Y-119585796D01*
X171080142Y-119589306D01*
X171056250Y-119590480D01*
X170143750Y-119590480D01*
X170119858Y-119589306D01*
X170096197Y-119585796D01*
X170072993Y-119579984D01*
X170050471Y-119571926D01*
X170028847Y-119561698D01*
X170008330Y-119549401D01*
X169989117Y-119535151D01*
X169971393Y-119519087D01*
X169955329Y-119501363D01*
X169941079Y-119482150D01*
X169928782Y-119461633D01*
X169918554Y-119440009D01*
X169910496Y-119417487D01*
X169904684Y-119394283D01*
X169901174Y-119370622D01*
X169900000Y-119346730D01*
X169900000Y-118859230D01*
X169901174Y-118835338D01*
X169904684Y-118811677D01*
X169910496Y-118788473D01*
X169918554Y-118765951D01*
X169928782Y-118744327D01*
X169941079Y-118723810D01*
X169955329Y-118704597D01*
X169971393Y-118686873D01*
X169989117Y-118670809D01*
X170008330Y-118656559D01*
X170028847Y-118644262D01*
X170050471Y-118634034D01*
X170072993Y-118625976D01*
X170096197Y-118620164D01*
X170119858Y-118616654D01*
X170143750Y-118615480D01*
X171056250Y-118615480D01*
X171080142Y-118616654D01*
G37*
G36*
X171080142Y-116741654D02*
G01*
X171103803Y-116745164D01*
X171127007Y-116750976D01*
X171149529Y-116759034D01*
X171171153Y-116769262D01*
X171191670Y-116781559D01*
X171210883Y-116795809D01*
X171228607Y-116811873D01*
X171244671Y-116829597D01*
X171258921Y-116848810D01*
X171271218Y-116869327D01*
X171281446Y-116890951D01*
X171289504Y-116913473D01*
X171295316Y-116936677D01*
X171298826Y-116960338D01*
X171300000Y-116984230D01*
X171300000Y-117471730D01*
X171298826Y-117495622D01*
X171295316Y-117519283D01*
X171289504Y-117542487D01*
X171281446Y-117565009D01*
X171271218Y-117586633D01*
X171258921Y-117607150D01*
X171244671Y-117626363D01*
X171228607Y-117644087D01*
X171210883Y-117660151D01*
X171191670Y-117674401D01*
X171171153Y-117686698D01*
X171149529Y-117696926D01*
X171127007Y-117704984D01*
X171103803Y-117710796D01*
X171080142Y-117714306D01*
X171056250Y-117715480D01*
X170143750Y-117715480D01*
X170119858Y-117714306D01*
X170096197Y-117710796D01*
X170072993Y-117704984D01*
X170050471Y-117696926D01*
X170028847Y-117686698D01*
X170008330Y-117674401D01*
X169989117Y-117660151D01*
X169971393Y-117644087D01*
X169955329Y-117626363D01*
X169941079Y-117607150D01*
X169928782Y-117586633D01*
X169918554Y-117565009D01*
X169910496Y-117542487D01*
X169904684Y-117519283D01*
X169901174Y-117495622D01*
X169900000Y-117471730D01*
X169900000Y-116984230D01*
X169901174Y-116960338D01*
X169904684Y-116936677D01*
X169910496Y-116913473D01*
X169918554Y-116890951D01*
X169928782Y-116869327D01*
X169941079Y-116848810D01*
X169955329Y-116829597D01*
X169971393Y-116811873D01*
X169989117Y-116795809D01*
X170008330Y-116781559D01*
X170028847Y-116769262D01*
X170050471Y-116759034D01*
X170072993Y-116750976D01*
X170096197Y-116745164D01*
X170119858Y-116741654D01*
X170143750Y-116740480D01*
X171056250Y-116740480D01*
X171080142Y-116741654D01*
G37*
G36*
X180199504Y-86226204D02*
G01*
X180223773Y-86229804D01*
X180247571Y-86235765D01*
X180270671Y-86244030D01*
X180292849Y-86254520D01*
X180313893Y-86267133D01*
X180333598Y-86281747D01*
X180351777Y-86298223D01*
X180368253Y-86316402D01*
X180382867Y-86336107D01*
X180395480Y-86357151D01*
X180405970Y-86379329D01*
X180414235Y-86402429D01*
X180420196Y-86426227D01*
X180423796Y-86450496D01*
X180425000Y-86475000D01*
X180425000Y-88525000D01*
X180423796Y-88549504D01*
X180420196Y-88573773D01*
X180414235Y-88597571D01*
X180405970Y-88620671D01*
X180395480Y-88642849D01*
X180382867Y-88663893D01*
X180368253Y-88683598D01*
X180351777Y-88701777D01*
X180333598Y-88718253D01*
X180313893Y-88732867D01*
X180292849Y-88745480D01*
X180270671Y-88755970D01*
X180247571Y-88764235D01*
X180223773Y-88770196D01*
X180199504Y-88773796D01*
X180175000Y-88775000D01*
X178600000Y-88775000D01*
X178575496Y-88773796D01*
X178551227Y-88770196D01*
X178527429Y-88764235D01*
X178504329Y-88755970D01*
X178482151Y-88745480D01*
X178461107Y-88732867D01*
X178441402Y-88718253D01*
X178423223Y-88701777D01*
X178406747Y-88683598D01*
X178392133Y-88663893D01*
X178379520Y-88642849D01*
X178369030Y-88620671D01*
X178360765Y-88597571D01*
X178354804Y-88573773D01*
X178351204Y-88549504D01*
X178350000Y-88525000D01*
X178350000Y-86475000D01*
X178351204Y-86450496D01*
X178354804Y-86426227D01*
X178360765Y-86402429D01*
X178369030Y-86379329D01*
X178379520Y-86357151D01*
X178392133Y-86336107D01*
X178406747Y-86316402D01*
X178423223Y-86298223D01*
X178441402Y-86281747D01*
X178461107Y-86267133D01*
X178482151Y-86254520D01*
X178504329Y-86244030D01*
X178527429Y-86235765D01*
X178551227Y-86229804D01*
X178575496Y-86226204D01*
X178600000Y-86225000D01*
X180175000Y-86225000D01*
X180199504Y-86226204D01*
G37*
G36*
X186424504Y-86226204D02*
G01*
X186448773Y-86229804D01*
X186472571Y-86235765D01*
X186495671Y-86244030D01*
X186517849Y-86254520D01*
X186538893Y-86267133D01*
X186558598Y-86281747D01*
X186576777Y-86298223D01*
X186593253Y-86316402D01*
X186607867Y-86336107D01*
X186620480Y-86357151D01*
X186630970Y-86379329D01*
X186639235Y-86402429D01*
X186645196Y-86426227D01*
X186648796Y-86450496D01*
X186650000Y-86475000D01*
X186650000Y-88525000D01*
X186648796Y-88549504D01*
X186645196Y-88573773D01*
X186639235Y-88597571D01*
X186630970Y-88620671D01*
X186620480Y-88642849D01*
X186607867Y-88663893D01*
X186593253Y-88683598D01*
X186576777Y-88701777D01*
X186558598Y-88718253D01*
X186538893Y-88732867D01*
X186517849Y-88745480D01*
X186495671Y-88755970D01*
X186472571Y-88764235D01*
X186448773Y-88770196D01*
X186424504Y-88773796D01*
X186400000Y-88775000D01*
X184825000Y-88775000D01*
X184800496Y-88773796D01*
X184776227Y-88770196D01*
X184752429Y-88764235D01*
X184729329Y-88755970D01*
X184707151Y-88745480D01*
X184686107Y-88732867D01*
X184666402Y-88718253D01*
X184648223Y-88701777D01*
X184631747Y-88683598D01*
X184617133Y-88663893D01*
X184604520Y-88642849D01*
X184594030Y-88620671D01*
X184585765Y-88597571D01*
X184579804Y-88573773D01*
X184576204Y-88549504D01*
X184575000Y-88525000D01*
X184575000Y-86475000D01*
X184576204Y-86450496D01*
X184579804Y-86426227D01*
X184585765Y-86402429D01*
X184594030Y-86379329D01*
X184604520Y-86357151D01*
X184617133Y-86336107D01*
X184631747Y-86316402D01*
X184648223Y-86298223D01*
X184666402Y-86281747D01*
X184686107Y-86267133D01*
X184707151Y-86254520D01*
X184729329Y-86244030D01*
X184752429Y-86235765D01*
X184776227Y-86229804D01*
X184800496Y-86226204D01*
X184825000Y-86225000D01*
X186400000Y-86225000D01*
X186424504Y-86226204D01*
G37*
G36*
X147980142Y-85576174D02*
G01*
X148003803Y-85579684D01*
X148027007Y-85585496D01*
X148049529Y-85593554D01*
X148071153Y-85603782D01*
X148091670Y-85616079D01*
X148110883Y-85630329D01*
X148128607Y-85646393D01*
X148144671Y-85664117D01*
X148158921Y-85683330D01*
X148171218Y-85703847D01*
X148181446Y-85725471D01*
X148189504Y-85747993D01*
X148195316Y-85771197D01*
X148198826Y-85794858D01*
X148200000Y-85818750D01*
X148200000Y-86306250D01*
X148198826Y-86330142D01*
X148195316Y-86353803D01*
X148189504Y-86377007D01*
X148181446Y-86399529D01*
X148171218Y-86421153D01*
X148158921Y-86441670D01*
X148144671Y-86460883D01*
X148128607Y-86478607D01*
X148110883Y-86494671D01*
X148091670Y-86508921D01*
X148071153Y-86521218D01*
X148049529Y-86531446D01*
X148027007Y-86539504D01*
X148003803Y-86545316D01*
X147980142Y-86548826D01*
X147956250Y-86550000D01*
X147043750Y-86550000D01*
X147019858Y-86548826D01*
X146996197Y-86545316D01*
X146972993Y-86539504D01*
X146950471Y-86531446D01*
X146928847Y-86521218D01*
X146908330Y-86508921D01*
X146889117Y-86494671D01*
X146871393Y-86478607D01*
X146855329Y-86460883D01*
X146841079Y-86441670D01*
X146828782Y-86421153D01*
X146818554Y-86399529D01*
X146810496Y-86377007D01*
X146804684Y-86353803D01*
X146801174Y-86330142D01*
X146800000Y-86306250D01*
X146800000Y-85818750D01*
X146801174Y-85794858D01*
X146804684Y-85771197D01*
X146810496Y-85747993D01*
X146818554Y-85725471D01*
X146828782Y-85703847D01*
X146841079Y-85683330D01*
X146855329Y-85664117D01*
X146871393Y-85646393D01*
X146889117Y-85630329D01*
X146908330Y-85616079D01*
X146928847Y-85603782D01*
X146950471Y-85593554D01*
X146972993Y-85585496D01*
X146996197Y-85579684D01*
X147019858Y-85576174D01*
X147043750Y-85575000D01*
X147956250Y-85575000D01*
X147980142Y-85576174D01*
G37*
G36*
X147980142Y-87451174D02*
G01*
X148003803Y-87454684D01*
X148027007Y-87460496D01*
X148049529Y-87468554D01*
X148071153Y-87478782D01*
X148091670Y-87491079D01*
X148110883Y-87505329D01*
X148128607Y-87521393D01*
X148144671Y-87539117D01*
X148158921Y-87558330D01*
X148171218Y-87578847D01*
X148181446Y-87600471D01*
X148189504Y-87622993D01*
X148195316Y-87646197D01*
X148198826Y-87669858D01*
X148200000Y-87693750D01*
X148200000Y-88181250D01*
X148198826Y-88205142D01*
X148195316Y-88228803D01*
X148189504Y-88252007D01*
X148181446Y-88274529D01*
X148171218Y-88296153D01*
X148158921Y-88316670D01*
X148144671Y-88335883D01*
X148128607Y-88353607D01*
X148110883Y-88369671D01*
X148091670Y-88383921D01*
X148071153Y-88396218D01*
X148049529Y-88406446D01*
X148027007Y-88414504D01*
X148003803Y-88420316D01*
X147980142Y-88423826D01*
X147956250Y-88425000D01*
X147043750Y-88425000D01*
X147019858Y-88423826D01*
X146996197Y-88420316D01*
X146972993Y-88414504D01*
X146950471Y-88406446D01*
X146928847Y-88396218D01*
X146908330Y-88383921D01*
X146889117Y-88369671D01*
X146871393Y-88353607D01*
X146855329Y-88335883D01*
X146841079Y-88316670D01*
X146828782Y-88296153D01*
X146818554Y-88274529D01*
X146810496Y-88252007D01*
X146804684Y-88228803D01*
X146801174Y-88205142D01*
X146800000Y-88181250D01*
X146800000Y-87693750D01*
X146801174Y-87669858D01*
X146804684Y-87646197D01*
X146810496Y-87622993D01*
X146818554Y-87600471D01*
X146828782Y-87578847D01*
X146841079Y-87558330D01*
X146855329Y-87539117D01*
X146871393Y-87521393D01*
X146889117Y-87505329D01*
X146908330Y-87491079D01*
X146928847Y-87478782D01*
X146950471Y-87468554D01*
X146972993Y-87460496D01*
X146996197Y-87454684D01*
X147019858Y-87451174D01*
X147043750Y-87450000D01*
X147956250Y-87450000D01*
X147980142Y-87451174D01*
G37*
G36*
X145480142Y-87451174D02*
G01*
X145503803Y-87454684D01*
X145527007Y-87460496D01*
X145549529Y-87468554D01*
X145571153Y-87478782D01*
X145591670Y-87491079D01*
X145610883Y-87505329D01*
X145628607Y-87521393D01*
X145644671Y-87539117D01*
X145658921Y-87558330D01*
X145671218Y-87578847D01*
X145681446Y-87600471D01*
X145689504Y-87622993D01*
X145695316Y-87646197D01*
X145698826Y-87669858D01*
X145700000Y-87693750D01*
X145700000Y-88181250D01*
X145698826Y-88205142D01*
X145695316Y-88228803D01*
X145689504Y-88252007D01*
X145681446Y-88274529D01*
X145671218Y-88296153D01*
X145658921Y-88316670D01*
X145644671Y-88335883D01*
X145628607Y-88353607D01*
X145610883Y-88369671D01*
X145591670Y-88383921D01*
X145571153Y-88396218D01*
X145549529Y-88406446D01*
X145527007Y-88414504D01*
X145503803Y-88420316D01*
X145480142Y-88423826D01*
X145456250Y-88425000D01*
X144543750Y-88425000D01*
X144519858Y-88423826D01*
X144496197Y-88420316D01*
X144472993Y-88414504D01*
X144450471Y-88406446D01*
X144428847Y-88396218D01*
X144408330Y-88383921D01*
X144389117Y-88369671D01*
X144371393Y-88353607D01*
X144355329Y-88335883D01*
X144341079Y-88316670D01*
X144328782Y-88296153D01*
X144318554Y-88274529D01*
X144310496Y-88252007D01*
X144304684Y-88228803D01*
X144301174Y-88205142D01*
X144300000Y-88181250D01*
X144300000Y-87693750D01*
X144301174Y-87669858D01*
X144304684Y-87646197D01*
X144310496Y-87622993D01*
X144318554Y-87600471D01*
X144328782Y-87578847D01*
X144341079Y-87558330D01*
X144355329Y-87539117D01*
X144371393Y-87521393D01*
X144389117Y-87505329D01*
X144408330Y-87491079D01*
X144428847Y-87478782D01*
X144450471Y-87468554D01*
X144472993Y-87460496D01*
X144496197Y-87454684D01*
X144519858Y-87451174D01*
X144543750Y-87450000D01*
X145456250Y-87450000D01*
X145480142Y-87451174D01*
G37*
G36*
X145480142Y-85576174D02*
G01*
X145503803Y-85579684D01*
X145527007Y-85585496D01*
X145549529Y-85593554D01*
X145571153Y-85603782D01*
X145591670Y-85616079D01*
X145610883Y-85630329D01*
X145628607Y-85646393D01*
X145644671Y-85664117D01*
X145658921Y-85683330D01*
X145671218Y-85703847D01*
X145681446Y-85725471D01*
X145689504Y-85747993D01*
X145695316Y-85771197D01*
X145698826Y-85794858D01*
X145700000Y-85818750D01*
X145700000Y-86306250D01*
X145698826Y-86330142D01*
X145695316Y-86353803D01*
X145689504Y-86377007D01*
X145681446Y-86399529D01*
X145671218Y-86421153D01*
X145658921Y-86441670D01*
X145644671Y-86460883D01*
X145628607Y-86478607D01*
X145610883Y-86494671D01*
X145591670Y-86508921D01*
X145571153Y-86521218D01*
X145549529Y-86531446D01*
X145527007Y-86539504D01*
X145503803Y-86545316D01*
X145480142Y-86548826D01*
X145456250Y-86550000D01*
X144543750Y-86550000D01*
X144519858Y-86548826D01*
X144496197Y-86545316D01*
X144472993Y-86539504D01*
X144450471Y-86531446D01*
X144428847Y-86521218D01*
X144408330Y-86508921D01*
X144389117Y-86494671D01*
X144371393Y-86478607D01*
X144355329Y-86460883D01*
X144341079Y-86441670D01*
X144328782Y-86421153D01*
X144318554Y-86399529D01*
X144310496Y-86377007D01*
X144304684Y-86353803D01*
X144301174Y-86330142D01*
X144300000Y-86306250D01*
X144300000Y-85818750D01*
X144301174Y-85794858D01*
X144304684Y-85771197D01*
X144310496Y-85747993D01*
X144318554Y-85725471D01*
X144328782Y-85703847D01*
X144341079Y-85683330D01*
X144355329Y-85664117D01*
X144371393Y-85646393D01*
X144389117Y-85630329D01*
X144408330Y-85616079D01*
X144428847Y-85603782D01*
X144450471Y-85593554D01*
X144472993Y-85585496D01*
X144496197Y-85579684D01*
X144519858Y-85576174D01*
X144543750Y-85575000D01*
X145456250Y-85575000D01*
X145480142Y-85576174D01*
G37*
G36*
X176380142Y-98251174D02*
G01*
X176403803Y-98254684D01*
X176427007Y-98260496D01*
X176449529Y-98268554D01*
X176471153Y-98278782D01*
X176491670Y-98291079D01*
X176510883Y-98305329D01*
X176528607Y-98321393D01*
X176544671Y-98339117D01*
X176558921Y-98358330D01*
X176571218Y-98378847D01*
X176581446Y-98400471D01*
X176589504Y-98422993D01*
X176595316Y-98446197D01*
X176598826Y-98469858D01*
X176600000Y-98493750D01*
X176600000Y-98981250D01*
X176598826Y-99005142D01*
X176595316Y-99028803D01*
X176589504Y-99052007D01*
X176581446Y-99074529D01*
X176571218Y-99096153D01*
X176558921Y-99116670D01*
X176544671Y-99135883D01*
X176528607Y-99153607D01*
X176510883Y-99169671D01*
X176491670Y-99183921D01*
X176471153Y-99196218D01*
X176449529Y-99206446D01*
X176427007Y-99214504D01*
X176403803Y-99220316D01*
X176380142Y-99223826D01*
X176356250Y-99225000D01*
X175443750Y-99225000D01*
X175419858Y-99223826D01*
X175396197Y-99220316D01*
X175372993Y-99214504D01*
X175350471Y-99206446D01*
X175328847Y-99196218D01*
X175308330Y-99183921D01*
X175289117Y-99169671D01*
X175271393Y-99153607D01*
X175255329Y-99135883D01*
X175241079Y-99116670D01*
X175228782Y-99096153D01*
X175218554Y-99074529D01*
X175210496Y-99052007D01*
X175204684Y-99028803D01*
X175201174Y-99005142D01*
X175200000Y-98981250D01*
X175200000Y-98493750D01*
X175201174Y-98469858D01*
X175204684Y-98446197D01*
X175210496Y-98422993D01*
X175218554Y-98400471D01*
X175228782Y-98378847D01*
X175241079Y-98358330D01*
X175255329Y-98339117D01*
X175271393Y-98321393D01*
X175289117Y-98305329D01*
X175308330Y-98291079D01*
X175328847Y-98278782D01*
X175350471Y-98268554D01*
X175372993Y-98260496D01*
X175396197Y-98254684D01*
X175419858Y-98251174D01*
X175443750Y-98250000D01*
X176356250Y-98250000D01*
X176380142Y-98251174D01*
G37*
G36*
X176380142Y-96376174D02*
G01*
X176403803Y-96379684D01*
X176427007Y-96385496D01*
X176449529Y-96393554D01*
X176471153Y-96403782D01*
X176491670Y-96416079D01*
X176510883Y-96430329D01*
X176528607Y-96446393D01*
X176544671Y-96464117D01*
X176558921Y-96483330D01*
X176571218Y-96503847D01*
X176581446Y-96525471D01*
X176589504Y-96547993D01*
X176595316Y-96571197D01*
X176598826Y-96594858D01*
X176600000Y-96618750D01*
X176600000Y-97106250D01*
X176598826Y-97130142D01*
X176595316Y-97153803D01*
X176589504Y-97177007D01*
X176581446Y-97199529D01*
X176571218Y-97221153D01*
X176558921Y-97241670D01*
X176544671Y-97260883D01*
X176528607Y-97278607D01*
X176510883Y-97294671D01*
X176491670Y-97308921D01*
X176471153Y-97321218D01*
X176449529Y-97331446D01*
X176427007Y-97339504D01*
X176403803Y-97345316D01*
X176380142Y-97348826D01*
X176356250Y-97350000D01*
X175443750Y-97350000D01*
X175419858Y-97348826D01*
X175396197Y-97345316D01*
X175372993Y-97339504D01*
X175350471Y-97331446D01*
X175328847Y-97321218D01*
X175308330Y-97308921D01*
X175289117Y-97294671D01*
X175271393Y-97278607D01*
X175255329Y-97260883D01*
X175241079Y-97241670D01*
X175228782Y-97221153D01*
X175218554Y-97199529D01*
X175210496Y-97177007D01*
X175204684Y-97153803D01*
X175201174Y-97130142D01*
X175200000Y-97106250D01*
X175200000Y-96618750D01*
X175201174Y-96594858D01*
X175204684Y-96571197D01*
X175210496Y-96547993D01*
X175218554Y-96525471D01*
X175228782Y-96503847D01*
X175241079Y-96483330D01*
X175255329Y-96464117D01*
X175271393Y-96446393D01*
X175289117Y-96430329D01*
X175308330Y-96416079D01*
X175328847Y-96403782D01*
X175350471Y-96393554D01*
X175372993Y-96385496D01*
X175396197Y-96379684D01*
X175419858Y-96376174D01*
X175443750Y-96375000D01*
X176356250Y-96375000D01*
X176380142Y-96376174D01*
G37*
D14*
X162400000Y-114500000D03*
X164600000Y-114500000D03*
D15*
X177700000Y-125750000D03*
X175700000Y-126700000D03*
X175700000Y-124800000D03*
X153250000Y-126700000D03*
X153250000Y-124800000D03*
X151250000Y-125750000D03*
X178500000Y-109800000D03*
X180500000Y-108850000D03*
X180500000Y-110750000D03*
X147500000Y-109750000D03*
X147500000Y-107850000D03*
X145500000Y-108800000D03*
D13*
G36*
X156480142Y-97326174D02*
G01*
X156503803Y-97329684D01*
X156527007Y-97335496D01*
X156549529Y-97343554D01*
X156571153Y-97353782D01*
X156591670Y-97366079D01*
X156610883Y-97380329D01*
X156628607Y-97396393D01*
X156644671Y-97414117D01*
X156658921Y-97433330D01*
X156671218Y-97453847D01*
X156681446Y-97475471D01*
X156689504Y-97497993D01*
X156695316Y-97521197D01*
X156698826Y-97544858D01*
X156700000Y-97568750D01*
X156700000Y-98056250D01*
X156698826Y-98080142D01*
X156695316Y-98103803D01*
X156689504Y-98127007D01*
X156681446Y-98149529D01*
X156671218Y-98171153D01*
X156658921Y-98191670D01*
X156644671Y-98210883D01*
X156628607Y-98228607D01*
X156610883Y-98244671D01*
X156591670Y-98258921D01*
X156571153Y-98271218D01*
X156549529Y-98281446D01*
X156527007Y-98289504D01*
X156503803Y-98295316D01*
X156480142Y-98298826D01*
X156456250Y-98300000D01*
X155543750Y-98300000D01*
X155519858Y-98298826D01*
X155496197Y-98295316D01*
X155472993Y-98289504D01*
X155450471Y-98281446D01*
X155428847Y-98271218D01*
X155408330Y-98258921D01*
X155389117Y-98244671D01*
X155371393Y-98228607D01*
X155355329Y-98210883D01*
X155341079Y-98191670D01*
X155328782Y-98171153D01*
X155318554Y-98149529D01*
X155310496Y-98127007D01*
X155304684Y-98103803D01*
X155301174Y-98080142D01*
X155300000Y-98056250D01*
X155300000Y-97568750D01*
X155301174Y-97544858D01*
X155304684Y-97521197D01*
X155310496Y-97497993D01*
X155318554Y-97475471D01*
X155328782Y-97453847D01*
X155341079Y-97433330D01*
X155355329Y-97414117D01*
X155371393Y-97396393D01*
X155389117Y-97380329D01*
X155408330Y-97366079D01*
X155428847Y-97353782D01*
X155450471Y-97343554D01*
X155472993Y-97335496D01*
X155496197Y-97329684D01*
X155519858Y-97326174D01*
X155543750Y-97325000D01*
X156456250Y-97325000D01*
X156480142Y-97326174D01*
G37*
G36*
X156480142Y-99201174D02*
G01*
X156503803Y-99204684D01*
X156527007Y-99210496D01*
X156549529Y-99218554D01*
X156571153Y-99228782D01*
X156591670Y-99241079D01*
X156610883Y-99255329D01*
X156628607Y-99271393D01*
X156644671Y-99289117D01*
X156658921Y-99308330D01*
X156671218Y-99328847D01*
X156681446Y-99350471D01*
X156689504Y-99372993D01*
X156695316Y-99396197D01*
X156698826Y-99419858D01*
X156700000Y-99443750D01*
X156700000Y-99931250D01*
X156698826Y-99955142D01*
X156695316Y-99978803D01*
X156689504Y-100002007D01*
X156681446Y-100024529D01*
X156671218Y-100046153D01*
X156658921Y-100066670D01*
X156644671Y-100085883D01*
X156628607Y-100103607D01*
X156610883Y-100119671D01*
X156591670Y-100133921D01*
X156571153Y-100146218D01*
X156549529Y-100156446D01*
X156527007Y-100164504D01*
X156503803Y-100170316D01*
X156480142Y-100173826D01*
X156456250Y-100175000D01*
X155543750Y-100175000D01*
X155519858Y-100173826D01*
X155496197Y-100170316D01*
X155472993Y-100164504D01*
X155450471Y-100156446D01*
X155428847Y-100146218D01*
X155408330Y-100133921D01*
X155389117Y-100119671D01*
X155371393Y-100103607D01*
X155355329Y-100085883D01*
X155341079Y-100066670D01*
X155328782Y-100046153D01*
X155318554Y-100024529D01*
X155310496Y-100002007D01*
X155304684Y-99978803D01*
X155301174Y-99955142D01*
X155300000Y-99931250D01*
X155300000Y-99443750D01*
X155301174Y-99419858D01*
X155304684Y-99396197D01*
X155310496Y-99372993D01*
X155318554Y-99350471D01*
X155328782Y-99328847D01*
X155341079Y-99308330D01*
X155355329Y-99289117D01*
X155371393Y-99271393D01*
X155389117Y-99255329D01*
X155408330Y-99241079D01*
X155428847Y-99228782D01*
X155450471Y-99218554D01*
X155472993Y-99210496D01*
X155496197Y-99204684D01*
X155519858Y-99201174D01*
X155543750Y-99200000D01*
X156456250Y-99200000D01*
X156480142Y-99201174D01*
G37*
G36*
X153980142Y-97326174D02*
G01*
X154003803Y-97329684D01*
X154027007Y-97335496D01*
X154049529Y-97343554D01*
X154071153Y-97353782D01*
X154091670Y-97366079D01*
X154110883Y-97380329D01*
X154128607Y-97396393D01*
X154144671Y-97414117D01*
X154158921Y-97433330D01*
X154171218Y-97453847D01*
X154181446Y-97475471D01*
X154189504Y-97497993D01*
X154195316Y-97521197D01*
X154198826Y-97544858D01*
X154200000Y-97568750D01*
X154200000Y-98056250D01*
X154198826Y-98080142D01*
X154195316Y-98103803D01*
X154189504Y-98127007D01*
X154181446Y-98149529D01*
X154171218Y-98171153D01*
X154158921Y-98191670D01*
X154144671Y-98210883D01*
X154128607Y-98228607D01*
X154110883Y-98244671D01*
X154091670Y-98258921D01*
X154071153Y-98271218D01*
X154049529Y-98281446D01*
X154027007Y-98289504D01*
X154003803Y-98295316D01*
X153980142Y-98298826D01*
X153956250Y-98300000D01*
X153043750Y-98300000D01*
X153019858Y-98298826D01*
X152996197Y-98295316D01*
X152972993Y-98289504D01*
X152950471Y-98281446D01*
X152928847Y-98271218D01*
X152908330Y-98258921D01*
X152889117Y-98244671D01*
X152871393Y-98228607D01*
X152855329Y-98210883D01*
X152841079Y-98191670D01*
X152828782Y-98171153D01*
X152818554Y-98149529D01*
X152810496Y-98127007D01*
X152804684Y-98103803D01*
X152801174Y-98080142D01*
X152800000Y-98056250D01*
X152800000Y-97568750D01*
X152801174Y-97544858D01*
X152804684Y-97521197D01*
X152810496Y-97497993D01*
X152818554Y-97475471D01*
X152828782Y-97453847D01*
X152841079Y-97433330D01*
X152855329Y-97414117D01*
X152871393Y-97396393D01*
X152889117Y-97380329D01*
X152908330Y-97366079D01*
X152928847Y-97353782D01*
X152950471Y-97343554D01*
X152972993Y-97335496D01*
X152996197Y-97329684D01*
X153019858Y-97326174D01*
X153043750Y-97325000D01*
X153956250Y-97325000D01*
X153980142Y-97326174D01*
G37*
G36*
X153980142Y-99201174D02*
G01*
X154003803Y-99204684D01*
X154027007Y-99210496D01*
X154049529Y-99218554D01*
X154071153Y-99228782D01*
X154091670Y-99241079D01*
X154110883Y-99255329D01*
X154128607Y-99271393D01*
X154144671Y-99289117D01*
X154158921Y-99308330D01*
X154171218Y-99328847D01*
X154181446Y-99350471D01*
X154189504Y-99372993D01*
X154195316Y-99396197D01*
X154198826Y-99419858D01*
X154200000Y-99443750D01*
X154200000Y-99931250D01*
X154198826Y-99955142D01*
X154195316Y-99978803D01*
X154189504Y-100002007D01*
X154181446Y-100024529D01*
X154171218Y-100046153D01*
X154158921Y-100066670D01*
X154144671Y-100085883D01*
X154128607Y-100103607D01*
X154110883Y-100119671D01*
X154091670Y-100133921D01*
X154071153Y-100146218D01*
X154049529Y-100156446D01*
X154027007Y-100164504D01*
X154003803Y-100170316D01*
X153980142Y-100173826D01*
X153956250Y-100175000D01*
X153043750Y-100175000D01*
X153019858Y-100173826D01*
X152996197Y-100170316D01*
X152972993Y-100164504D01*
X152950471Y-100156446D01*
X152928847Y-100146218D01*
X152908330Y-100133921D01*
X152889117Y-100119671D01*
X152871393Y-100103607D01*
X152855329Y-100085883D01*
X152841079Y-100066670D01*
X152828782Y-100046153D01*
X152818554Y-100024529D01*
X152810496Y-100002007D01*
X152804684Y-99978803D01*
X152801174Y-99955142D01*
X152800000Y-99931250D01*
X152800000Y-99443750D01*
X152801174Y-99419858D01*
X152804684Y-99396197D01*
X152810496Y-99372993D01*
X152818554Y-99350471D01*
X152828782Y-99328847D01*
X152841079Y-99308330D01*
X152855329Y-99289117D01*
X152871393Y-99271393D01*
X152889117Y-99255329D01*
X152908330Y-99241079D01*
X152928847Y-99228782D01*
X152950471Y-99218554D01*
X152972993Y-99210496D01*
X152996197Y-99204684D01*
X153019858Y-99201174D01*
X153043750Y-99200000D01*
X153956250Y-99200000D01*
X153980142Y-99201174D01*
G37*
G36*
X173980142Y-124376174D02*
G01*
X174003803Y-124379684D01*
X174027007Y-124385496D01*
X174049529Y-124393554D01*
X174071153Y-124403782D01*
X174091670Y-124416079D01*
X174110883Y-124430329D01*
X174128607Y-124446393D01*
X174144671Y-124464117D01*
X174158921Y-124483330D01*
X174171218Y-124503847D01*
X174181446Y-124525471D01*
X174189504Y-124547993D01*
X174195316Y-124571197D01*
X174198826Y-124594858D01*
X174200000Y-124618750D01*
X174200000Y-125106250D01*
X174198826Y-125130142D01*
X174195316Y-125153803D01*
X174189504Y-125177007D01*
X174181446Y-125199529D01*
X174171218Y-125221153D01*
X174158921Y-125241670D01*
X174144671Y-125260883D01*
X174128607Y-125278607D01*
X174110883Y-125294671D01*
X174091670Y-125308921D01*
X174071153Y-125321218D01*
X174049529Y-125331446D01*
X174027007Y-125339504D01*
X174003803Y-125345316D01*
X173980142Y-125348826D01*
X173956250Y-125350000D01*
X173043750Y-125350000D01*
X173019858Y-125348826D01*
X172996197Y-125345316D01*
X172972993Y-125339504D01*
X172950471Y-125331446D01*
X172928847Y-125321218D01*
X172908330Y-125308921D01*
X172889117Y-125294671D01*
X172871393Y-125278607D01*
X172855329Y-125260883D01*
X172841079Y-125241670D01*
X172828782Y-125221153D01*
X172818554Y-125199529D01*
X172810496Y-125177007D01*
X172804684Y-125153803D01*
X172801174Y-125130142D01*
X172800000Y-125106250D01*
X172800000Y-124618750D01*
X172801174Y-124594858D01*
X172804684Y-124571197D01*
X172810496Y-124547993D01*
X172818554Y-124525471D01*
X172828782Y-124503847D01*
X172841079Y-124483330D01*
X172855329Y-124464117D01*
X172871393Y-124446393D01*
X172889117Y-124430329D01*
X172908330Y-124416079D01*
X172928847Y-124403782D01*
X172950471Y-124393554D01*
X172972993Y-124385496D01*
X172996197Y-124379684D01*
X173019858Y-124376174D01*
X173043750Y-124375000D01*
X173956250Y-124375000D01*
X173980142Y-124376174D01*
G37*
G36*
X173980142Y-126251174D02*
G01*
X174003803Y-126254684D01*
X174027007Y-126260496D01*
X174049529Y-126268554D01*
X174071153Y-126278782D01*
X174091670Y-126291079D01*
X174110883Y-126305329D01*
X174128607Y-126321393D01*
X174144671Y-126339117D01*
X174158921Y-126358330D01*
X174171218Y-126378847D01*
X174181446Y-126400471D01*
X174189504Y-126422993D01*
X174195316Y-126446197D01*
X174198826Y-126469858D01*
X174200000Y-126493750D01*
X174200000Y-126981250D01*
X174198826Y-127005142D01*
X174195316Y-127028803D01*
X174189504Y-127052007D01*
X174181446Y-127074529D01*
X174171218Y-127096153D01*
X174158921Y-127116670D01*
X174144671Y-127135883D01*
X174128607Y-127153607D01*
X174110883Y-127169671D01*
X174091670Y-127183921D01*
X174071153Y-127196218D01*
X174049529Y-127206446D01*
X174027007Y-127214504D01*
X174003803Y-127220316D01*
X173980142Y-127223826D01*
X173956250Y-127225000D01*
X173043750Y-127225000D01*
X173019858Y-127223826D01*
X172996197Y-127220316D01*
X172972993Y-127214504D01*
X172950471Y-127206446D01*
X172928847Y-127196218D01*
X172908330Y-127183921D01*
X172889117Y-127169671D01*
X172871393Y-127153607D01*
X172855329Y-127135883D01*
X172841079Y-127116670D01*
X172828782Y-127096153D01*
X172818554Y-127074529D01*
X172810496Y-127052007D01*
X172804684Y-127028803D01*
X172801174Y-127005142D01*
X172800000Y-126981250D01*
X172800000Y-126493750D01*
X172801174Y-126469858D01*
X172804684Y-126446197D01*
X172810496Y-126422993D01*
X172818554Y-126400471D01*
X172828782Y-126378847D01*
X172841079Y-126358330D01*
X172855329Y-126339117D01*
X172871393Y-126321393D01*
X172889117Y-126305329D01*
X172908330Y-126291079D01*
X172928847Y-126278782D01*
X172950471Y-126268554D01*
X172972993Y-126260496D01*
X172996197Y-126254684D01*
X173019858Y-126251174D01*
X173043750Y-126250000D01*
X173956250Y-126250000D01*
X173980142Y-126251174D01*
G37*
G36*
X159580142Y-97551174D02*
G01*
X159603803Y-97554684D01*
X159627007Y-97560496D01*
X159649529Y-97568554D01*
X159671153Y-97578782D01*
X159691670Y-97591079D01*
X159710883Y-97605329D01*
X159728607Y-97621393D01*
X159744671Y-97639117D01*
X159758921Y-97658330D01*
X159771218Y-97678847D01*
X159781446Y-97700471D01*
X159789504Y-97722993D01*
X159795316Y-97746197D01*
X159798826Y-97769858D01*
X159800000Y-97793750D01*
X159800000Y-98706250D01*
X159798826Y-98730142D01*
X159795316Y-98753803D01*
X159789504Y-98777007D01*
X159781446Y-98799529D01*
X159771218Y-98821153D01*
X159758921Y-98841670D01*
X159744671Y-98860883D01*
X159728607Y-98878607D01*
X159710883Y-98894671D01*
X159691670Y-98908921D01*
X159671153Y-98921218D01*
X159649529Y-98931446D01*
X159627007Y-98939504D01*
X159603803Y-98945316D01*
X159580142Y-98948826D01*
X159556250Y-98950000D01*
X159068750Y-98950000D01*
X159044858Y-98948826D01*
X159021197Y-98945316D01*
X158997993Y-98939504D01*
X158975471Y-98931446D01*
X158953847Y-98921218D01*
X158933330Y-98908921D01*
X158914117Y-98894671D01*
X158896393Y-98878607D01*
X158880329Y-98860883D01*
X158866079Y-98841670D01*
X158853782Y-98821153D01*
X158843554Y-98799529D01*
X158835496Y-98777007D01*
X158829684Y-98753803D01*
X158826174Y-98730142D01*
X158825000Y-98706250D01*
X158825000Y-97793750D01*
X158826174Y-97769858D01*
X158829684Y-97746197D01*
X158835496Y-97722993D01*
X158843554Y-97700471D01*
X158853782Y-97678847D01*
X158866079Y-97658330D01*
X158880329Y-97639117D01*
X158896393Y-97621393D01*
X158914117Y-97605329D01*
X158933330Y-97591079D01*
X158953847Y-97578782D01*
X158975471Y-97568554D01*
X158997993Y-97560496D01*
X159021197Y-97554684D01*
X159044858Y-97551174D01*
X159068750Y-97550000D01*
X159556250Y-97550000D01*
X159580142Y-97551174D01*
G37*
G36*
X161455142Y-97551174D02*
G01*
X161478803Y-97554684D01*
X161502007Y-97560496D01*
X161524529Y-97568554D01*
X161546153Y-97578782D01*
X161566670Y-97591079D01*
X161585883Y-97605329D01*
X161603607Y-97621393D01*
X161619671Y-97639117D01*
X161633921Y-97658330D01*
X161646218Y-97678847D01*
X161656446Y-97700471D01*
X161664504Y-97722993D01*
X161670316Y-97746197D01*
X161673826Y-97769858D01*
X161675000Y-97793750D01*
X161675000Y-98706250D01*
X161673826Y-98730142D01*
X161670316Y-98753803D01*
X161664504Y-98777007D01*
X161656446Y-98799529D01*
X161646218Y-98821153D01*
X161633921Y-98841670D01*
X161619671Y-98860883D01*
X161603607Y-98878607D01*
X161585883Y-98894671D01*
X161566670Y-98908921D01*
X161546153Y-98921218D01*
X161524529Y-98931446D01*
X161502007Y-98939504D01*
X161478803Y-98945316D01*
X161455142Y-98948826D01*
X161431250Y-98950000D01*
X160943750Y-98950000D01*
X160919858Y-98948826D01*
X160896197Y-98945316D01*
X160872993Y-98939504D01*
X160850471Y-98931446D01*
X160828847Y-98921218D01*
X160808330Y-98908921D01*
X160789117Y-98894671D01*
X160771393Y-98878607D01*
X160755329Y-98860883D01*
X160741079Y-98841670D01*
X160728782Y-98821153D01*
X160718554Y-98799529D01*
X160710496Y-98777007D01*
X160704684Y-98753803D01*
X160701174Y-98730142D01*
X160700000Y-98706250D01*
X160700000Y-97793750D01*
X160701174Y-97769858D01*
X160704684Y-97746197D01*
X160710496Y-97722993D01*
X160718554Y-97700471D01*
X160728782Y-97678847D01*
X160741079Y-97658330D01*
X160755329Y-97639117D01*
X160771393Y-97621393D01*
X160789117Y-97605329D01*
X160808330Y-97591079D01*
X160828847Y-97578782D01*
X160850471Y-97568554D01*
X160872993Y-97560496D01*
X160896197Y-97554684D01*
X160919858Y-97551174D01*
X160943750Y-97550000D01*
X161431250Y-97550000D01*
X161455142Y-97551174D01*
G37*
G36*
X155980142Y-126201174D02*
G01*
X156003803Y-126204684D01*
X156027007Y-126210496D01*
X156049529Y-126218554D01*
X156071153Y-126228782D01*
X156091670Y-126241079D01*
X156110883Y-126255329D01*
X156128607Y-126271393D01*
X156144671Y-126289117D01*
X156158921Y-126308330D01*
X156171218Y-126328847D01*
X156181446Y-126350471D01*
X156189504Y-126372993D01*
X156195316Y-126396197D01*
X156198826Y-126419858D01*
X156200000Y-126443750D01*
X156200000Y-126931250D01*
X156198826Y-126955142D01*
X156195316Y-126978803D01*
X156189504Y-127002007D01*
X156181446Y-127024529D01*
X156171218Y-127046153D01*
X156158921Y-127066670D01*
X156144671Y-127085883D01*
X156128607Y-127103607D01*
X156110883Y-127119671D01*
X156091670Y-127133921D01*
X156071153Y-127146218D01*
X156049529Y-127156446D01*
X156027007Y-127164504D01*
X156003803Y-127170316D01*
X155980142Y-127173826D01*
X155956250Y-127175000D01*
X155043750Y-127175000D01*
X155019858Y-127173826D01*
X154996197Y-127170316D01*
X154972993Y-127164504D01*
X154950471Y-127156446D01*
X154928847Y-127146218D01*
X154908330Y-127133921D01*
X154889117Y-127119671D01*
X154871393Y-127103607D01*
X154855329Y-127085883D01*
X154841079Y-127066670D01*
X154828782Y-127046153D01*
X154818554Y-127024529D01*
X154810496Y-127002007D01*
X154804684Y-126978803D01*
X154801174Y-126955142D01*
X154800000Y-126931250D01*
X154800000Y-126443750D01*
X154801174Y-126419858D01*
X154804684Y-126396197D01*
X154810496Y-126372993D01*
X154818554Y-126350471D01*
X154828782Y-126328847D01*
X154841079Y-126308330D01*
X154855329Y-126289117D01*
X154871393Y-126271393D01*
X154889117Y-126255329D01*
X154908330Y-126241079D01*
X154928847Y-126228782D01*
X154950471Y-126218554D01*
X154972993Y-126210496D01*
X154996197Y-126204684D01*
X155019858Y-126201174D01*
X155043750Y-126200000D01*
X155956250Y-126200000D01*
X155980142Y-126201174D01*
G37*
G36*
X155980142Y-124326174D02*
G01*
X156003803Y-124329684D01*
X156027007Y-124335496D01*
X156049529Y-124343554D01*
X156071153Y-124353782D01*
X156091670Y-124366079D01*
X156110883Y-124380329D01*
X156128607Y-124396393D01*
X156144671Y-124414117D01*
X156158921Y-124433330D01*
X156171218Y-124453847D01*
X156181446Y-124475471D01*
X156189504Y-124497993D01*
X156195316Y-124521197D01*
X156198826Y-124544858D01*
X156200000Y-124568750D01*
X156200000Y-125056250D01*
X156198826Y-125080142D01*
X156195316Y-125103803D01*
X156189504Y-125127007D01*
X156181446Y-125149529D01*
X156171218Y-125171153D01*
X156158921Y-125191670D01*
X156144671Y-125210883D01*
X156128607Y-125228607D01*
X156110883Y-125244671D01*
X156091670Y-125258921D01*
X156071153Y-125271218D01*
X156049529Y-125281446D01*
X156027007Y-125289504D01*
X156003803Y-125295316D01*
X155980142Y-125298826D01*
X155956250Y-125300000D01*
X155043750Y-125300000D01*
X155019858Y-125298826D01*
X154996197Y-125295316D01*
X154972993Y-125289504D01*
X154950471Y-125281446D01*
X154928847Y-125271218D01*
X154908330Y-125258921D01*
X154889117Y-125244671D01*
X154871393Y-125228607D01*
X154855329Y-125210883D01*
X154841079Y-125191670D01*
X154828782Y-125171153D01*
X154818554Y-125149529D01*
X154810496Y-125127007D01*
X154804684Y-125103803D01*
X154801174Y-125080142D01*
X154800000Y-125056250D01*
X154800000Y-124568750D01*
X154801174Y-124544858D01*
X154804684Y-124521197D01*
X154810496Y-124497993D01*
X154818554Y-124475471D01*
X154828782Y-124453847D01*
X154841079Y-124433330D01*
X154855329Y-124414117D01*
X154871393Y-124396393D01*
X154889117Y-124380329D01*
X154908330Y-124366079D01*
X154928847Y-124353782D01*
X154950471Y-124343554D01*
X154972993Y-124335496D01*
X154996197Y-124329684D01*
X155019858Y-124326174D01*
X155043750Y-124325000D01*
X155956250Y-124325000D01*
X155980142Y-124326174D01*
G37*
G36*
X158480142Y-126201174D02*
G01*
X158503803Y-126204684D01*
X158527007Y-126210496D01*
X158549529Y-126218554D01*
X158571153Y-126228782D01*
X158591670Y-126241079D01*
X158610883Y-126255329D01*
X158628607Y-126271393D01*
X158644671Y-126289117D01*
X158658921Y-126308330D01*
X158671218Y-126328847D01*
X158681446Y-126350471D01*
X158689504Y-126372993D01*
X158695316Y-126396197D01*
X158698826Y-126419858D01*
X158700000Y-126443750D01*
X158700000Y-126931250D01*
X158698826Y-126955142D01*
X158695316Y-126978803D01*
X158689504Y-127002007D01*
X158681446Y-127024529D01*
X158671218Y-127046153D01*
X158658921Y-127066670D01*
X158644671Y-127085883D01*
X158628607Y-127103607D01*
X158610883Y-127119671D01*
X158591670Y-127133921D01*
X158571153Y-127146218D01*
X158549529Y-127156446D01*
X158527007Y-127164504D01*
X158503803Y-127170316D01*
X158480142Y-127173826D01*
X158456250Y-127175000D01*
X157543750Y-127175000D01*
X157519858Y-127173826D01*
X157496197Y-127170316D01*
X157472993Y-127164504D01*
X157450471Y-127156446D01*
X157428847Y-127146218D01*
X157408330Y-127133921D01*
X157389117Y-127119671D01*
X157371393Y-127103607D01*
X157355329Y-127085883D01*
X157341079Y-127066670D01*
X157328782Y-127046153D01*
X157318554Y-127024529D01*
X157310496Y-127002007D01*
X157304684Y-126978803D01*
X157301174Y-126955142D01*
X157300000Y-126931250D01*
X157300000Y-126443750D01*
X157301174Y-126419858D01*
X157304684Y-126396197D01*
X157310496Y-126372993D01*
X157318554Y-126350471D01*
X157328782Y-126328847D01*
X157341079Y-126308330D01*
X157355329Y-126289117D01*
X157371393Y-126271393D01*
X157389117Y-126255329D01*
X157408330Y-126241079D01*
X157428847Y-126228782D01*
X157450471Y-126218554D01*
X157472993Y-126210496D01*
X157496197Y-126204684D01*
X157519858Y-126201174D01*
X157543750Y-126200000D01*
X158456250Y-126200000D01*
X158480142Y-126201174D01*
G37*
G36*
X158480142Y-124326174D02*
G01*
X158503803Y-124329684D01*
X158527007Y-124335496D01*
X158549529Y-124343554D01*
X158571153Y-124353782D01*
X158591670Y-124366079D01*
X158610883Y-124380329D01*
X158628607Y-124396393D01*
X158644671Y-124414117D01*
X158658921Y-124433330D01*
X158671218Y-124453847D01*
X158681446Y-124475471D01*
X158689504Y-124497993D01*
X158695316Y-124521197D01*
X158698826Y-124544858D01*
X158700000Y-124568750D01*
X158700000Y-125056250D01*
X158698826Y-125080142D01*
X158695316Y-125103803D01*
X158689504Y-125127007D01*
X158681446Y-125149529D01*
X158671218Y-125171153D01*
X158658921Y-125191670D01*
X158644671Y-125210883D01*
X158628607Y-125228607D01*
X158610883Y-125244671D01*
X158591670Y-125258921D01*
X158571153Y-125271218D01*
X158549529Y-125281446D01*
X158527007Y-125289504D01*
X158503803Y-125295316D01*
X158480142Y-125298826D01*
X158456250Y-125300000D01*
X157543750Y-125300000D01*
X157519858Y-125298826D01*
X157496197Y-125295316D01*
X157472993Y-125289504D01*
X157450471Y-125281446D01*
X157428847Y-125271218D01*
X157408330Y-125258921D01*
X157389117Y-125244671D01*
X157371393Y-125228607D01*
X157355329Y-125210883D01*
X157341079Y-125191670D01*
X157328782Y-125171153D01*
X157318554Y-125149529D01*
X157310496Y-125127007D01*
X157304684Y-125103803D01*
X157301174Y-125080142D01*
X157300000Y-125056250D01*
X157300000Y-124568750D01*
X157301174Y-124544858D01*
X157304684Y-124521197D01*
X157310496Y-124497993D01*
X157318554Y-124475471D01*
X157328782Y-124453847D01*
X157341079Y-124433330D01*
X157355329Y-124414117D01*
X157371393Y-124396393D01*
X157389117Y-124380329D01*
X157408330Y-124366079D01*
X157428847Y-124353782D01*
X157450471Y-124343554D01*
X157472993Y-124335496D01*
X157496197Y-124329684D01*
X157519858Y-124326174D01*
X157543750Y-124325000D01*
X158456250Y-124325000D01*
X158480142Y-124326174D01*
G37*
G36*
X186080142Y-108376174D02*
G01*
X186103803Y-108379684D01*
X186127007Y-108385496D01*
X186149529Y-108393554D01*
X186171153Y-108403782D01*
X186191670Y-108416079D01*
X186210883Y-108430329D01*
X186228607Y-108446393D01*
X186244671Y-108464117D01*
X186258921Y-108483330D01*
X186271218Y-108503847D01*
X186281446Y-108525471D01*
X186289504Y-108547993D01*
X186295316Y-108571197D01*
X186298826Y-108594858D01*
X186300000Y-108618750D01*
X186300000Y-109106250D01*
X186298826Y-109130142D01*
X186295316Y-109153803D01*
X186289504Y-109177007D01*
X186281446Y-109199529D01*
X186271218Y-109221153D01*
X186258921Y-109241670D01*
X186244671Y-109260883D01*
X186228607Y-109278607D01*
X186210883Y-109294671D01*
X186191670Y-109308921D01*
X186171153Y-109321218D01*
X186149529Y-109331446D01*
X186127007Y-109339504D01*
X186103803Y-109345316D01*
X186080142Y-109348826D01*
X186056250Y-109350000D01*
X185143750Y-109350000D01*
X185119858Y-109348826D01*
X185096197Y-109345316D01*
X185072993Y-109339504D01*
X185050471Y-109331446D01*
X185028847Y-109321218D01*
X185008330Y-109308921D01*
X184989117Y-109294671D01*
X184971393Y-109278607D01*
X184955329Y-109260883D01*
X184941079Y-109241670D01*
X184928782Y-109221153D01*
X184918554Y-109199529D01*
X184910496Y-109177007D01*
X184904684Y-109153803D01*
X184901174Y-109130142D01*
X184900000Y-109106250D01*
X184900000Y-108618750D01*
X184901174Y-108594858D01*
X184904684Y-108571197D01*
X184910496Y-108547993D01*
X184918554Y-108525471D01*
X184928782Y-108503847D01*
X184941079Y-108483330D01*
X184955329Y-108464117D01*
X184971393Y-108446393D01*
X184989117Y-108430329D01*
X185008330Y-108416079D01*
X185028847Y-108403782D01*
X185050471Y-108393554D01*
X185072993Y-108385496D01*
X185096197Y-108379684D01*
X185119858Y-108376174D01*
X185143750Y-108375000D01*
X186056250Y-108375000D01*
X186080142Y-108376174D01*
G37*
G36*
X186080142Y-110251174D02*
G01*
X186103803Y-110254684D01*
X186127007Y-110260496D01*
X186149529Y-110268554D01*
X186171153Y-110278782D01*
X186191670Y-110291079D01*
X186210883Y-110305329D01*
X186228607Y-110321393D01*
X186244671Y-110339117D01*
X186258921Y-110358330D01*
X186271218Y-110378847D01*
X186281446Y-110400471D01*
X186289504Y-110422993D01*
X186295316Y-110446197D01*
X186298826Y-110469858D01*
X186300000Y-110493750D01*
X186300000Y-110981250D01*
X186298826Y-111005142D01*
X186295316Y-111028803D01*
X186289504Y-111052007D01*
X186281446Y-111074529D01*
X186271218Y-111096153D01*
X186258921Y-111116670D01*
X186244671Y-111135883D01*
X186228607Y-111153607D01*
X186210883Y-111169671D01*
X186191670Y-111183921D01*
X186171153Y-111196218D01*
X186149529Y-111206446D01*
X186127007Y-111214504D01*
X186103803Y-111220316D01*
X186080142Y-111223826D01*
X186056250Y-111225000D01*
X185143750Y-111225000D01*
X185119858Y-111223826D01*
X185096197Y-111220316D01*
X185072993Y-111214504D01*
X185050471Y-111206446D01*
X185028847Y-111196218D01*
X185008330Y-111183921D01*
X184989117Y-111169671D01*
X184971393Y-111153607D01*
X184955329Y-111135883D01*
X184941079Y-111116670D01*
X184928782Y-111096153D01*
X184918554Y-111074529D01*
X184910496Y-111052007D01*
X184904684Y-111028803D01*
X184901174Y-111005142D01*
X184900000Y-110981250D01*
X184900000Y-110493750D01*
X184901174Y-110469858D01*
X184904684Y-110446197D01*
X184910496Y-110422993D01*
X184918554Y-110400471D01*
X184928782Y-110378847D01*
X184941079Y-110358330D01*
X184955329Y-110339117D01*
X184971393Y-110321393D01*
X184989117Y-110305329D01*
X185008330Y-110291079D01*
X185028847Y-110278782D01*
X185050471Y-110268554D01*
X185072993Y-110260496D01*
X185096197Y-110254684D01*
X185119858Y-110251174D01*
X185143750Y-110250000D01*
X186056250Y-110250000D01*
X186080142Y-110251174D01*
G37*
G36*
X147980142Y-91451174D02*
G01*
X148003803Y-91454684D01*
X148027007Y-91460496D01*
X148049529Y-91468554D01*
X148071153Y-91478782D01*
X148091670Y-91491079D01*
X148110883Y-91505329D01*
X148128607Y-91521393D01*
X148144671Y-91539117D01*
X148158921Y-91558330D01*
X148171218Y-91578847D01*
X148181446Y-91600471D01*
X148189504Y-91622993D01*
X148195316Y-91646197D01*
X148198826Y-91669858D01*
X148200000Y-91693750D01*
X148200000Y-92181250D01*
X148198826Y-92205142D01*
X148195316Y-92228803D01*
X148189504Y-92252007D01*
X148181446Y-92274529D01*
X148171218Y-92296153D01*
X148158921Y-92316670D01*
X148144671Y-92335883D01*
X148128607Y-92353607D01*
X148110883Y-92369671D01*
X148091670Y-92383921D01*
X148071153Y-92396218D01*
X148049529Y-92406446D01*
X148027007Y-92414504D01*
X148003803Y-92420316D01*
X147980142Y-92423826D01*
X147956250Y-92425000D01*
X147043750Y-92425000D01*
X147019858Y-92423826D01*
X146996197Y-92420316D01*
X146972993Y-92414504D01*
X146950471Y-92406446D01*
X146928847Y-92396218D01*
X146908330Y-92383921D01*
X146889117Y-92369671D01*
X146871393Y-92353607D01*
X146855329Y-92335883D01*
X146841079Y-92316670D01*
X146828782Y-92296153D01*
X146818554Y-92274529D01*
X146810496Y-92252007D01*
X146804684Y-92228803D01*
X146801174Y-92205142D01*
X146800000Y-92181250D01*
X146800000Y-91693750D01*
X146801174Y-91669858D01*
X146804684Y-91646197D01*
X146810496Y-91622993D01*
X146818554Y-91600471D01*
X146828782Y-91578847D01*
X146841079Y-91558330D01*
X146855329Y-91539117D01*
X146871393Y-91521393D01*
X146889117Y-91505329D01*
X146908330Y-91491079D01*
X146928847Y-91478782D01*
X146950471Y-91468554D01*
X146972993Y-91460496D01*
X146996197Y-91454684D01*
X147019858Y-91451174D01*
X147043750Y-91450000D01*
X147956250Y-91450000D01*
X147980142Y-91451174D01*
G37*
G36*
X147980142Y-89576174D02*
G01*
X148003803Y-89579684D01*
X148027007Y-89585496D01*
X148049529Y-89593554D01*
X148071153Y-89603782D01*
X148091670Y-89616079D01*
X148110883Y-89630329D01*
X148128607Y-89646393D01*
X148144671Y-89664117D01*
X148158921Y-89683330D01*
X148171218Y-89703847D01*
X148181446Y-89725471D01*
X148189504Y-89747993D01*
X148195316Y-89771197D01*
X148198826Y-89794858D01*
X148200000Y-89818750D01*
X148200000Y-90306250D01*
X148198826Y-90330142D01*
X148195316Y-90353803D01*
X148189504Y-90377007D01*
X148181446Y-90399529D01*
X148171218Y-90421153D01*
X148158921Y-90441670D01*
X148144671Y-90460883D01*
X148128607Y-90478607D01*
X148110883Y-90494671D01*
X148091670Y-90508921D01*
X148071153Y-90521218D01*
X148049529Y-90531446D01*
X148027007Y-90539504D01*
X148003803Y-90545316D01*
X147980142Y-90548826D01*
X147956250Y-90550000D01*
X147043750Y-90550000D01*
X147019858Y-90548826D01*
X146996197Y-90545316D01*
X146972993Y-90539504D01*
X146950471Y-90531446D01*
X146928847Y-90521218D01*
X146908330Y-90508921D01*
X146889117Y-90494671D01*
X146871393Y-90478607D01*
X146855329Y-90460883D01*
X146841079Y-90441670D01*
X146828782Y-90421153D01*
X146818554Y-90399529D01*
X146810496Y-90377007D01*
X146804684Y-90353803D01*
X146801174Y-90330142D01*
X146800000Y-90306250D01*
X146800000Y-89818750D01*
X146801174Y-89794858D01*
X146804684Y-89771197D01*
X146810496Y-89747993D01*
X146818554Y-89725471D01*
X146828782Y-89703847D01*
X146841079Y-89683330D01*
X146855329Y-89664117D01*
X146871393Y-89646393D01*
X146889117Y-89630329D01*
X146908330Y-89616079D01*
X146928847Y-89603782D01*
X146950471Y-89593554D01*
X146972993Y-89585496D01*
X146996197Y-89579684D01*
X147019858Y-89576174D01*
X147043750Y-89575000D01*
X147956250Y-89575000D01*
X147980142Y-89576174D01*
G37*
G36*
X145480142Y-89576174D02*
G01*
X145503803Y-89579684D01*
X145527007Y-89585496D01*
X145549529Y-89593554D01*
X145571153Y-89603782D01*
X145591670Y-89616079D01*
X145610883Y-89630329D01*
X145628607Y-89646393D01*
X145644671Y-89664117D01*
X145658921Y-89683330D01*
X145671218Y-89703847D01*
X145681446Y-89725471D01*
X145689504Y-89747993D01*
X145695316Y-89771197D01*
X145698826Y-89794858D01*
X145700000Y-89818750D01*
X145700000Y-90306250D01*
X145698826Y-90330142D01*
X145695316Y-90353803D01*
X145689504Y-90377007D01*
X145681446Y-90399529D01*
X145671218Y-90421153D01*
X145658921Y-90441670D01*
X145644671Y-90460883D01*
X145628607Y-90478607D01*
X145610883Y-90494671D01*
X145591670Y-90508921D01*
X145571153Y-90521218D01*
X145549529Y-90531446D01*
X145527007Y-90539504D01*
X145503803Y-90545316D01*
X145480142Y-90548826D01*
X145456250Y-90550000D01*
X144543750Y-90550000D01*
X144519858Y-90548826D01*
X144496197Y-90545316D01*
X144472993Y-90539504D01*
X144450471Y-90531446D01*
X144428847Y-90521218D01*
X144408330Y-90508921D01*
X144389117Y-90494671D01*
X144371393Y-90478607D01*
X144355329Y-90460883D01*
X144341079Y-90441670D01*
X144328782Y-90421153D01*
X144318554Y-90399529D01*
X144310496Y-90377007D01*
X144304684Y-90353803D01*
X144301174Y-90330142D01*
X144300000Y-90306250D01*
X144300000Y-89818750D01*
X144301174Y-89794858D01*
X144304684Y-89771197D01*
X144310496Y-89747993D01*
X144318554Y-89725471D01*
X144328782Y-89703847D01*
X144341079Y-89683330D01*
X144355329Y-89664117D01*
X144371393Y-89646393D01*
X144389117Y-89630329D01*
X144408330Y-89616079D01*
X144428847Y-89603782D01*
X144450471Y-89593554D01*
X144472993Y-89585496D01*
X144496197Y-89579684D01*
X144519858Y-89576174D01*
X144543750Y-89575000D01*
X145456250Y-89575000D01*
X145480142Y-89576174D01*
G37*
G36*
X145480142Y-91451174D02*
G01*
X145503803Y-91454684D01*
X145527007Y-91460496D01*
X145549529Y-91468554D01*
X145571153Y-91478782D01*
X145591670Y-91491079D01*
X145610883Y-91505329D01*
X145628607Y-91521393D01*
X145644671Y-91539117D01*
X145658921Y-91558330D01*
X145671218Y-91578847D01*
X145681446Y-91600471D01*
X145689504Y-91622993D01*
X145695316Y-91646197D01*
X145698826Y-91669858D01*
X145700000Y-91693750D01*
X145700000Y-92181250D01*
X145698826Y-92205142D01*
X145695316Y-92228803D01*
X145689504Y-92252007D01*
X145681446Y-92274529D01*
X145671218Y-92296153D01*
X145658921Y-92316670D01*
X145644671Y-92335883D01*
X145628607Y-92353607D01*
X145610883Y-92369671D01*
X145591670Y-92383921D01*
X145571153Y-92396218D01*
X145549529Y-92406446D01*
X145527007Y-92414504D01*
X145503803Y-92420316D01*
X145480142Y-92423826D01*
X145456250Y-92425000D01*
X144543750Y-92425000D01*
X144519858Y-92423826D01*
X144496197Y-92420316D01*
X144472993Y-92414504D01*
X144450471Y-92406446D01*
X144428847Y-92396218D01*
X144408330Y-92383921D01*
X144389117Y-92369671D01*
X144371393Y-92353607D01*
X144355329Y-92335883D01*
X144341079Y-92316670D01*
X144328782Y-92296153D01*
X144318554Y-92274529D01*
X144310496Y-92252007D01*
X144304684Y-92228803D01*
X144301174Y-92205142D01*
X144300000Y-92181250D01*
X144300000Y-91693750D01*
X144301174Y-91669858D01*
X144304684Y-91646197D01*
X144310496Y-91622993D01*
X144318554Y-91600471D01*
X144328782Y-91578847D01*
X144341079Y-91558330D01*
X144355329Y-91539117D01*
X144371393Y-91521393D01*
X144389117Y-91505329D01*
X144408330Y-91491079D01*
X144428847Y-91478782D01*
X144450471Y-91468554D01*
X144472993Y-91460496D01*
X144496197Y-91454684D01*
X144519858Y-91451174D01*
X144543750Y-91450000D01*
X145456250Y-91450000D01*
X145480142Y-91451174D01*
G37*
G36*
X171480142Y-124376174D02*
G01*
X171503803Y-124379684D01*
X171527007Y-124385496D01*
X171549529Y-124393554D01*
X171571153Y-124403782D01*
X171591670Y-124416079D01*
X171610883Y-124430329D01*
X171628607Y-124446393D01*
X171644671Y-124464117D01*
X171658921Y-124483330D01*
X171671218Y-124503847D01*
X171681446Y-124525471D01*
X171689504Y-124547993D01*
X171695316Y-124571197D01*
X171698826Y-124594858D01*
X171700000Y-124618750D01*
X171700000Y-125106250D01*
X171698826Y-125130142D01*
X171695316Y-125153803D01*
X171689504Y-125177007D01*
X171681446Y-125199529D01*
X171671218Y-125221153D01*
X171658921Y-125241670D01*
X171644671Y-125260883D01*
X171628607Y-125278607D01*
X171610883Y-125294671D01*
X171591670Y-125308921D01*
X171571153Y-125321218D01*
X171549529Y-125331446D01*
X171527007Y-125339504D01*
X171503803Y-125345316D01*
X171480142Y-125348826D01*
X171456250Y-125350000D01*
X170543750Y-125350000D01*
X170519858Y-125348826D01*
X170496197Y-125345316D01*
X170472993Y-125339504D01*
X170450471Y-125331446D01*
X170428847Y-125321218D01*
X170408330Y-125308921D01*
X170389117Y-125294671D01*
X170371393Y-125278607D01*
X170355329Y-125260883D01*
X170341079Y-125241670D01*
X170328782Y-125221153D01*
X170318554Y-125199529D01*
X170310496Y-125177007D01*
X170304684Y-125153803D01*
X170301174Y-125130142D01*
X170300000Y-125106250D01*
X170300000Y-124618750D01*
X170301174Y-124594858D01*
X170304684Y-124571197D01*
X170310496Y-124547993D01*
X170318554Y-124525471D01*
X170328782Y-124503847D01*
X170341079Y-124483330D01*
X170355329Y-124464117D01*
X170371393Y-124446393D01*
X170389117Y-124430329D01*
X170408330Y-124416079D01*
X170428847Y-124403782D01*
X170450471Y-124393554D01*
X170472993Y-124385496D01*
X170496197Y-124379684D01*
X170519858Y-124376174D01*
X170543750Y-124375000D01*
X171456250Y-124375000D01*
X171480142Y-124376174D01*
G37*
G36*
X171480142Y-126251174D02*
G01*
X171503803Y-126254684D01*
X171527007Y-126260496D01*
X171549529Y-126268554D01*
X171571153Y-126278782D01*
X171591670Y-126291079D01*
X171610883Y-126305329D01*
X171628607Y-126321393D01*
X171644671Y-126339117D01*
X171658921Y-126358330D01*
X171671218Y-126378847D01*
X171681446Y-126400471D01*
X171689504Y-126422993D01*
X171695316Y-126446197D01*
X171698826Y-126469858D01*
X171700000Y-126493750D01*
X171700000Y-126981250D01*
X171698826Y-127005142D01*
X171695316Y-127028803D01*
X171689504Y-127052007D01*
X171681446Y-127074529D01*
X171671218Y-127096153D01*
X171658921Y-127116670D01*
X171644671Y-127135883D01*
X171628607Y-127153607D01*
X171610883Y-127169671D01*
X171591670Y-127183921D01*
X171571153Y-127196218D01*
X171549529Y-127206446D01*
X171527007Y-127214504D01*
X171503803Y-127220316D01*
X171480142Y-127223826D01*
X171456250Y-127225000D01*
X170543750Y-127225000D01*
X170519858Y-127223826D01*
X170496197Y-127220316D01*
X170472993Y-127214504D01*
X170450471Y-127206446D01*
X170428847Y-127196218D01*
X170408330Y-127183921D01*
X170389117Y-127169671D01*
X170371393Y-127153607D01*
X170355329Y-127135883D01*
X170341079Y-127116670D01*
X170328782Y-127096153D01*
X170318554Y-127074529D01*
X170310496Y-127052007D01*
X170304684Y-127028803D01*
X170301174Y-127005142D01*
X170300000Y-126981250D01*
X170300000Y-126493750D01*
X170301174Y-126469858D01*
X170304684Y-126446197D01*
X170310496Y-126422993D01*
X170318554Y-126400471D01*
X170328782Y-126378847D01*
X170341079Y-126358330D01*
X170355329Y-126339117D01*
X170371393Y-126321393D01*
X170389117Y-126305329D01*
X170408330Y-126291079D01*
X170428847Y-126278782D01*
X170450471Y-126268554D01*
X170472993Y-126260496D01*
X170496197Y-126254684D01*
X170519858Y-126251174D01*
X170543750Y-126250000D01*
X171456250Y-126250000D01*
X171480142Y-126251174D01*
G37*
G36*
X183480142Y-108376174D02*
G01*
X183503803Y-108379684D01*
X183527007Y-108385496D01*
X183549529Y-108393554D01*
X183571153Y-108403782D01*
X183591670Y-108416079D01*
X183610883Y-108430329D01*
X183628607Y-108446393D01*
X183644671Y-108464117D01*
X183658921Y-108483330D01*
X183671218Y-108503847D01*
X183681446Y-108525471D01*
X183689504Y-108547993D01*
X183695316Y-108571197D01*
X183698826Y-108594858D01*
X183700000Y-108618750D01*
X183700000Y-109106250D01*
X183698826Y-109130142D01*
X183695316Y-109153803D01*
X183689504Y-109177007D01*
X183681446Y-109199529D01*
X183671218Y-109221153D01*
X183658921Y-109241670D01*
X183644671Y-109260883D01*
X183628607Y-109278607D01*
X183610883Y-109294671D01*
X183591670Y-109308921D01*
X183571153Y-109321218D01*
X183549529Y-109331446D01*
X183527007Y-109339504D01*
X183503803Y-109345316D01*
X183480142Y-109348826D01*
X183456250Y-109350000D01*
X182543750Y-109350000D01*
X182519858Y-109348826D01*
X182496197Y-109345316D01*
X182472993Y-109339504D01*
X182450471Y-109331446D01*
X182428847Y-109321218D01*
X182408330Y-109308921D01*
X182389117Y-109294671D01*
X182371393Y-109278607D01*
X182355329Y-109260883D01*
X182341079Y-109241670D01*
X182328782Y-109221153D01*
X182318554Y-109199529D01*
X182310496Y-109177007D01*
X182304684Y-109153803D01*
X182301174Y-109130142D01*
X182300000Y-109106250D01*
X182300000Y-108618750D01*
X182301174Y-108594858D01*
X182304684Y-108571197D01*
X182310496Y-108547993D01*
X182318554Y-108525471D01*
X182328782Y-108503847D01*
X182341079Y-108483330D01*
X182355329Y-108464117D01*
X182371393Y-108446393D01*
X182389117Y-108430329D01*
X182408330Y-108416079D01*
X182428847Y-108403782D01*
X182450471Y-108393554D01*
X182472993Y-108385496D01*
X182496197Y-108379684D01*
X182519858Y-108376174D01*
X182543750Y-108375000D01*
X183456250Y-108375000D01*
X183480142Y-108376174D01*
G37*
G36*
X183480142Y-110251174D02*
G01*
X183503803Y-110254684D01*
X183527007Y-110260496D01*
X183549529Y-110268554D01*
X183571153Y-110278782D01*
X183591670Y-110291079D01*
X183610883Y-110305329D01*
X183628607Y-110321393D01*
X183644671Y-110339117D01*
X183658921Y-110358330D01*
X183671218Y-110378847D01*
X183681446Y-110400471D01*
X183689504Y-110422993D01*
X183695316Y-110446197D01*
X183698826Y-110469858D01*
X183700000Y-110493750D01*
X183700000Y-110981250D01*
X183698826Y-111005142D01*
X183695316Y-111028803D01*
X183689504Y-111052007D01*
X183681446Y-111074529D01*
X183671218Y-111096153D01*
X183658921Y-111116670D01*
X183644671Y-111135883D01*
X183628607Y-111153607D01*
X183610883Y-111169671D01*
X183591670Y-111183921D01*
X183571153Y-111196218D01*
X183549529Y-111206446D01*
X183527007Y-111214504D01*
X183503803Y-111220316D01*
X183480142Y-111223826D01*
X183456250Y-111225000D01*
X182543750Y-111225000D01*
X182519858Y-111223826D01*
X182496197Y-111220316D01*
X182472993Y-111214504D01*
X182450471Y-111206446D01*
X182428847Y-111196218D01*
X182408330Y-111183921D01*
X182389117Y-111169671D01*
X182371393Y-111153607D01*
X182355329Y-111135883D01*
X182341079Y-111116670D01*
X182328782Y-111096153D01*
X182318554Y-111074529D01*
X182310496Y-111052007D01*
X182304684Y-111028803D01*
X182301174Y-111005142D01*
X182300000Y-110981250D01*
X182300000Y-110493750D01*
X182301174Y-110469858D01*
X182304684Y-110446197D01*
X182310496Y-110422993D01*
X182318554Y-110400471D01*
X182328782Y-110378847D01*
X182341079Y-110358330D01*
X182355329Y-110339117D01*
X182371393Y-110321393D01*
X182389117Y-110305329D01*
X182408330Y-110291079D01*
X182428847Y-110278782D01*
X182450471Y-110268554D01*
X182472993Y-110260496D01*
X182496197Y-110254684D01*
X182519858Y-110251174D01*
X182543750Y-110250000D01*
X183456250Y-110250000D01*
X183480142Y-110251174D01*
G37*
G36*
X150230142Y-107376174D02*
G01*
X150253803Y-107379684D01*
X150277007Y-107385496D01*
X150299529Y-107393554D01*
X150321153Y-107403782D01*
X150341670Y-107416079D01*
X150360883Y-107430329D01*
X150378607Y-107446393D01*
X150394671Y-107464117D01*
X150408921Y-107483330D01*
X150421218Y-107503847D01*
X150431446Y-107525471D01*
X150439504Y-107547993D01*
X150445316Y-107571197D01*
X150448826Y-107594858D01*
X150450000Y-107618750D01*
X150450000Y-108106250D01*
X150448826Y-108130142D01*
X150445316Y-108153803D01*
X150439504Y-108177007D01*
X150431446Y-108199529D01*
X150421218Y-108221153D01*
X150408921Y-108241670D01*
X150394671Y-108260883D01*
X150378607Y-108278607D01*
X150360883Y-108294671D01*
X150341670Y-108308921D01*
X150321153Y-108321218D01*
X150299529Y-108331446D01*
X150277007Y-108339504D01*
X150253803Y-108345316D01*
X150230142Y-108348826D01*
X150206250Y-108350000D01*
X149293750Y-108350000D01*
X149269858Y-108348826D01*
X149246197Y-108345316D01*
X149222993Y-108339504D01*
X149200471Y-108331446D01*
X149178847Y-108321218D01*
X149158330Y-108308921D01*
X149139117Y-108294671D01*
X149121393Y-108278607D01*
X149105329Y-108260883D01*
X149091079Y-108241670D01*
X149078782Y-108221153D01*
X149068554Y-108199529D01*
X149060496Y-108177007D01*
X149054684Y-108153803D01*
X149051174Y-108130142D01*
X149050000Y-108106250D01*
X149050000Y-107618750D01*
X149051174Y-107594858D01*
X149054684Y-107571197D01*
X149060496Y-107547993D01*
X149068554Y-107525471D01*
X149078782Y-107503847D01*
X149091079Y-107483330D01*
X149105329Y-107464117D01*
X149121393Y-107446393D01*
X149139117Y-107430329D01*
X149158330Y-107416079D01*
X149178847Y-107403782D01*
X149200471Y-107393554D01*
X149222993Y-107385496D01*
X149246197Y-107379684D01*
X149269858Y-107376174D01*
X149293750Y-107375000D01*
X150206250Y-107375000D01*
X150230142Y-107376174D01*
G37*
G36*
X150230142Y-109251174D02*
G01*
X150253803Y-109254684D01*
X150277007Y-109260496D01*
X150299529Y-109268554D01*
X150321153Y-109278782D01*
X150341670Y-109291079D01*
X150360883Y-109305329D01*
X150378607Y-109321393D01*
X150394671Y-109339117D01*
X150408921Y-109358330D01*
X150421218Y-109378847D01*
X150431446Y-109400471D01*
X150439504Y-109422993D01*
X150445316Y-109446197D01*
X150448826Y-109469858D01*
X150450000Y-109493750D01*
X150450000Y-109981250D01*
X150448826Y-110005142D01*
X150445316Y-110028803D01*
X150439504Y-110052007D01*
X150431446Y-110074529D01*
X150421218Y-110096153D01*
X150408921Y-110116670D01*
X150394671Y-110135883D01*
X150378607Y-110153607D01*
X150360883Y-110169671D01*
X150341670Y-110183921D01*
X150321153Y-110196218D01*
X150299529Y-110206446D01*
X150277007Y-110214504D01*
X150253803Y-110220316D01*
X150230142Y-110223826D01*
X150206250Y-110225000D01*
X149293750Y-110225000D01*
X149269858Y-110223826D01*
X149246197Y-110220316D01*
X149222993Y-110214504D01*
X149200471Y-110206446D01*
X149178847Y-110196218D01*
X149158330Y-110183921D01*
X149139117Y-110169671D01*
X149121393Y-110153607D01*
X149105329Y-110135883D01*
X149091079Y-110116670D01*
X149078782Y-110096153D01*
X149068554Y-110074529D01*
X149060496Y-110052007D01*
X149054684Y-110028803D01*
X149051174Y-110005142D01*
X149050000Y-109981250D01*
X149050000Y-109493750D01*
X149051174Y-109469858D01*
X149054684Y-109446197D01*
X149060496Y-109422993D01*
X149068554Y-109400471D01*
X149078782Y-109378847D01*
X149091079Y-109358330D01*
X149105329Y-109339117D01*
X149121393Y-109321393D01*
X149139117Y-109305329D01*
X149158330Y-109291079D01*
X149178847Y-109278782D01*
X149200471Y-109268554D01*
X149222993Y-109260496D01*
X149246197Y-109254684D01*
X149269858Y-109251174D01*
X149293750Y-109250000D01*
X150206250Y-109250000D01*
X150230142Y-109251174D01*
G37*
G36*
X152730142Y-107376174D02*
G01*
X152753803Y-107379684D01*
X152777007Y-107385496D01*
X152799529Y-107393554D01*
X152821153Y-107403782D01*
X152841670Y-107416079D01*
X152860883Y-107430329D01*
X152878607Y-107446393D01*
X152894671Y-107464117D01*
X152908921Y-107483330D01*
X152921218Y-107503847D01*
X152931446Y-107525471D01*
X152939504Y-107547993D01*
X152945316Y-107571197D01*
X152948826Y-107594858D01*
X152950000Y-107618750D01*
X152950000Y-108106250D01*
X152948826Y-108130142D01*
X152945316Y-108153803D01*
X152939504Y-108177007D01*
X152931446Y-108199529D01*
X152921218Y-108221153D01*
X152908921Y-108241670D01*
X152894671Y-108260883D01*
X152878607Y-108278607D01*
X152860883Y-108294671D01*
X152841670Y-108308921D01*
X152821153Y-108321218D01*
X152799529Y-108331446D01*
X152777007Y-108339504D01*
X152753803Y-108345316D01*
X152730142Y-108348826D01*
X152706250Y-108350000D01*
X151793750Y-108350000D01*
X151769858Y-108348826D01*
X151746197Y-108345316D01*
X151722993Y-108339504D01*
X151700471Y-108331446D01*
X151678847Y-108321218D01*
X151658330Y-108308921D01*
X151639117Y-108294671D01*
X151621393Y-108278607D01*
X151605329Y-108260883D01*
X151591079Y-108241670D01*
X151578782Y-108221153D01*
X151568554Y-108199529D01*
X151560496Y-108177007D01*
X151554684Y-108153803D01*
X151551174Y-108130142D01*
X151550000Y-108106250D01*
X151550000Y-107618750D01*
X151551174Y-107594858D01*
X151554684Y-107571197D01*
X151560496Y-107547993D01*
X151568554Y-107525471D01*
X151578782Y-107503847D01*
X151591079Y-107483330D01*
X151605329Y-107464117D01*
X151621393Y-107446393D01*
X151639117Y-107430329D01*
X151658330Y-107416079D01*
X151678847Y-107403782D01*
X151700471Y-107393554D01*
X151722993Y-107385496D01*
X151746197Y-107379684D01*
X151769858Y-107376174D01*
X151793750Y-107375000D01*
X152706250Y-107375000D01*
X152730142Y-107376174D01*
G37*
G36*
X152730142Y-109251174D02*
G01*
X152753803Y-109254684D01*
X152777007Y-109260496D01*
X152799529Y-109268554D01*
X152821153Y-109278782D01*
X152841670Y-109291079D01*
X152860883Y-109305329D01*
X152878607Y-109321393D01*
X152894671Y-109339117D01*
X152908921Y-109358330D01*
X152921218Y-109378847D01*
X152931446Y-109400471D01*
X152939504Y-109422993D01*
X152945316Y-109446197D01*
X152948826Y-109469858D01*
X152950000Y-109493750D01*
X152950000Y-109981250D01*
X152948826Y-110005142D01*
X152945316Y-110028803D01*
X152939504Y-110052007D01*
X152931446Y-110074529D01*
X152921218Y-110096153D01*
X152908921Y-110116670D01*
X152894671Y-110135883D01*
X152878607Y-110153607D01*
X152860883Y-110169671D01*
X152841670Y-110183921D01*
X152821153Y-110196218D01*
X152799529Y-110206446D01*
X152777007Y-110214504D01*
X152753803Y-110220316D01*
X152730142Y-110223826D01*
X152706250Y-110225000D01*
X151793750Y-110225000D01*
X151769858Y-110223826D01*
X151746197Y-110220316D01*
X151722993Y-110214504D01*
X151700471Y-110206446D01*
X151678847Y-110196218D01*
X151658330Y-110183921D01*
X151639117Y-110169671D01*
X151621393Y-110153607D01*
X151605329Y-110135883D01*
X151591079Y-110116670D01*
X151578782Y-110096153D01*
X151568554Y-110074529D01*
X151560496Y-110052007D01*
X151554684Y-110028803D01*
X151551174Y-110005142D01*
X151550000Y-109981250D01*
X151550000Y-109493750D01*
X151551174Y-109469858D01*
X151554684Y-109446197D01*
X151560496Y-109422993D01*
X151568554Y-109400471D01*
X151578782Y-109378847D01*
X151591079Y-109358330D01*
X151605329Y-109339117D01*
X151621393Y-109321393D01*
X151639117Y-109305329D01*
X151658330Y-109291079D01*
X151678847Y-109278782D01*
X151700471Y-109268554D01*
X151722993Y-109260496D01*
X151746197Y-109254684D01*
X151769858Y-109251174D01*
X151793750Y-109250000D01*
X152706250Y-109250000D01*
X152730142Y-109251174D01*
G37*
G36*
X156705142Y-113551174D02*
G01*
X156728803Y-113554684D01*
X156752007Y-113560496D01*
X156774529Y-113568554D01*
X156796153Y-113578782D01*
X156816670Y-113591079D01*
X156835883Y-113605329D01*
X156853607Y-113621393D01*
X156869671Y-113639117D01*
X156883921Y-113658330D01*
X156896218Y-113678847D01*
X156906446Y-113700471D01*
X156914504Y-113722993D01*
X156920316Y-113746197D01*
X156923826Y-113769858D01*
X156925000Y-113793750D01*
X156925000Y-114706250D01*
X156923826Y-114730142D01*
X156920316Y-114753803D01*
X156914504Y-114777007D01*
X156906446Y-114799529D01*
X156896218Y-114821153D01*
X156883921Y-114841670D01*
X156869671Y-114860883D01*
X156853607Y-114878607D01*
X156835883Y-114894671D01*
X156816670Y-114908921D01*
X156796153Y-114921218D01*
X156774529Y-114931446D01*
X156752007Y-114939504D01*
X156728803Y-114945316D01*
X156705142Y-114948826D01*
X156681250Y-114950000D01*
X156193750Y-114950000D01*
X156169858Y-114948826D01*
X156146197Y-114945316D01*
X156122993Y-114939504D01*
X156100471Y-114931446D01*
X156078847Y-114921218D01*
X156058330Y-114908921D01*
X156039117Y-114894671D01*
X156021393Y-114878607D01*
X156005329Y-114860883D01*
X155991079Y-114841670D01*
X155978782Y-114821153D01*
X155968554Y-114799529D01*
X155960496Y-114777007D01*
X155954684Y-114753803D01*
X155951174Y-114730142D01*
X155950000Y-114706250D01*
X155950000Y-113793750D01*
X155951174Y-113769858D01*
X155954684Y-113746197D01*
X155960496Y-113722993D01*
X155968554Y-113700471D01*
X155978782Y-113678847D01*
X155991079Y-113658330D01*
X156005329Y-113639117D01*
X156021393Y-113621393D01*
X156039117Y-113605329D01*
X156058330Y-113591079D01*
X156078847Y-113578782D01*
X156100471Y-113568554D01*
X156122993Y-113560496D01*
X156146197Y-113554684D01*
X156169858Y-113551174D01*
X156193750Y-113550000D01*
X156681250Y-113550000D01*
X156705142Y-113551174D01*
G37*
G36*
X154830142Y-113551174D02*
G01*
X154853803Y-113554684D01*
X154877007Y-113560496D01*
X154899529Y-113568554D01*
X154921153Y-113578782D01*
X154941670Y-113591079D01*
X154960883Y-113605329D01*
X154978607Y-113621393D01*
X154994671Y-113639117D01*
X155008921Y-113658330D01*
X155021218Y-113678847D01*
X155031446Y-113700471D01*
X155039504Y-113722993D01*
X155045316Y-113746197D01*
X155048826Y-113769858D01*
X155050000Y-113793750D01*
X155050000Y-114706250D01*
X155048826Y-114730142D01*
X155045316Y-114753803D01*
X155039504Y-114777007D01*
X155031446Y-114799529D01*
X155021218Y-114821153D01*
X155008921Y-114841670D01*
X154994671Y-114860883D01*
X154978607Y-114878607D01*
X154960883Y-114894671D01*
X154941670Y-114908921D01*
X154921153Y-114921218D01*
X154899529Y-114931446D01*
X154877007Y-114939504D01*
X154853803Y-114945316D01*
X154830142Y-114948826D01*
X154806250Y-114950000D01*
X154318750Y-114950000D01*
X154294858Y-114948826D01*
X154271197Y-114945316D01*
X154247993Y-114939504D01*
X154225471Y-114931446D01*
X154203847Y-114921218D01*
X154183330Y-114908921D01*
X154164117Y-114894671D01*
X154146393Y-114878607D01*
X154130329Y-114860883D01*
X154116079Y-114841670D01*
X154103782Y-114821153D01*
X154093554Y-114799529D01*
X154085496Y-114777007D01*
X154079684Y-114753803D01*
X154076174Y-114730142D01*
X154075000Y-114706250D01*
X154075000Y-113793750D01*
X154076174Y-113769858D01*
X154079684Y-113746197D01*
X154085496Y-113722993D01*
X154093554Y-113700471D01*
X154103782Y-113678847D01*
X154116079Y-113658330D01*
X154130329Y-113639117D01*
X154146393Y-113621393D01*
X154164117Y-113605329D01*
X154183330Y-113591079D01*
X154203847Y-113578782D01*
X154225471Y-113568554D01*
X154247993Y-113560496D01*
X154271197Y-113554684D01*
X154294858Y-113551174D01*
X154318750Y-113550000D01*
X154806250Y-113550000D01*
X154830142Y-113551174D01*
G37*
G36*
X158580142Y-113551174D02*
G01*
X158603803Y-113554684D01*
X158627007Y-113560496D01*
X158649529Y-113568554D01*
X158671153Y-113578782D01*
X158691670Y-113591079D01*
X158710883Y-113605329D01*
X158728607Y-113621393D01*
X158744671Y-113639117D01*
X158758921Y-113658330D01*
X158771218Y-113678847D01*
X158781446Y-113700471D01*
X158789504Y-113722993D01*
X158795316Y-113746197D01*
X158798826Y-113769858D01*
X158800000Y-113793750D01*
X158800000Y-114706250D01*
X158798826Y-114730142D01*
X158795316Y-114753803D01*
X158789504Y-114777007D01*
X158781446Y-114799529D01*
X158771218Y-114821153D01*
X158758921Y-114841670D01*
X158744671Y-114860883D01*
X158728607Y-114878607D01*
X158710883Y-114894671D01*
X158691670Y-114908921D01*
X158671153Y-114921218D01*
X158649529Y-114931446D01*
X158627007Y-114939504D01*
X158603803Y-114945316D01*
X158580142Y-114948826D01*
X158556250Y-114950000D01*
X158068750Y-114950000D01*
X158044858Y-114948826D01*
X158021197Y-114945316D01*
X157997993Y-114939504D01*
X157975471Y-114931446D01*
X157953847Y-114921218D01*
X157933330Y-114908921D01*
X157914117Y-114894671D01*
X157896393Y-114878607D01*
X157880329Y-114860883D01*
X157866079Y-114841670D01*
X157853782Y-114821153D01*
X157843554Y-114799529D01*
X157835496Y-114777007D01*
X157829684Y-114753803D01*
X157826174Y-114730142D01*
X157825000Y-114706250D01*
X157825000Y-113793750D01*
X157826174Y-113769858D01*
X157829684Y-113746197D01*
X157835496Y-113722993D01*
X157843554Y-113700471D01*
X157853782Y-113678847D01*
X157866079Y-113658330D01*
X157880329Y-113639117D01*
X157896393Y-113621393D01*
X157914117Y-113605329D01*
X157933330Y-113591079D01*
X157953847Y-113578782D01*
X157975471Y-113568554D01*
X157997993Y-113560496D01*
X158021197Y-113554684D01*
X158044858Y-113551174D01*
X158068750Y-113550000D01*
X158556250Y-113550000D01*
X158580142Y-113551174D01*
G37*
G36*
X160455142Y-113551174D02*
G01*
X160478803Y-113554684D01*
X160502007Y-113560496D01*
X160524529Y-113568554D01*
X160546153Y-113578782D01*
X160566670Y-113591079D01*
X160585883Y-113605329D01*
X160603607Y-113621393D01*
X160619671Y-113639117D01*
X160633921Y-113658330D01*
X160646218Y-113678847D01*
X160656446Y-113700471D01*
X160664504Y-113722993D01*
X160670316Y-113746197D01*
X160673826Y-113769858D01*
X160675000Y-113793750D01*
X160675000Y-114706250D01*
X160673826Y-114730142D01*
X160670316Y-114753803D01*
X160664504Y-114777007D01*
X160656446Y-114799529D01*
X160646218Y-114821153D01*
X160633921Y-114841670D01*
X160619671Y-114860883D01*
X160603607Y-114878607D01*
X160585883Y-114894671D01*
X160566670Y-114908921D01*
X160546153Y-114921218D01*
X160524529Y-114931446D01*
X160502007Y-114939504D01*
X160478803Y-114945316D01*
X160455142Y-114948826D01*
X160431250Y-114950000D01*
X159943750Y-114950000D01*
X159919858Y-114948826D01*
X159896197Y-114945316D01*
X159872993Y-114939504D01*
X159850471Y-114931446D01*
X159828847Y-114921218D01*
X159808330Y-114908921D01*
X159789117Y-114894671D01*
X159771393Y-114878607D01*
X159755329Y-114860883D01*
X159741079Y-114841670D01*
X159728782Y-114821153D01*
X159718554Y-114799529D01*
X159710496Y-114777007D01*
X159704684Y-114753803D01*
X159701174Y-114730142D01*
X159700000Y-114706250D01*
X159700000Y-113793750D01*
X159701174Y-113769858D01*
X159704684Y-113746197D01*
X159710496Y-113722993D01*
X159718554Y-113700471D01*
X159728782Y-113678847D01*
X159741079Y-113658330D01*
X159755329Y-113639117D01*
X159771393Y-113621393D01*
X159789117Y-113605329D01*
X159808330Y-113591079D01*
X159828847Y-113578782D01*
X159850471Y-113568554D01*
X159872993Y-113560496D01*
X159896197Y-113554684D01*
X159919858Y-113551174D01*
X159943750Y-113550000D01*
X160431250Y-113550000D01*
X160455142Y-113551174D01*
G37*
G36*
X176380142Y-102188674D02*
G01*
X176403803Y-102192184D01*
X176427007Y-102197996D01*
X176449529Y-102206054D01*
X176471153Y-102216282D01*
X176491670Y-102228579D01*
X176510883Y-102242829D01*
X176528607Y-102258893D01*
X176544671Y-102276617D01*
X176558921Y-102295830D01*
X176571218Y-102316347D01*
X176581446Y-102337971D01*
X176589504Y-102360493D01*
X176595316Y-102383697D01*
X176598826Y-102407358D01*
X176600000Y-102431250D01*
X176600000Y-102918750D01*
X176598826Y-102942642D01*
X176595316Y-102966303D01*
X176589504Y-102989507D01*
X176581446Y-103012029D01*
X176571218Y-103033653D01*
X176558921Y-103054170D01*
X176544671Y-103073383D01*
X176528607Y-103091107D01*
X176510883Y-103107171D01*
X176491670Y-103121421D01*
X176471153Y-103133718D01*
X176449529Y-103143946D01*
X176427007Y-103152004D01*
X176403803Y-103157816D01*
X176380142Y-103161326D01*
X176356250Y-103162500D01*
X175443750Y-103162500D01*
X175419858Y-103161326D01*
X175396197Y-103157816D01*
X175372993Y-103152004D01*
X175350471Y-103143946D01*
X175328847Y-103133718D01*
X175308330Y-103121421D01*
X175289117Y-103107171D01*
X175271393Y-103091107D01*
X175255329Y-103073383D01*
X175241079Y-103054170D01*
X175228782Y-103033653D01*
X175218554Y-103012029D01*
X175210496Y-102989507D01*
X175204684Y-102966303D01*
X175201174Y-102942642D01*
X175200000Y-102918750D01*
X175200000Y-102431250D01*
X175201174Y-102407358D01*
X175204684Y-102383697D01*
X175210496Y-102360493D01*
X175218554Y-102337971D01*
X175228782Y-102316347D01*
X175241079Y-102295830D01*
X175255329Y-102276617D01*
X175271393Y-102258893D01*
X175289117Y-102242829D01*
X175308330Y-102228579D01*
X175328847Y-102216282D01*
X175350471Y-102206054D01*
X175372993Y-102197996D01*
X175396197Y-102192184D01*
X175419858Y-102188674D01*
X175443750Y-102187500D01*
X176356250Y-102187500D01*
X176380142Y-102188674D01*
G37*
G36*
X176380142Y-100313674D02*
G01*
X176403803Y-100317184D01*
X176427007Y-100322996D01*
X176449529Y-100331054D01*
X176471153Y-100341282D01*
X176491670Y-100353579D01*
X176510883Y-100367829D01*
X176528607Y-100383893D01*
X176544671Y-100401617D01*
X176558921Y-100420830D01*
X176571218Y-100441347D01*
X176581446Y-100462971D01*
X176589504Y-100485493D01*
X176595316Y-100508697D01*
X176598826Y-100532358D01*
X176600000Y-100556250D01*
X176600000Y-101043750D01*
X176598826Y-101067642D01*
X176595316Y-101091303D01*
X176589504Y-101114507D01*
X176581446Y-101137029D01*
X176571218Y-101158653D01*
X176558921Y-101179170D01*
X176544671Y-101198383D01*
X176528607Y-101216107D01*
X176510883Y-101232171D01*
X176491670Y-101246421D01*
X176471153Y-101258718D01*
X176449529Y-101268946D01*
X176427007Y-101277004D01*
X176403803Y-101282816D01*
X176380142Y-101286326D01*
X176356250Y-101287500D01*
X175443750Y-101287500D01*
X175419858Y-101286326D01*
X175396197Y-101282816D01*
X175372993Y-101277004D01*
X175350471Y-101268946D01*
X175328847Y-101258718D01*
X175308330Y-101246421D01*
X175289117Y-101232171D01*
X175271393Y-101216107D01*
X175255329Y-101198383D01*
X175241079Y-101179170D01*
X175228782Y-101158653D01*
X175218554Y-101137029D01*
X175210496Y-101114507D01*
X175204684Y-101091303D01*
X175201174Y-101067642D01*
X175200000Y-101043750D01*
X175200000Y-100556250D01*
X175201174Y-100532358D01*
X175204684Y-100508697D01*
X175210496Y-100485493D01*
X175218554Y-100462971D01*
X175228782Y-100441347D01*
X175241079Y-100420830D01*
X175255329Y-100401617D01*
X175271393Y-100383893D01*
X175289117Y-100367829D01*
X175308330Y-100353579D01*
X175328847Y-100341282D01*
X175350471Y-100331054D01*
X175372993Y-100322996D01*
X175396197Y-100317184D01*
X175419858Y-100313674D01*
X175443750Y-100312500D01*
X176356250Y-100312500D01*
X176380142Y-100313674D01*
G37*
G36*
X165832351Y-103125361D02*
G01*
X165839632Y-103126441D01*
X165846771Y-103128229D01*
X165853701Y-103130709D01*
X165860355Y-103133856D01*
X165866668Y-103137640D01*
X165872579Y-103142024D01*
X165878033Y-103146967D01*
X165882976Y-103152421D01*
X165887360Y-103158332D01*
X165891144Y-103164645D01*
X165894291Y-103171299D01*
X165896771Y-103178229D01*
X165898559Y-103185368D01*
X165899639Y-103192649D01*
X165900000Y-103200000D01*
X165900000Y-103900000D01*
X165899639Y-103907351D01*
X165898559Y-103914632D01*
X165896771Y-103921771D01*
X165894291Y-103928701D01*
X165891144Y-103935355D01*
X165887360Y-103941668D01*
X165882976Y-103947579D01*
X165878033Y-103953033D01*
X165872579Y-103957976D01*
X165866668Y-103962360D01*
X165860355Y-103966144D01*
X165853701Y-103969291D01*
X165846771Y-103971771D01*
X165839632Y-103973559D01*
X165832351Y-103974639D01*
X165825000Y-103975000D01*
X165675000Y-103975000D01*
X165667649Y-103974639D01*
X165660368Y-103973559D01*
X165653229Y-103971771D01*
X165646299Y-103969291D01*
X165639645Y-103966144D01*
X165633332Y-103962360D01*
X165627421Y-103957976D01*
X165621967Y-103953033D01*
X165617024Y-103947579D01*
X165612640Y-103941668D01*
X165608856Y-103935355D01*
X165605709Y-103928701D01*
X165603229Y-103921771D01*
X165601441Y-103914632D01*
X165600361Y-103907351D01*
X165600000Y-103900000D01*
X165600000Y-103200000D01*
X165600361Y-103192649D01*
X165601441Y-103185368D01*
X165603229Y-103178229D01*
X165605709Y-103171299D01*
X165608856Y-103164645D01*
X165612640Y-103158332D01*
X165617024Y-103152421D01*
X165621967Y-103146967D01*
X165627421Y-103142024D01*
X165633332Y-103137640D01*
X165639645Y-103133856D01*
X165646299Y-103130709D01*
X165653229Y-103128229D01*
X165660368Y-103126441D01*
X165667649Y-103125361D01*
X165675000Y-103125000D01*
X165825000Y-103125000D01*
X165832351Y-103125361D01*
G37*
G36*
X165332351Y-103125361D02*
G01*
X165339632Y-103126441D01*
X165346771Y-103128229D01*
X165353701Y-103130709D01*
X165360355Y-103133856D01*
X165366668Y-103137640D01*
X165372579Y-103142024D01*
X165378033Y-103146967D01*
X165382976Y-103152421D01*
X165387360Y-103158332D01*
X165391144Y-103164645D01*
X165394291Y-103171299D01*
X165396771Y-103178229D01*
X165398559Y-103185368D01*
X165399639Y-103192649D01*
X165400000Y-103200000D01*
X165400000Y-103900000D01*
X165399639Y-103907351D01*
X165398559Y-103914632D01*
X165396771Y-103921771D01*
X165394291Y-103928701D01*
X165391144Y-103935355D01*
X165387360Y-103941668D01*
X165382976Y-103947579D01*
X165378033Y-103953033D01*
X165372579Y-103957976D01*
X165366668Y-103962360D01*
X165360355Y-103966144D01*
X165353701Y-103969291D01*
X165346771Y-103971771D01*
X165339632Y-103973559D01*
X165332351Y-103974639D01*
X165325000Y-103975000D01*
X165175000Y-103975000D01*
X165167649Y-103974639D01*
X165160368Y-103973559D01*
X165153229Y-103971771D01*
X165146299Y-103969291D01*
X165139645Y-103966144D01*
X165133332Y-103962360D01*
X165127421Y-103957976D01*
X165121967Y-103953033D01*
X165117024Y-103947579D01*
X165112640Y-103941668D01*
X165108856Y-103935355D01*
X165105709Y-103928701D01*
X165103229Y-103921771D01*
X165101441Y-103914632D01*
X165100361Y-103907351D01*
X165100000Y-103900000D01*
X165100000Y-103200000D01*
X165100361Y-103192649D01*
X165101441Y-103185368D01*
X165103229Y-103178229D01*
X165105709Y-103171299D01*
X165108856Y-103164645D01*
X165112640Y-103158332D01*
X165117024Y-103152421D01*
X165121967Y-103146967D01*
X165127421Y-103142024D01*
X165133332Y-103137640D01*
X165139645Y-103133856D01*
X165146299Y-103130709D01*
X165153229Y-103128229D01*
X165160368Y-103126441D01*
X165167649Y-103125361D01*
X165175000Y-103125000D01*
X165325000Y-103125000D01*
X165332351Y-103125361D01*
G37*
G36*
X164832351Y-103125361D02*
G01*
X164839632Y-103126441D01*
X164846771Y-103128229D01*
X164853701Y-103130709D01*
X164860355Y-103133856D01*
X164866668Y-103137640D01*
X164872579Y-103142024D01*
X164878033Y-103146967D01*
X164882976Y-103152421D01*
X164887360Y-103158332D01*
X164891144Y-103164645D01*
X164894291Y-103171299D01*
X164896771Y-103178229D01*
X164898559Y-103185368D01*
X164899639Y-103192649D01*
X164900000Y-103200000D01*
X164900000Y-103900000D01*
X164899639Y-103907351D01*
X164898559Y-103914632D01*
X164896771Y-103921771D01*
X164894291Y-103928701D01*
X164891144Y-103935355D01*
X164887360Y-103941668D01*
X164882976Y-103947579D01*
X164878033Y-103953033D01*
X164872579Y-103957976D01*
X164866668Y-103962360D01*
X164860355Y-103966144D01*
X164853701Y-103969291D01*
X164846771Y-103971771D01*
X164839632Y-103973559D01*
X164832351Y-103974639D01*
X164825000Y-103975000D01*
X164675000Y-103975000D01*
X164667649Y-103974639D01*
X164660368Y-103973559D01*
X164653229Y-103971771D01*
X164646299Y-103969291D01*
X164639645Y-103966144D01*
X164633332Y-103962360D01*
X164627421Y-103957976D01*
X164621967Y-103953033D01*
X164617024Y-103947579D01*
X164612640Y-103941668D01*
X164608856Y-103935355D01*
X164605709Y-103928701D01*
X164603229Y-103921771D01*
X164601441Y-103914632D01*
X164600361Y-103907351D01*
X164600000Y-103900000D01*
X164600000Y-103200000D01*
X164600361Y-103192649D01*
X164601441Y-103185368D01*
X164603229Y-103178229D01*
X164605709Y-103171299D01*
X164608856Y-103164645D01*
X164612640Y-103158332D01*
X164617024Y-103152421D01*
X164621967Y-103146967D01*
X164627421Y-103142024D01*
X164633332Y-103137640D01*
X164639645Y-103133856D01*
X164646299Y-103130709D01*
X164653229Y-103128229D01*
X164660368Y-103126441D01*
X164667649Y-103125361D01*
X164675000Y-103125000D01*
X164825000Y-103125000D01*
X164832351Y-103125361D01*
G37*
G36*
X164332351Y-103125361D02*
G01*
X164339632Y-103126441D01*
X164346771Y-103128229D01*
X164353701Y-103130709D01*
X164360355Y-103133856D01*
X164366668Y-103137640D01*
X164372579Y-103142024D01*
X164378033Y-103146967D01*
X164382976Y-103152421D01*
X164387360Y-103158332D01*
X164391144Y-103164645D01*
X164394291Y-103171299D01*
X164396771Y-103178229D01*
X164398559Y-103185368D01*
X164399639Y-103192649D01*
X164400000Y-103200000D01*
X164400000Y-103900000D01*
X164399639Y-103907351D01*
X164398559Y-103914632D01*
X164396771Y-103921771D01*
X164394291Y-103928701D01*
X164391144Y-103935355D01*
X164387360Y-103941668D01*
X164382976Y-103947579D01*
X164378033Y-103953033D01*
X164372579Y-103957976D01*
X164366668Y-103962360D01*
X164360355Y-103966144D01*
X164353701Y-103969291D01*
X164346771Y-103971771D01*
X164339632Y-103973559D01*
X164332351Y-103974639D01*
X164325000Y-103975000D01*
X164175000Y-103975000D01*
X164167649Y-103974639D01*
X164160368Y-103973559D01*
X164153229Y-103971771D01*
X164146299Y-103969291D01*
X164139645Y-103966144D01*
X164133332Y-103962360D01*
X164127421Y-103957976D01*
X164121967Y-103953033D01*
X164117024Y-103947579D01*
X164112640Y-103941668D01*
X164108856Y-103935355D01*
X164105709Y-103928701D01*
X164103229Y-103921771D01*
X164101441Y-103914632D01*
X164100361Y-103907351D01*
X164100000Y-103900000D01*
X164100000Y-103200000D01*
X164100361Y-103192649D01*
X164101441Y-103185368D01*
X164103229Y-103178229D01*
X164105709Y-103171299D01*
X164108856Y-103164645D01*
X164112640Y-103158332D01*
X164117024Y-103152421D01*
X164121967Y-103146967D01*
X164127421Y-103142024D01*
X164133332Y-103137640D01*
X164139645Y-103133856D01*
X164146299Y-103130709D01*
X164153229Y-103128229D01*
X164160368Y-103126441D01*
X164167649Y-103125361D01*
X164175000Y-103125000D01*
X164325000Y-103125000D01*
X164332351Y-103125361D01*
G37*
G36*
X163832351Y-103125361D02*
G01*
X163839632Y-103126441D01*
X163846771Y-103128229D01*
X163853701Y-103130709D01*
X163860355Y-103133856D01*
X163866668Y-103137640D01*
X163872579Y-103142024D01*
X163878033Y-103146967D01*
X163882976Y-103152421D01*
X163887360Y-103158332D01*
X163891144Y-103164645D01*
X163894291Y-103171299D01*
X163896771Y-103178229D01*
X163898559Y-103185368D01*
X163899639Y-103192649D01*
X163900000Y-103200000D01*
X163900000Y-103900000D01*
X163899639Y-103907351D01*
X163898559Y-103914632D01*
X163896771Y-103921771D01*
X163894291Y-103928701D01*
X163891144Y-103935355D01*
X163887360Y-103941668D01*
X163882976Y-103947579D01*
X163878033Y-103953033D01*
X163872579Y-103957976D01*
X163866668Y-103962360D01*
X163860355Y-103966144D01*
X163853701Y-103969291D01*
X163846771Y-103971771D01*
X163839632Y-103973559D01*
X163832351Y-103974639D01*
X163825000Y-103975000D01*
X163675000Y-103975000D01*
X163667649Y-103974639D01*
X163660368Y-103973559D01*
X163653229Y-103971771D01*
X163646299Y-103969291D01*
X163639645Y-103966144D01*
X163633332Y-103962360D01*
X163627421Y-103957976D01*
X163621967Y-103953033D01*
X163617024Y-103947579D01*
X163612640Y-103941668D01*
X163608856Y-103935355D01*
X163605709Y-103928701D01*
X163603229Y-103921771D01*
X163601441Y-103914632D01*
X163600361Y-103907351D01*
X163600000Y-103900000D01*
X163600000Y-103200000D01*
X163600361Y-103192649D01*
X163601441Y-103185368D01*
X163603229Y-103178229D01*
X163605709Y-103171299D01*
X163608856Y-103164645D01*
X163612640Y-103158332D01*
X163617024Y-103152421D01*
X163621967Y-103146967D01*
X163627421Y-103142024D01*
X163633332Y-103137640D01*
X163639645Y-103133856D01*
X163646299Y-103130709D01*
X163653229Y-103128229D01*
X163660368Y-103126441D01*
X163667649Y-103125361D01*
X163675000Y-103125000D01*
X163825000Y-103125000D01*
X163832351Y-103125361D01*
G37*
G36*
X163332351Y-103125361D02*
G01*
X163339632Y-103126441D01*
X163346771Y-103128229D01*
X163353701Y-103130709D01*
X163360355Y-103133856D01*
X163366668Y-103137640D01*
X163372579Y-103142024D01*
X163378033Y-103146967D01*
X163382976Y-103152421D01*
X163387360Y-103158332D01*
X163391144Y-103164645D01*
X163394291Y-103171299D01*
X163396771Y-103178229D01*
X163398559Y-103185368D01*
X163399639Y-103192649D01*
X163400000Y-103200000D01*
X163400000Y-103900000D01*
X163399639Y-103907351D01*
X163398559Y-103914632D01*
X163396771Y-103921771D01*
X163394291Y-103928701D01*
X163391144Y-103935355D01*
X163387360Y-103941668D01*
X163382976Y-103947579D01*
X163378033Y-103953033D01*
X163372579Y-103957976D01*
X163366668Y-103962360D01*
X163360355Y-103966144D01*
X163353701Y-103969291D01*
X163346771Y-103971771D01*
X163339632Y-103973559D01*
X163332351Y-103974639D01*
X163325000Y-103975000D01*
X163175000Y-103975000D01*
X163167649Y-103974639D01*
X163160368Y-103973559D01*
X163153229Y-103971771D01*
X163146299Y-103969291D01*
X163139645Y-103966144D01*
X163133332Y-103962360D01*
X163127421Y-103957976D01*
X163121967Y-103953033D01*
X163117024Y-103947579D01*
X163112640Y-103941668D01*
X163108856Y-103935355D01*
X163105709Y-103928701D01*
X163103229Y-103921771D01*
X163101441Y-103914632D01*
X163100361Y-103907351D01*
X163100000Y-103900000D01*
X163100000Y-103200000D01*
X163100361Y-103192649D01*
X163101441Y-103185368D01*
X163103229Y-103178229D01*
X163105709Y-103171299D01*
X163108856Y-103164645D01*
X163112640Y-103158332D01*
X163117024Y-103152421D01*
X163121967Y-103146967D01*
X163127421Y-103142024D01*
X163133332Y-103137640D01*
X163139645Y-103133856D01*
X163146299Y-103130709D01*
X163153229Y-103128229D01*
X163160368Y-103126441D01*
X163167649Y-103125361D01*
X163175000Y-103125000D01*
X163325000Y-103125000D01*
X163332351Y-103125361D01*
G37*
G36*
X162907351Y-104100361D02*
G01*
X162914632Y-104101441D01*
X162921771Y-104103229D01*
X162928701Y-104105709D01*
X162935355Y-104108856D01*
X162941668Y-104112640D01*
X162947579Y-104117024D01*
X162953033Y-104121967D01*
X162957976Y-104127421D01*
X162962360Y-104133332D01*
X162966144Y-104139645D01*
X162969291Y-104146299D01*
X162971771Y-104153229D01*
X162973559Y-104160368D01*
X162974639Y-104167649D01*
X162975000Y-104175000D01*
X162975000Y-104325000D01*
X162974639Y-104332351D01*
X162973559Y-104339632D01*
X162971771Y-104346771D01*
X162969291Y-104353701D01*
X162966144Y-104360355D01*
X162962360Y-104366668D01*
X162957976Y-104372579D01*
X162953033Y-104378033D01*
X162947579Y-104382976D01*
X162941668Y-104387360D01*
X162935355Y-104391144D01*
X162928701Y-104394291D01*
X162921771Y-104396771D01*
X162914632Y-104398559D01*
X162907351Y-104399639D01*
X162900000Y-104400000D01*
X162200000Y-104400000D01*
X162192649Y-104399639D01*
X162185368Y-104398559D01*
X162178229Y-104396771D01*
X162171299Y-104394291D01*
X162164645Y-104391144D01*
X162158332Y-104387360D01*
X162152421Y-104382976D01*
X162146967Y-104378033D01*
X162142024Y-104372579D01*
X162137640Y-104366668D01*
X162133856Y-104360355D01*
X162130709Y-104353701D01*
X162128229Y-104346771D01*
X162126441Y-104339632D01*
X162125361Y-104332351D01*
X162125000Y-104325000D01*
X162125000Y-104175000D01*
X162125361Y-104167649D01*
X162126441Y-104160368D01*
X162128229Y-104153229D01*
X162130709Y-104146299D01*
X162133856Y-104139645D01*
X162137640Y-104133332D01*
X162142024Y-104127421D01*
X162146967Y-104121967D01*
X162152421Y-104117024D01*
X162158332Y-104112640D01*
X162164645Y-104108856D01*
X162171299Y-104105709D01*
X162178229Y-104103229D01*
X162185368Y-104101441D01*
X162192649Y-104100361D01*
X162200000Y-104100000D01*
X162900000Y-104100000D01*
X162907351Y-104100361D01*
G37*
G36*
X162907351Y-104600361D02*
G01*
X162914632Y-104601441D01*
X162921771Y-104603229D01*
X162928701Y-104605709D01*
X162935355Y-104608856D01*
X162941668Y-104612640D01*
X162947579Y-104617024D01*
X162953033Y-104621967D01*
X162957976Y-104627421D01*
X162962360Y-104633332D01*
X162966144Y-104639645D01*
X162969291Y-104646299D01*
X162971771Y-104653229D01*
X162973559Y-104660368D01*
X162974639Y-104667649D01*
X162975000Y-104675000D01*
X162975000Y-104825000D01*
X162974639Y-104832351D01*
X162973559Y-104839632D01*
X162971771Y-104846771D01*
X162969291Y-104853701D01*
X162966144Y-104860355D01*
X162962360Y-104866668D01*
X162957976Y-104872579D01*
X162953033Y-104878033D01*
X162947579Y-104882976D01*
X162941668Y-104887360D01*
X162935355Y-104891144D01*
X162928701Y-104894291D01*
X162921771Y-104896771D01*
X162914632Y-104898559D01*
X162907351Y-104899639D01*
X162900000Y-104900000D01*
X162200000Y-104900000D01*
X162192649Y-104899639D01*
X162185368Y-104898559D01*
X162178229Y-104896771D01*
X162171299Y-104894291D01*
X162164645Y-104891144D01*
X162158332Y-104887360D01*
X162152421Y-104882976D01*
X162146967Y-104878033D01*
X162142024Y-104872579D01*
X162137640Y-104866668D01*
X162133856Y-104860355D01*
X162130709Y-104853701D01*
X162128229Y-104846771D01*
X162126441Y-104839632D01*
X162125361Y-104832351D01*
X162125000Y-104825000D01*
X162125000Y-104675000D01*
X162125361Y-104667649D01*
X162126441Y-104660368D01*
X162128229Y-104653229D01*
X162130709Y-104646299D01*
X162133856Y-104639645D01*
X162137640Y-104633332D01*
X162142024Y-104627421D01*
X162146967Y-104621967D01*
X162152421Y-104617024D01*
X162158332Y-104612640D01*
X162164645Y-104608856D01*
X162171299Y-104605709D01*
X162178229Y-104603229D01*
X162185368Y-104601441D01*
X162192649Y-104600361D01*
X162200000Y-104600000D01*
X162900000Y-104600000D01*
X162907351Y-104600361D01*
G37*
G36*
X162907351Y-105100361D02*
G01*
X162914632Y-105101441D01*
X162921771Y-105103229D01*
X162928701Y-105105709D01*
X162935355Y-105108856D01*
X162941668Y-105112640D01*
X162947579Y-105117024D01*
X162953033Y-105121967D01*
X162957976Y-105127421D01*
X162962360Y-105133332D01*
X162966144Y-105139645D01*
X162969291Y-105146299D01*
X162971771Y-105153229D01*
X162973559Y-105160368D01*
X162974639Y-105167649D01*
X162975000Y-105175000D01*
X162975000Y-105325000D01*
X162974639Y-105332351D01*
X162973559Y-105339632D01*
X162971771Y-105346771D01*
X162969291Y-105353701D01*
X162966144Y-105360355D01*
X162962360Y-105366668D01*
X162957976Y-105372579D01*
X162953033Y-105378033D01*
X162947579Y-105382976D01*
X162941668Y-105387360D01*
X162935355Y-105391144D01*
X162928701Y-105394291D01*
X162921771Y-105396771D01*
X162914632Y-105398559D01*
X162907351Y-105399639D01*
X162900000Y-105400000D01*
X162200000Y-105400000D01*
X162192649Y-105399639D01*
X162185368Y-105398559D01*
X162178229Y-105396771D01*
X162171299Y-105394291D01*
X162164645Y-105391144D01*
X162158332Y-105387360D01*
X162152421Y-105382976D01*
X162146967Y-105378033D01*
X162142024Y-105372579D01*
X162137640Y-105366668D01*
X162133856Y-105360355D01*
X162130709Y-105353701D01*
X162128229Y-105346771D01*
X162126441Y-105339632D01*
X162125361Y-105332351D01*
X162125000Y-105325000D01*
X162125000Y-105175000D01*
X162125361Y-105167649D01*
X162126441Y-105160368D01*
X162128229Y-105153229D01*
X162130709Y-105146299D01*
X162133856Y-105139645D01*
X162137640Y-105133332D01*
X162142024Y-105127421D01*
X162146967Y-105121967D01*
X162152421Y-105117024D01*
X162158332Y-105112640D01*
X162164645Y-105108856D01*
X162171299Y-105105709D01*
X162178229Y-105103229D01*
X162185368Y-105101441D01*
X162192649Y-105100361D01*
X162200000Y-105100000D01*
X162900000Y-105100000D01*
X162907351Y-105100361D01*
G37*
G36*
X162907351Y-105600361D02*
G01*
X162914632Y-105601441D01*
X162921771Y-105603229D01*
X162928701Y-105605709D01*
X162935355Y-105608856D01*
X162941668Y-105612640D01*
X162947579Y-105617024D01*
X162953033Y-105621967D01*
X162957976Y-105627421D01*
X162962360Y-105633332D01*
X162966144Y-105639645D01*
X162969291Y-105646299D01*
X162971771Y-105653229D01*
X162973559Y-105660368D01*
X162974639Y-105667649D01*
X162975000Y-105675000D01*
X162975000Y-105825000D01*
X162974639Y-105832351D01*
X162973559Y-105839632D01*
X162971771Y-105846771D01*
X162969291Y-105853701D01*
X162966144Y-105860355D01*
X162962360Y-105866668D01*
X162957976Y-105872579D01*
X162953033Y-105878033D01*
X162947579Y-105882976D01*
X162941668Y-105887360D01*
X162935355Y-105891144D01*
X162928701Y-105894291D01*
X162921771Y-105896771D01*
X162914632Y-105898559D01*
X162907351Y-105899639D01*
X162900000Y-105900000D01*
X162200000Y-105900000D01*
X162192649Y-105899639D01*
X162185368Y-105898559D01*
X162178229Y-105896771D01*
X162171299Y-105894291D01*
X162164645Y-105891144D01*
X162158332Y-105887360D01*
X162152421Y-105882976D01*
X162146967Y-105878033D01*
X162142024Y-105872579D01*
X162137640Y-105866668D01*
X162133856Y-105860355D01*
X162130709Y-105853701D01*
X162128229Y-105846771D01*
X162126441Y-105839632D01*
X162125361Y-105832351D01*
X162125000Y-105825000D01*
X162125000Y-105675000D01*
X162125361Y-105667649D01*
X162126441Y-105660368D01*
X162128229Y-105653229D01*
X162130709Y-105646299D01*
X162133856Y-105639645D01*
X162137640Y-105633332D01*
X162142024Y-105627421D01*
X162146967Y-105621967D01*
X162152421Y-105617024D01*
X162158332Y-105612640D01*
X162164645Y-105608856D01*
X162171299Y-105605709D01*
X162178229Y-105603229D01*
X162185368Y-105601441D01*
X162192649Y-105600361D01*
X162200000Y-105600000D01*
X162900000Y-105600000D01*
X162907351Y-105600361D01*
G37*
G36*
X162907351Y-106100361D02*
G01*
X162914632Y-106101441D01*
X162921771Y-106103229D01*
X162928701Y-106105709D01*
X162935355Y-106108856D01*
X162941668Y-106112640D01*
X162947579Y-106117024D01*
X162953033Y-106121967D01*
X162957976Y-106127421D01*
X162962360Y-106133332D01*
X162966144Y-106139645D01*
X162969291Y-106146299D01*
X162971771Y-106153229D01*
X162973559Y-106160368D01*
X162974639Y-106167649D01*
X162975000Y-106175000D01*
X162975000Y-106325000D01*
X162974639Y-106332351D01*
X162973559Y-106339632D01*
X162971771Y-106346771D01*
X162969291Y-106353701D01*
X162966144Y-106360355D01*
X162962360Y-106366668D01*
X162957976Y-106372579D01*
X162953033Y-106378033D01*
X162947579Y-106382976D01*
X162941668Y-106387360D01*
X162935355Y-106391144D01*
X162928701Y-106394291D01*
X162921771Y-106396771D01*
X162914632Y-106398559D01*
X162907351Y-106399639D01*
X162900000Y-106400000D01*
X162200000Y-106400000D01*
X162192649Y-106399639D01*
X162185368Y-106398559D01*
X162178229Y-106396771D01*
X162171299Y-106394291D01*
X162164645Y-106391144D01*
X162158332Y-106387360D01*
X162152421Y-106382976D01*
X162146967Y-106378033D01*
X162142024Y-106372579D01*
X162137640Y-106366668D01*
X162133856Y-106360355D01*
X162130709Y-106353701D01*
X162128229Y-106346771D01*
X162126441Y-106339632D01*
X162125361Y-106332351D01*
X162125000Y-106325000D01*
X162125000Y-106175000D01*
X162125361Y-106167649D01*
X162126441Y-106160368D01*
X162128229Y-106153229D01*
X162130709Y-106146299D01*
X162133856Y-106139645D01*
X162137640Y-106133332D01*
X162142024Y-106127421D01*
X162146967Y-106121967D01*
X162152421Y-106117024D01*
X162158332Y-106112640D01*
X162164645Y-106108856D01*
X162171299Y-106105709D01*
X162178229Y-106103229D01*
X162185368Y-106101441D01*
X162192649Y-106100361D01*
X162200000Y-106100000D01*
X162900000Y-106100000D01*
X162907351Y-106100361D01*
G37*
G36*
X162907351Y-106600361D02*
G01*
X162914632Y-106601441D01*
X162921771Y-106603229D01*
X162928701Y-106605709D01*
X162935355Y-106608856D01*
X162941668Y-106612640D01*
X162947579Y-106617024D01*
X162953033Y-106621967D01*
X162957976Y-106627421D01*
X162962360Y-106633332D01*
X162966144Y-106639645D01*
X162969291Y-106646299D01*
X162971771Y-106653229D01*
X162973559Y-106660368D01*
X162974639Y-106667649D01*
X162975000Y-106675000D01*
X162975000Y-106825000D01*
X162974639Y-106832351D01*
X162973559Y-106839632D01*
X162971771Y-106846771D01*
X162969291Y-106853701D01*
X162966144Y-106860355D01*
X162962360Y-106866668D01*
X162957976Y-106872579D01*
X162953033Y-106878033D01*
X162947579Y-106882976D01*
X162941668Y-106887360D01*
X162935355Y-106891144D01*
X162928701Y-106894291D01*
X162921771Y-106896771D01*
X162914632Y-106898559D01*
X162907351Y-106899639D01*
X162900000Y-106900000D01*
X162200000Y-106900000D01*
X162192649Y-106899639D01*
X162185368Y-106898559D01*
X162178229Y-106896771D01*
X162171299Y-106894291D01*
X162164645Y-106891144D01*
X162158332Y-106887360D01*
X162152421Y-106882976D01*
X162146967Y-106878033D01*
X162142024Y-106872579D01*
X162137640Y-106866668D01*
X162133856Y-106860355D01*
X162130709Y-106853701D01*
X162128229Y-106846771D01*
X162126441Y-106839632D01*
X162125361Y-106832351D01*
X162125000Y-106825000D01*
X162125000Y-106675000D01*
X162125361Y-106667649D01*
X162126441Y-106660368D01*
X162128229Y-106653229D01*
X162130709Y-106646299D01*
X162133856Y-106639645D01*
X162137640Y-106633332D01*
X162142024Y-106627421D01*
X162146967Y-106621967D01*
X162152421Y-106617024D01*
X162158332Y-106612640D01*
X162164645Y-106608856D01*
X162171299Y-106605709D01*
X162178229Y-106603229D01*
X162185368Y-106601441D01*
X162192649Y-106600361D01*
X162200000Y-106600000D01*
X162900000Y-106600000D01*
X162907351Y-106600361D01*
G37*
G36*
X163332351Y-107025361D02*
G01*
X163339632Y-107026441D01*
X163346771Y-107028229D01*
X163353701Y-107030709D01*
X163360355Y-107033856D01*
X163366668Y-107037640D01*
X163372579Y-107042024D01*
X163378033Y-107046967D01*
X163382976Y-107052421D01*
X163387360Y-107058332D01*
X163391144Y-107064645D01*
X163394291Y-107071299D01*
X163396771Y-107078229D01*
X163398559Y-107085368D01*
X163399639Y-107092649D01*
X163400000Y-107100000D01*
X163400000Y-107800000D01*
X163399639Y-107807351D01*
X163398559Y-107814632D01*
X163396771Y-107821771D01*
X163394291Y-107828701D01*
X163391144Y-107835355D01*
X163387360Y-107841668D01*
X163382976Y-107847579D01*
X163378033Y-107853033D01*
X163372579Y-107857976D01*
X163366668Y-107862360D01*
X163360355Y-107866144D01*
X163353701Y-107869291D01*
X163346771Y-107871771D01*
X163339632Y-107873559D01*
X163332351Y-107874639D01*
X163325000Y-107875000D01*
X163175000Y-107875000D01*
X163167649Y-107874639D01*
X163160368Y-107873559D01*
X163153229Y-107871771D01*
X163146299Y-107869291D01*
X163139645Y-107866144D01*
X163133332Y-107862360D01*
X163127421Y-107857976D01*
X163121967Y-107853033D01*
X163117024Y-107847579D01*
X163112640Y-107841668D01*
X163108856Y-107835355D01*
X163105709Y-107828701D01*
X163103229Y-107821771D01*
X163101441Y-107814632D01*
X163100361Y-107807351D01*
X163100000Y-107800000D01*
X163100000Y-107100000D01*
X163100361Y-107092649D01*
X163101441Y-107085368D01*
X163103229Y-107078229D01*
X163105709Y-107071299D01*
X163108856Y-107064645D01*
X163112640Y-107058332D01*
X163117024Y-107052421D01*
X163121967Y-107046967D01*
X163127421Y-107042024D01*
X163133332Y-107037640D01*
X163139645Y-107033856D01*
X163146299Y-107030709D01*
X163153229Y-107028229D01*
X163160368Y-107026441D01*
X163167649Y-107025361D01*
X163175000Y-107025000D01*
X163325000Y-107025000D01*
X163332351Y-107025361D01*
G37*
G36*
X163832351Y-107025361D02*
G01*
X163839632Y-107026441D01*
X163846771Y-107028229D01*
X163853701Y-107030709D01*
X163860355Y-107033856D01*
X163866668Y-107037640D01*
X163872579Y-107042024D01*
X163878033Y-107046967D01*
X163882976Y-107052421D01*
X163887360Y-107058332D01*
X163891144Y-107064645D01*
X163894291Y-107071299D01*
X163896771Y-107078229D01*
X163898559Y-107085368D01*
X163899639Y-107092649D01*
X163900000Y-107100000D01*
X163900000Y-107800000D01*
X163899639Y-107807351D01*
X163898559Y-107814632D01*
X163896771Y-107821771D01*
X163894291Y-107828701D01*
X163891144Y-107835355D01*
X163887360Y-107841668D01*
X163882976Y-107847579D01*
X163878033Y-107853033D01*
X163872579Y-107857976D01*
X163866668Y-107862360D01*
X163860355Y-107866144D01*
X163853701Y-107869291D01*
X163846771Y-107871771D01*
X163839632Y-107873559D01*
X163832351Y-107874639D01*
X163825000Y-107875000D01*
X163675000Y-107875000D01*
X163667649Y-107874639D01*
X163660368Y-107873559D01*
X163653229Y-107871771D01*
X163646299Y-107869291D01*
X163639645Y-107866144D01*
X163633332Y-107862360D01*
X163627421Y-107857976D01*
X163621967Y-107853033D01*
X163617024Y-107847579D01*
X163612640Y-107841668D01*
X163608856Y-107835355D01*
X163605709Y-107828701D01*
X163603229Y-107821771D01*
X163601441Y-107814632D01*
X163600361Y-107807351D01*
X163600000Y-107800000D01*
X163600000Y-107100000D01*
X163600361Y-107092649D01*
X163601441Y-107085368D01*
X163603229Y-107078229D01*
X163605709Y-107071299D01*
X163608856Y-107064645D01*
X163612640Y-107058332D01*
X163617024Y-107052421D01*
X163621967Y-107046967D01*
X163627421Y-107042024D01*
X163633332Y-107037640D01*
X163639645Y-107033856D01*
X163646299Y-107030709D01*
X163653229Y-107028229D01*
X163660368Y-107026441D01*
X163667649Y-107025361D01*
X163675000Y-107025000D01*
X163825000Y-107025000D01*
X163832351Y-107025361D01*
G37*
G36*
X164332351Y-107025361D02*
G01*
X164339632Y-107026441D01*
X164346771Y-107028229D01*
X164353701Y-107030709D01*
X164360355Y-107033856D01*
X164366668Y-107037640D01*
X164372579Y-107042024D01*
X164378033Y-107046967D01*
X164382976Y-107052421D01*
X164387360Y-107058332D01*
X164391144Y-107064645D01*
X164394291Y-107071299D01*
X164396771Y-107078229D01*
X164398559Y-107085368D01*
X164399639Y-107092649D01*
X164400000Y-107100000D01*
X164400000Y-107800000D01*
X164399639Y-107807351D01*
X164398559Y-107814632D01*
X164396771Y-107821771D01*
X164394291Y-107828701D01*
X164391144Y-107835355D01*
X164387360Y-107841668D01*
X164382976Y-107847579D01*
X164378033Y-107853033D01*
X164372579Y-107857976D01*
X164366668Y-107862360D01*
X164360355Y-107866144D01*
X164353701Y-107869291D01*
X164346771Y-107871771D01*
X164339632Y-107873559D01*
X164332351Y-107874639D01*
X164325000Y-107875000D01*
X164175000Y-107875000D01*
X164167649Y-107874639D01*
X164160368Y-107873559D01*
X164153229Y-107871771D01*
X164146299Y-107869291D01*
X164139645Y-107866144D01*
X164133332Y-107862360D01*
X164127421Y-107857976D01*
X164121967Y-107853033D01*
X164117024Y-107847579D01*
X164112640Y-107841668D01*
X164108856Y-107835355D01*
X164105709Y-107828701D01*
X164103229Y-107821771D01*
X164101441Y-107814632D01*
X164100361Y-107807351D01*
X164100000Y-107800000D01*
X164100000Y-107100000D01*
X164100361Y-107092649D01*
X164101441Y-107085368D01*
X164103229Y-107078229D01*
X164105709Y-107071299D01*
X164108856Y-107064645D01*
X164112640Y-107058332D01*
X164117024Y-107052421D01*
X164121967Y-107046967D01*
X164127421Y-107042024D01*
X164133332Y-107037640D01*
X164139645Y-107033856D01*
X164146299Y-107030709D01*
X164153229Y-107028229D01*
X164160368Y-107026441D01*
X164167649Y-107025361D01*
X164175000Y-107025000D01*
X164325000Y-107025000D01*
X164332351Y-107025361D01*
G37*
G36*
X164832351Y-107025361D02*
G01*
X164839632Y-107026441D01*
X164846771Y-107028229D01*
X164853701Y-107030709D01*
X164860355Y-107033856D01*
X164866668Y-107037640D01*
X164872579Y-107042024D01*
X164878033Y-107046967D01*
X164882976Y-107052421D01*
X164887360Y-107058332D01*
X164891144Y-107064645D01*
X164894291Y-107071299D01*
X164896771Y-107078229D01*
X164898559Y-107085368D01*
X164899639Y-107092649D01*
X164900000Y-107100000D01*
X164900000Y-107800000D01*
X164899639Y-107807351D01*
X164898559Y-107814632D01*
X164896771Y-107821771D01*
X164894291Y-107828701D01*
X164891144Y-107835355D01*
X164887360Y-107841668D01*
X164882976Y-107847579D01*
X164878033Y-107853033D01*
X164872579Y-107857976D01*
X164866668Y-107862360D01*
X164860355Y-107866144D01*
X164853701Y-107869291D01*
X164846771Y-107871771D01*
X164839632Y-107873559D01*
X164832351Y-107874639D01*
X164825000Y-107875000D01*
X164675000Y-107875000D01*
X164667649Y-107874639D01*
X164660368Y-107873559D01*
X164653229Y-107871771D01*
X164646299Y-107869291D01*
X164639645Y-107866144D01*
X164633332Y-107862360D01*
X164627421Y-107857976D01*
X164621967Y-107853033D01*
X164617024Y-107847579D01*
X164612640Y-107841668D01*
X164608856Y-107835355D01*
X164605709Y-107828701D01*
X164603229Y-107821771D01*
X164601441Y-107814632D01*
X164600361Y-107807351D01*
X164600000Y-107800000D01*
X164600000Y-107100000D01*
X164600361Y-107092649D01*
X164601441Y-107085368D01*
X164603229Y-107078229D01*
X164605709Y-107071299D01*
X164608856Y-107064645D01*
X164612640Y-107058332D01*
X164617024Y-107052421D01*
X164621967Y-107046967D01*
X164627421Y-107042024D01*
X164633332Y-107037640D01*
X164639645Y-107033856D01*
X164646299Y-107030709D01*
X164653229Y-107028229D01*
X164660368Y-107026441D01*
X164667649Y-107025361D01*
X164675000Y-107025000D01*
X164825000Y-107025000D01*
X164832351Y-107025361D01*
G37*
G36*
X165332351Y-107025361D02*
G01*
X165339632Y-107026441D01*
X165346771Y-107028229D01*
X165353701Y-107030709D01*
X165360355Y-107033856D01*
X165366668Y-107037640D01*
X165372579Y-107042024D01*
X165378033Y-107046967D01*
X165382976Y-107052421D01*
X165387360Y-107058332D01*
X165391144Y-107064645D01*
X165394291Y-107071299D01*
X165396771Y-107078229D01*
X165398559Y-107085368D01*
X165399639Y-107092649D01*
X165400000Y-107100000D01*
X165400000Y-107800000D01*
X165399639Y-107807351D01*
X165398559Y-107814632D01*
X165396771Y-107821771D01*
X165394291Y-107828701D01*
X165391144Y-107835355D01*
X165387360Y-107841668D01*
X165382976Y-107847579D01*
X165378033Y-107853033D01*
X165372579Y-107857976D01*
X165366668Y-107862360D01*
X165360355Y-107866144D01*
X165353701Y-107869291D01*
X165346771Y-107871771D01*
X165339632Y-107873559D01*
X165332351Y-107874639D01*
X165325000Y-107875000D01*
X165175000Y-107875000D01*
X165167649Y-107874639D01*
X165160368Y-107873559D01*
X165153229Y-107871771D01*
X165146299Y-107869291D01*
X165139645Y-107866144D01*
X165133332Y-107862360D01*
X165127421Y-107857976D01*
X165121967Y-107853033D01*
X165117024Y-107847579D01*
X165112640Y-107841668D01*
X165108856Y-107835355D01*
X165105709Y-107828701D01*
X165103229Y-107821771D01*
X165101441Y-107814632D01*
X165100361Y-107807351D01*
X165100000Y-107800000D01*
X165100000Y-107100000D01*
X165100361Y-107092649D01*
X165101441Y-107085368D01*
X165103229Y-107078229D01*
X165105709Y-107071299D01*
X165108856Y-107064645D01*
X165112640Y-107058332D01*
X165117024Y-107052421D01*
X165121967Y-107046967D01*
X165127421Y-107042024D01*
X165133332Y-107037640D01*
X165139645Y-107033856D01*
X165146299Y-107030709D01*
X165153229Y-107028229D01*
X165160368Y-107026441D01*
X165167649Y-107025361D01*
X165175000Y-107025000D01*
X165325000Y-107025000D01*
X165332351Y-107025361D01*
G37*
G36*
X165832351Y-107025361D02*
G01*
X165839632Y-107026441D01*
X165846771Y-107028229D01*
X165853701Y-107030709D01*
X165860355Y-107033856D01*
X165866668Y-107037640D01*
X165872579Y-107042024D01*
X165878033Y-107046967D01*
X165882976Y-107052421D01*
X165887360Y-107058332D01*
X165891144Y-107064645D01*
X165894291Y-107071299D01*
X165896771Y-107078229D01*
X165898559Y-107085368D01*
X165899639Y-107092649D01*
X165900000Y-107100000D01*
X165900000Y-107800000D01*
X165899639Y-107807351D01*
X165898559Y-107814632D01*
X165896771Y-107821771D01*
X165894291Y-107828701D01*
X165891144Y-107835355D01*
X165887360Y-107841668D01*
X165882976Y-107847579D01*
X165878033Y-107853033D01*
X165872579Y-107857976D01*
X165866668Y-107862360D01*
X165860355Y-107866144D01*
X165853701Y-107869291D01*
X165846771Y-107871771D01*
X165839632Y-107873559D01*
X165832351Y-107874639D01*
X165825000Y-107875000D01*
X165675000Y-107875000D01*
X165667649Y-107874639D01*
X165660368Y-107873559D01*
X165653229Y-107871771D01*
X165646299Y-107869291D01*
X165639645Y-107866144D01*
X165633332Y-107862360D01*
X165627421Y-107857976D01*
X165621967Y-107853033D01*
X165617024Y-107847579D01*
X165612640Y-107841668D01*
X165608856Y-107835355D01*
X165605709Y-107828701D01*
X165603229Y-107821771D01*
X165601441Y-107814632D01*
X165600361Y-107807351D01*
X165600000Y-107800000D01*
X165600000Y-107100000D01*
X165600361Y-107092649D01*
X165601441Y-107085368D01*
X165603229Y-107078229D01*
X165605709Y-107071299D01*
X165608856Y-107064645D01*
X165612640Y-107058332D01*
X165617024Y-107052421D01*
X165621967Y-107046967D01*
X165627421Y-107042024D01*
X165633332Y-107037640D01*
X165639645Y-107033856D01*
X165646299Y-107030709D01*
X165653229Y-107028229D01*
X165660368Y-107026441D01*
X165667649Y-107025361D01*
X165675000Y-107025000D01*
X165825000Y-107025000D01*
X165832351Y-107025361D01*
G37*
G36*
X166807351Y-106600361D02*
G01*
X166814632Y-106601441D01*
X166821771Y-106603229D01*
X166828701Y-106605709D01*
X166835355Y-106608856D01*
X166841668Y-106612640D01*
X166847579Y-106617024D01*
X166853033Y-106621967D01*
X166857976Y-106627421D01*
X166862360Y-106633332D01*
X166866144Y-106639645D01*
X166869291Y-106646299D01*
X166871771Y-106653229D01*
X166873559Y-106660368D01*
X166874639Y-106667649D01*
X166875000Y-106675000D01*
X166875000Y-106825000D01*
X166874639Y-106832351D01*
X166873559Y-106839632D01*
X166871771Y-106846771D01*
X166869291Y-106853701D01*
X166866144Y-106860355D01*
X166862360Y-106866668D01*
X166857976Y-106872579D01*
X166853033Y-106878033D01*
X166847579Y-106882976D01*
X166841668Y-106887360D01*
X166835355Y-106891144D01*
X166828701Y-106894291D01*
X166821771Y-106896771D01*
X166814632Y-106898559D01*
X166807351Y-106899639D01*
X166800000Y-106900000D01*
X166100000Y-106900000D01*
X166092649Y-106899639D01*
X166085368Y-106898559D01*
X166078229Y-106896771D01*
X166071299Y-106894291D01*
X166064645Y-106891144D01*
X166058332Y-106887360D01*
X166052421Y-106882976D01*
X166046967Y-106878033D01*
X166042024Y-106872579D01*
X166037640Y-106866668D01*
X166033856Y-106860355D01*
X166030709Y-106853701D01*
X166028229Y-106846771D01*
X166026441Y-106839632D01*
X166025361Y-106832351D01*
X166025000Y-106825000D01*
X166025000Y-106675000D01*
X166025361Y-106667649D01*
X166026441Y-106660368D01*
X166028229Y-106653229D01*
X166030709Y-106646299D01*
X166033856Y-106639645D01*
X166037640Y-106633332D01*
X166042024Y-106627421D01*
X166046967Y-106621967D01*
X166052421Y-106617024D01*
X166058332Y-106612640D01*
X166064645Y-106608856D01*
X166071299Y-106605709D01*
X166078229Y-106603229D01*
X166085368Y-106601441D01*
X166092649Y-106600361D01*
X166100000Y-106600000D01*
X166800000Y-106600000D01*
X166807351Y-106600361D01*
G37*
G36*
X166807351Y-106100361D02*
G01*
X166814632Y-106101441D01*
X166821771Y-106103229D01*
X166828701Y-106105709D01*
X166835355Y-106108856D01*
X166841668Y-106112640D01*
X166847579Y-106117024D01*
X166853033Y-106121967D01*
X166857976Y-106127421D01*
X166862360Y-106133332D01*
X166866144Y-106139645D01*
X166869291Y-106146299D01*
X166871771Y-106153229D01*
X166873559Y-106160368D01*
X166874639Y-106167649D01*
X166875000Y-106175000D01*
X166875000Y-106325000D01*
X166874639Y-106332351D01*
X166873559Y-106339632D01*
X166871771Y-106346771D01*
X166869291Y-106353701D01*
X166866144Y-106360355D01*
X166862360Y-106366668D01*
X166857976Y-106372579D01*
X166853033Y-106378033D01*
X166847579Y-106382976D01*
X166841668Y-106387360D01*
X166835355Y-106391144D01*
X166828701Y-106394291D01*
X166821771Y-106396771D01*
X166814632Y-106398559D01*
X166807351Y-106399639D01*
X166800000Y-106400000D01*
X166100000Y-106400000D01*
X166092649Y-106399639D01*
X166085368Y-106398559D01*
X166078229Y-106396771D01*
X166071299Y-106394291D01*
X166064645Y-106391144D01*
X166058332Y-106387360D01*
X166052421Y-106382976D01*
X166046967Y-106378033D01*
X166042024Y-106372579D01*
X166037640Y-106366668D01*
X166033856Y-106360355D01*
X166030709Y-106353701D01*
X166028229Y-106346771D01*
X166026441Y-106339632D01*
X166025361Y-106332351D01*
X166025000Y-106325000D01*
X166025000Y-106175000D01*
X166025361Y-106167649D01*
X166026441Y-106160368D01*
X166028229Y-106153229D01*
X166030709Y-106146299D01*
X166033856Y-106139645D01*
X166037640Y-106133332D01*
X166042024Y-106127421D01*
X166046967Y-106121967D01*
X166052421Y-106117024D01*
X166058332Y-106112640D01*
X166064645Y-106108856D01*
X166071299Y-106105709D01*
X166078229Y-106103229D01*
X166085368Y-106101441D01*
X166092649Y-106100361D01*
X166100000Y-106100000D01*
X166800000Y-106100000D01*
X166807351Y-106100361D01*
G37*
G36*
X166807351Y-105600361D02*
G01*
X166814632Y-105601441D01*
X166821771Y-105603229D01*
X166828701Y-105605709D01*
X166835355Y-105608856D01*
X166841668Y-105612640D01*
X166847579Y-105617024D01*
X166853033Y-105621967D01*
X166857976Y-105627421D01*
X166862360Y-105633332D01*
X166866144Y-105639645D01*
X166869291Y-105646299D01*
X166871771Y-105653229D01*
X166873559Y-105660368D01*
X166874639Y-105667649D01*
X166875000Y-105675000D01*
X166875000Y-105825000D01*
X166874639Y-105832351D01*
X166873559Y-105839632D01*
X166871771Y-105846771D01*
X166869291Y-105853701D01*
X166866144Y-105860355D01*
X166862360Y-105866668D01*
X166857976Y-105872579D01*
X166853033Y-105878033D01*
X166847579Y-105882976D01*
X166841668Y-105887360D01*
X166835355Y-105891144D01*
X166828701Y-105894291D01*
X166821771Y-105896771D01*
X166814632Y-105898559D01*
X166807351Y-105899639D01*
X166800000Y-105900000D01*
X166100000Y-105900000D01*
X166092649Y-105899639D01*
X166085368Y-105898559D01*
X166078229Y-105896771D01*
X166071299Y-105894291D01*
X166064645Y-105891144D01*
X166058332Y-105887360D01*
X166052421Y-105882976D01*
X166046967Y-105878033D01*
X166042024Y-105872579D01*
X166037640Y-105866668D01*
X166033856Y-105860355D01*
X166030709Y-105853701D01*
X166028229Y-105846771D01*
X166026441Y-105839632D01*
X166025361Y-105832351D01*
X166025000Y-105825000D01*
X166025000Y-105675000D01*
X166025361Y-105667649D01*
X166026441Y-105660368D01*
X166028229Y-105653229D01*
X166030709Y-105646299D01*
X166033856Y-105639645D01*
X166037640Y-105633332D01*
X166042024Y-105627421D01*
X166046967Y-105621967D01*
X166052421Y-105617024D01*
X166058332Y-105612640D01*
X166064645Y-105608856D01*
X166071299Y-105605709D01*
X166078229Y-105603229D01*
X166085368Y-105601441D01*
X166092649Y-105600361D01*
X166100000Y-105600000D01*
X166800000Y-105600000D01*
X166807351Y-105600361D01*
G37*
G36*
X166807351Y-105100361D02*
G01*
X166814632Y-105101441D01*
X166821771Y-105103229D01*
X166828701Y-105105709D01*
X166835355Y-105108856D01*
X166841668Y-105112640D01*
X166847579Y-105117024D01*
X166853033Y-105121967D01*
X166857976Y-105127421D01*
X166862360Y-105133332D01*
X166866144Y-105139645D01*
X166869291Y-105146299D01*
X166871771Y-105153229D01*
X166873559Y-105160368D01*
X166874639Y-105167649D01*
X166875000Y-105175000D01*
X166875000Y-105325000D01*
X166874639Y-105332351D01*
X166873559Y-105339632D01*
X166871771Y-105346771D01*
X166869291Y-105353701D01*
X166866144Y-105360355D01*
X166862360Y-105366668D01*
X166857976Y-105372579D01*
X166853033Y-105378033D01*
X166847579Y-105382976D01*
X166841668Y-105387360D01*
X166835355Y-105391144D01*
X166828701Y-105394291D01*
X166821771Y-105396771D01*
X166814632Y-105398559D01*
X166807351Y-105399639D01*
X166800000Y-105400000D01*
X166100000Y-105400000D01*
X166092649Y-105399639D01*
X166085368Y-105398559D01*
X166078229Y-105396771D01*
X166071299Y-105394291D01*
X166064645Y-105391144D01*
X166058332Y-105387360D01*
X166052421Y-105382976D01*
X166046967Y-105378033D01*
X166042024Y-105372579D01*
X166037640Y-105366668D01*
X166033856Y-105360355D01*
X166030709Y-105353701D01*
X166028229Y-105346771D01*
X166026441Y-105339632D01*
X166025361Y-105332351D01*
X166025000Y-105325000D01*
X166025000Y-105175000D01*
X166025361Y-105167649D01*
X166026441Y-105160368D01*
X166028229Y-105153229D01*
X166030709Y-105146299D01*
X166033856Y-105139645D01*
X166037640Y-105133332D01*
X166042024Y-105127421D01*
X166046967Y-105121967D01*
X166052421Y-105117024D01*
X166058332Y-105112640D01*
X166064645Y-105108856D01*
X166071299Y-105105709D01*
X166078229Y-105103229D01*
X166085368Y-105101441D01*
X166092649Y-105100361D01*
X166100000Y-105100000D01*
X166800000Y-105100000D01*
X166807351Y-105100361D01*
G37*
G36*
X166807351Y-104600361D02*
G01*
X166814632Y-104601441D01*
X166821771Y-104603229D01*
X166828701Y-104605709D01*
X166835355Y-104608856D01*
X166841668Y-104612640D01*
X166847579Y-104617024D01*
X166853033Y-104621967D01*
X166857976Y-104627421D01*
X166862360Y-104633332D01*
X166866144Y-104639645D01*
X166869291Y-104646299D01*
X166871771Y-104653229D01*
X166873559Y-104660368D01*
X166874639Y-104667649D01*
X166875000Y-104675000D01*
X166875000Y-104825000D01*
X166874639Y-104832351D01*
X166873559Y-104839632D01*
X166871771Y-104846771D01*
X166869291Y-104853701D01*
X166866144Y-104860355D01*
X166862360Y-104866668D01*
X166857976Y-104872579D01*
X166853033Y-104878033D01*
X166847579Y-104882976D01*
X166841668Y-104887360D01*
X166835355Y-104891144D01*
X166828701Y-104894291D01*
X166821771Y-104896771D01*
X166814632Y-104898559D01*
X166807351Y-104899639D01*
X166800000Y-104900000D01*
X166100000Y-104900000D01*
X166092649Y-104899639D01*
X166085368Y-104898559D01*
X166078229Y-104896771D01*
X166071299Y-104894291D01*
X166064645Y-104891144D01*
X166058332Y-104887360D01*
X166052421Y-104882976D01*
X166046967Y-104878033D01*
X166042024Y-104872579D01*
X166037640Y-104866668D01*
X166033856Y-104860355D01*
X166030709Y-104853701D01*
X166028229Y-104846771D01*
X166026441Y-104839632D01*
X166025361Y-104832351D01*
X166025000Y-104825000D01*
X166025000Y-104675000D01*
X166025361Y-104667649D01*
X166026441Y-104660368D01*
X166028229Y-104653229D01*
X166030709Y-104646299D01*
X166033856Y-104639645D01*
X166037640Y-104633332D01*
X166042024Y-104627421D01*
X166046967Y-104621967D01*
X166052421Y-104617024D01*
X166058332Y-104612640D01*
X166064645Y-104608856D01*
X166071299Y-104605709D01*
X166078229Y-104603229D01*
X166085368Y-104601441D01*
X166092649Y-104600361D01*
X166100000Y-104600000D01*
X166800000Y-104600000D01*
X166807351Y-104600361D01*
G37*
G36*
X166807351Y-104100361D02*
G01*
X166814632Y-104101441D01*
X166821771Y-104103229D01*
X166828701Y-104105709D01*
X166835355Y-104108856D01*
X166841668Y-104112640D01*
X166847579Y-104117024D01*
X166853033Y-104121967D01*
X166857976Y-104127421D01*
X166862360Y-104133332D01*
X166866144Y-104139645D01*
X166869291Y-104146299D01*
X166871771Y-104153229D01*
X166873559Y-104160368D01*
X166874639Y-104167649D01*
X166875000Y-104175000D01*
X166875000Y-104325000D01*
X166874639Y-104332351D01*
X166873559Y-104339632D01*
X166871771Y-104346771D01*
X166869291Y-104353701D01*
X166866144Y-104360355D01*
X166862360Y-104366668D01*
X166857976Y-104372579D01*
X166853033Y-104378033D01*
X166847579Y-104382976D01*
X166841668Y-104387360D01*
X166835355Y-104391144D01*
X166828701Y-104394291D01*
X166821771Y-104396771D01*
X166814632Y-104398559D01*
X166807351Y-104399639D01*
X166800000Y-104400000D01*
X166100000Y-104400000D01*
X166092649Y-104399639D01*
X166085368Y-104398559D01*
X166078229Y-104396771D01*
X166071299Y-104394291D01*
X166064645Y-104391144D01*
X166058332Y-104387360D01*
X166052421Y-104382976D01*
X166046967Y-104378033D01*
X166042024Y-104372579D01*
X166037640Y-104366668D01*
X166033856Y-104360355D01*
X166030709Y-104353701D01*
X166028229Y-104346771D01*
X166026441Y-104339632D01*
X166025361Y-104332351D01*
X166025000Y-104325000D01*
X166025000Y-104175000D01*
X166025361Y-104167649D01*
X166026441Y-104160368D01*
X166028229Y-104153229D01*
X166030709Y-104146299D01*
X166033856Y-104139645D01*
X166037640Y-104133332D01*
X166042024Y-104127421D01*
X166046967Y-104121967D01*
X166052421Y-104117024D01*
X166058332Y-104112640D01*
X166064645Y-104108856D01*
X166071299Y-104105709D01*
X166078229Y-104103229D01*
X166085368Y-104101441D01*
X166092649Y-104100361D01*
X166100000Y-104100000D01*
X166800000Y-104100000D01*
X166807351Y-104100361D01*
G37*
D16*
X165840881Y-117179881D03*
X165340881Y-117179881D03*
D17*
X164840881Y-116894881D03*
D16*
X164340881Y-117179881D03*
D17*
X163840881Y-116894881D03*
D16*
X163840881Y-120129881D03*
X164340881Y-120129881D03*
D17*
X164840881Y-120414881D03*
X165340881Y-120414881D03*
X165840881Y-120414881D03*
D18*
X165475881Y-118204881D03*
D19*
X166470881Y-118404881D03*
X166470881Y-118904881D03*
X163210881Y-118404881D03*
X163210881Y-118904881D03*
D18*
X165475881Y-119104881D03*
X164205881Y-118204881D03*
X164205881Y-119104881D03*
D17*
X165840881Y-116894881D03*
X165340881Y-116894881D03*
D16*
X164840881Y-117179881D03*
D17*
X164340881Y-116894881D03*
D16*
X163840881Y-117179881D03*
D17*
X163840881Y-120414881D03*
X164340881Y-120414881D03*
D16*
X164840881Y-120129881D03*
X165340881Y-120129881D03*
X165840881Y-120129881D03*
D20*
X180950000Y-98150000D03*
X185550000Y-98150000D03*
X183250000Y-98150000D03*
D21*
X183250000Y-91850000D03*
D22*
X167500000Y-93000000D03*
X167500000Y-87500000D03*
D23*
X141500000Y-95250000D03*
X149450000Y-95250000D03*
X141500000Y-99750000D03*
X149450000Y-99750000D03*
M02*
