G04 #@! TF.GenerationSoftware,KiCad,Pcbnew,(5.1.5-0-10_14)*
G04 #@! TF.CreationDate,2020-06-08T21:05:12+09:00*
G04 #@! TF.ProjectId,controller_system,636f6e74-726f-46c6-9c65-725f73797374,rev?*
G04 #@! TF.SameCoordinates,Original*
G04 #@! TF.FileFunction,Copper,L2,Bot*
G04 #@! TF.FilePolarity,Positive*
%FSLAX46Y46*%
G04 Gerber Fmt 4.6, Leading zero omitted, Abs format (unit mm)*
G04 Created by KiCad (PCBNEW (5.1.5-0-10_14)) date 2020-06-08 21:05:12*
%MOMM*%
%LPD*%
G04 APERTURE LIST*
%ADD10R,1.000000X1.000000*%
%ADD11O,1.000000X1.000000*%
%ADD12O,1.300000X0.800000*%
%ADD13C,0.100000*%
%ADD14O,1.200000X1.750000*%
%ADD15R,1.700000X1.700000*%
%ADD16O,1.700000X1.700000*%
%ADD17C,0.600000*%
%ADD18R,2.800000X2.300000*%
%ADD19C,0.800000*%
%ADD20C,0.500000*%
%ADD21C,0.250000*%
%ADD22C,0.254000*%
G04 APERTURE END LIST*
D10*
X149900000Y-83500000D03*
D11*
X151170000Y-83500000D03*
X152440000Y-83500000D03*
X153710000Y-83500000D03*
X154980000Y-83500000D03*
X156250000Y-83500000D03*
X157520000Y-83500000D03*
X158790000Y-83500000D03*
D12*
X184250000Y-125000000D03*
G04 #@! TA.AperFunction,ComponentPad*
D13*
G36*
X184719603Y-123350963D02*
G01*
X184739018Y-123353843D01*
X184758057Y-123358612D01*
X184776537Y-123365224D01*
X184794279Y-123373616D01*
X184811114Y-123383706D01*
X184826879Y-123395398D01*
X184841421Y-123408579D01*
X184854602Y-123423121D01*
X184866294Y-123438886D01*
X184876384Y-123455721D01*
X184884776Y-123473463D01*
X184891388Y-123491943D01*
X184896157Y-123510982D01*
X184899037Y-123530397D01*
X184900000Y-123550000D01*
X184900000Y-123950000D01*
X184899037Y-123969603D01*
X184896157Y-123989018D01*
X184891388Y-124008057D01*
X184884776Y-124026537D01*
X184876384Y-124044279D01*
X184866294Y-124061114D01*
X184854602Y-124076879D01*
X184841421Y-124091421D01*
X184826879Y-124104602D01*
X184811114Y-124116294D01*
X184794279Y-124126384D01*
X184776537Y-124134776D01*
X184758057Y-124141388D01*
X184739018Y-124146157D01*
X184719603Y-124149037D01*
X184700000Y-124150000D01*
X183800000Y-124150000D01*
X183780397Y-124149037D01*
X183760982Y-124146157D01*
X183741943Y-124141388D01*
X183723463Y-124134776D01*
X183705721Y-124126384D01*
X183688886Y-124116294D01*
X183673121Y-124104602D01*
X183658579Y-124091421D01*
X183645398Y-124076879D01*
X183633706Y-124061114D01*
X183623616Y-124044279D01*
X183615224Y-124026537D01*
X183608612Y-124008057D01*
X183603843Y-123989018D01*
X183600963Y-123969603D01*
X183600000Y-123950000D01*
X183600000Y-123550000D01*
X183600963Y-123530397D01*
X183603843Y-123510982D01*
X183608612Y-123491943D01*
X183615224Y-123473463D01*
X183623616Y-123455721D01*
X183633706Y-123438886D01*
X183645398Y-123423121D01*
X183658579Y-123408579D01*
X183673121Y-123395398D01*
X183688886Y-123383706D01*
X183705721Y-123373616D01*
X183723463Y-123365224D01*
X183741943Y-123358612D01*
X183760982Y-123353843D01*
X183780397Y-123350963D01*
X183800000Y-123350000D01*
X184700000Y-123350000D01*
X184719603Y-123350963D01*
G37*
G04 #@! TD.AperFunction*
D12*
X143750000Y-124900000D03*
G04 #@! TA.AperFunction,ComponentPad*
D13*
G36*
X144219603Y-123250963D02*
G01*
X144239018Y-123253843D01*
X144258057Y-123258612D01*
X144276537Y-123265224D01*
X144294279Y-123273616D01*
X144311114Y-123283706D01*
X144326879Y-123295398D01*
X144341421Y-123308579D01*
X144354602Y-123323121D01*
X144366294Y-123338886D01*
X144376384Y-123355721D01*
X144384776Y-123373463D01*
X144391388Y-123391943D01*
X144396157Y-123410982D01*
X144399037Y-123430397D01*
X144400000Y-123450000D01*
X144400000Y-123850000D01*
X144399037Y-123869603D01*
X144396157Y-123889018D01*
X144391388Y-123908057D01*
X144384776Y-123926537D01*
X144376384Y-123944279D01*
X144366294Y-123961114D01*
X144354602Y-123976879D01*
X144341421Y-123991421D01*
X144326879Y-124004602D01*
X144311114Y-124016294D01*
X144294279Y-124026384D01*
X144276537Y-124034776D01*
X144258057Y-124041388D01*
X144239018Y-124046157D01*
X144219603Y-124049037D01*
X144200000Y-124050000D01*
X143300000Y-124050000D01*
X143280397Y-124049037D01*
X143260982Y-124046157D01*
X143241943Y-124041388D01*
X143223463Y-124034776D01*
X143205721Y-124026384D01*
X143188886Y-124016294D01*
X143173121Y-124004602D01*
X143158579Y-123991421D01*
X143145398Y-123976879D01*
X143133706Y-123961114D01*
X143123616Y-123944279D01*
X143115224Y-123926537D01*
X143108612Y-123908057D01*
X143103843Y-123889018D01*
X143100963Y-123869603D01*
X143100000Y-123850000D01*
X143100000Y-123450000D01*
X143100963Y-123430397D01*
X143103843Y-123410982D01*
X143108612Y-123391943D01*
X143115224Y-123373463D01*
X143123616Y-123355721D01*
X143133706Y-123338886D01*
X143145398Y-123323121D01*
X143158579Y-123308579D01*
X143173121Y-123295398D01*
X143188886Y-123283706D01*
X143205721Y-123273616D01*
X143223463Y-123265224D01*
X143241943Y-123258612D01*
X143260982Y-123253843D01*
X143280397Y-123250963D01*
X143300000Y-123250000D01*
X144200000Y-123250000D01*
X144219603Y-123250963D01*
G37*
G04 #@! TD.AperFunction*
G04 #@! TA.AperFunction,ComponentPad*
G36*
X185719603Y-115850963D02*
G01*
X185739018Y-115853843D01*
X185758057Y-115858612D01*
X185776537Y-115865224D01*
X185794279Y-115873616D01*
X185811114Y-115883706D01*
X185826879Y-115895398D01*
X185841421Y-115908579D01*
X185854602Y-115923121D01*
X185866294Y-115938886D01*
X185876384Y-115955721D01*
X185884776Y-115973463D01*
X185891388Y-115991943D01*
X185896157Y-116010982D01*
X185899037Y-116030397D01*
X185900000Y-116050000D01*
X185900000Y-116450000D01*
X185899037Y-116469603D01*
X185896157Y-116489018D01*
X185891388Y-116508057D01*
X185884776Y-116526537D01*
X185876384Y-116544279D01*
X185866294Y-116561114D01*
X185854602Y-116576879D01*
X185841421Y-116591421D01*
X185826879Y-116604602D01*
X185811114Y-116616294D01*
X185794279Y-116626384D01*
X185776537Y-116634776D01*
X185758057Y-116641388D01*
X185739018Y-116646157D01*
X185719603Y-116649037D01*
X185700000Y-116650000D01*
X184800000Y-116650000D01*
X184780397Y-116649037D01*
X184760982Y-116646157D01*
X184741943Y-116641388D01*
X184723463Y-116634776D01*
X184705721Y-116626384D01*
X184688886Y-116616294D01*
X184673121Y-116604602D01*
X184658579Y-116591421D01*
X184645398Y-116576879D01*
X184633706Y-116561114D01*
X184623616Y-116544279D01*
X184615224Y-116526537D01*
X184608612Y-116508057D01*
X184603843Y-116489018D01*
X184600963Y-116469603D01*
X184600000Y-116450000D01*
X184600000Y-116050000D01*
X184600963Y-116030397D01*
X184603843Y-116010982D01*
X184608612Y-115991943D01*
X184615224Y-115973463D01*
X184623616Y-115955721D01*
X184633706Y-115938886D01*
X184645398Y-115923121D01*
X184658579Y-115908579D01*
X184673121Y-115895398D01*
X184688886Y-115883706D01*
X184705721Y-115873616D01*
X184723463Y-115865224D01*
X184741943Y-115858612D01*
X184760982Y-115853843D01*
X184780397Y-115850963D01*
X184800000Y-115850000D01*
X185700000Y-115850000D01*
X185719603Y-115850963D01*
G37*
G04 #@! TD.AperFunction*
D12*
X185250000Y-115000000D03*
X144500000Y-115000000D03*
G04 #@! TA.AperFunction,ComponentPad*
D13*
G36*
X144969603Y-115850963D02*
G01*
X144989018Y-115853843D01*
X145008057Y-115858612D01*
X145026537Y-115865224D01*
X145044279Y-115873616D01*
X145061114Y-115883706D01*
X145076879Y-115895398D01*
X145091421Y-115908579D01*
X145104602Y-115923121D01*
X145116294Y-115938886D01*
X145126384Y-115955721D01*
X145134776Y-115973463D01*
X145141388Y-115991943D01*
X145146157Y-116010982D01*
X145149037Y-116030397D01*
X145150000Y-116050000D01*
X145150000Y-116450000D01*
X145149037Y-116469603D01*
X145146157Y-116489018D01*
X145141388Y-116508057D01*
X145134776Y-116526537D01*
X145126384Y-116544279D01*
X145116294Y-116561114D01*
X145104602Y-116576879D01*
X145091421Y-116591421D01*
X145076879Y-116604602D01*
X145061114Y-116616294D01*
X145044279Y-116626384D01*
X145026537Y-116634776D01*
X145008057Y-116641388D01*
X144989018Y-116646157D01*
X144969603Y-116649037D01*
X144950000Y-116650000D01*
X144050000Y-116650000D01*
X144030397Y-116649037D01*
X144010982Y-116646157D01*
X143991943Y-116641388D01*
X143973463Y-116634776D01*
X143955721Y-116626384D01*
X143938886Y-116616294D01*
X143923121Y-116604602D01*
X143908579Y-116591421D01*
X143895398Y-116576879D01*
X143883706Y-116561114D01*
X143873616Y-116544279D01*
X143865224Y-116526537D01*
X143858612Y-116508057D01*
X143853843Y-116489018D01*
X143850963Y-116469603D01*
X143850000Y-116450000D01*
X143850000Y-116050000D01*
X143850963Y-116030397D01*
X143853843Y-116010982D01*
X143858612Y-115991943D01*
X143865224Y-115973463D01*
X143873616Y-115955721D01*
X143883706Y-115938886D01*
X143895398Y-115923121D01*
X143908579Y-115908579D01*
X143923121Y-115895398D01*
X143938886Y-115883706D01*
X143955721Y-115873616D01*
X143973463Y-115865224D01*
X143991943Y-115858612D01*
X144010982Y-115853843D01*
X144030397Y-115850963D01*
X144050000Y-115850000D01*
X144950000Y-115850000D01*
X144969603Y-115850963D01*
G37*
G04 #@! TD.AperFunction*
G04 #@! TA.AperFunction,ComponentPad*
G36*
X165774505Y-127326204D02*
G01*
X165798773Y-127329804D01*
X165822572Y-127335765D01*
X165845671Y-127344030D01*
X165867850Y-127354520D01*
X165888893Y-127367132D01*
X165908599Y-127381747D01*
X165926777Y-127398223D01*
X165943253Y-127416401D01*
X165957868Y-127436107D01*
X165970480Y-127457150D01*
X165980970Y-127479329D01*
X165989235Y-127502428D01*
X165995196Y-127526227D01*
X165998796Y-127550495D01*
X166000000Y-127574999D01*
X166000000Y-128825001D01*
X165998796Y-128849505D01*
X165995196Y-128873773D01*
X165989235Y-128897572D01*
X165980970Y-128920671D01*
X165970480Y-128942850D01*
X165957868Y-128963893D01*
X165943253Y-128983599D01*
X165926777Y-129001777D01*
X165908599Y-129018253D01*
X165888893Y-129032868D01*
X165867850Y-129045480D01*
X165845671Y-129055970D01*
X165822572Y-129064235D01*
X165798773Y-129070196D01*
X165774505Y-129073796D01*
X165750001Y-129075000D01*
X165049999Y-129075000D01*
X165025495Y-129073796D01*
X165001227Y-129070196D01*
X164977428Y-129064235D01*
X164954329Y-129055970D01*
X164932150Y-129045480D01*
X164911107Y-129032868D01*
X164891401Y-129018253D01*
X164873223Y-129001777D01*
X164856747Y-128983599D01*
X164842132Y-128963893D01*
X164829520Y-128942850D01*
X164819030Y-128920671D01*
X164810765Y-128897572D01*
X164804804Y-128873773D01*
X164801204Y-128849505D01*
X164800000Y-128825001D01*
X164800000Y-127574999D01*
X164801204Y-127550495D01*
X164804804Y-127526227D01*
X164810765Y-127502428D01*
X164819030Y-127479329D01*
X164829520Y-127457150D01*
X164842132Y-127436107D01*
X164856747Y-127416401D01*
X164873223Y-127398223D01*
X164891401Y-127381747D01*
X164911107Y-127367132D01*
X164932150Y-127354520D01*
X164954329Y-127344030D01*
X164977428Y-127335765D01*
X165001227Y-127329804D01*
X165025495Y-127326204D01*
X165049999Y-127325000D01*
X165750001Y-127325000D01*
X165774505Y-127326204D01*
G37*
G04 #@! TD.AperFunction*
D14*
X163400000Y-128200000D03*
D15*
X141750000Y-82750000D03*
D16*
X141750000Y-85290000D03*
X141750000Y-87830000D03*
X141750000Y-90370000D03*
D15*
X165960000Y-83000000D03*
D16*
X168500000Y-83000000D03*
X171040000Y-83000000D03*
X173580000Y-83000000D03*
X176120000Y-83000000D03*
D17*
X164090881Y-119154881D03*
X164840881Y-118654881D03*
X165590881Y-119154881D03*
X165590881Y-118154881D03*
X164090881Y-118154881D03*
D18*
X164840881Y-118654881D03*
D19*
X158500000Y-105500000D03*
X167500000Y-109750000D03*
X166800000Y-103300000D03*
X148900000Y-98300000D03*
X150000000Y-98300000D03*
X153200000Y-123600000D03*
X154100000Y-123600000D03*
X151000000Y-122700000D03*
X152000000Y-122700000D03*
X152900000Y-122700000D03*
X153800000Y-122700000D03*
X155000000Y-123500000D03*
X154800000Y-122600000D03*
X152300000Y-123500000D03*
X151400000Y-123500000D03*
X154100000Y-124500000D03*
X147000000Y-106900000D03*
X148100000Y-106900000D03*
X147600000Y-106100000D03*
X146700000Y-106100000D03*
X145900000Y-106400000D03*
X144700000Y-106300000D03*
X145300000Y-107000000D03*
X146200000Y-107300000D03*
X144500000Y-107200000D03*
X158000000Y-128000000D03*
X181400000Y-108500000D03*
X181400000Y-109300000D03*
X180800000Y-107900000D03*
X180000000Y-107900000D03*
X179200000Y-108300000D03*
X178300000Y-108300000D03*
X178800000Y-107500000D03*
X180500000Y-107100000D03*
X181400000Y-107300000D03*
X179600000Y-107100000D03*
X178900000Y-103000000D03*
X178900000Y-102000000D03*
X178900000Y-101000000D03*
X178900000Y-100000000D03*
X178700000Y-89600000D03*
X179600000Y-89600000D03*
X180600000Y-89600000D03*
X154600000Y-112800000D03*
X174700000Y-126200000D03*
X174700000Y-127200000D03*
X176100000Y-127800000D03*
X173300000Y-128000000D03*
X174300000Y-128000000D03*
X176900000Y-128600000D03*
X175800000Y-128600000D03*
X177900000Y-128500000D03*
X175200000Y-127900000D03*
X178800000Y-96900000D03*
X159000000Y-92100000D03*
X168400000Y-109000000D03*
X171800000Y-119500000D03*
X171800000Y-118500000D03*
X158900000Y-108500000D03*
X172500000Y-91100000D03*
X172500000Y-89700000D03*
X171800000Y-86200000D03*
X176845000Y-86200000D03*
X164500000Y-96200000D03*
X174300000Y-102700000D03*
X167050000Y-98750000D03*
X166644437Y-120248892D03*
X166600000Y-116000000D03*
X169700000Y-115600000D03*
X161925002Y-86800000D03*
X166200000Y-85500000D03*
X160902158Y-89096763D03*
X154500000Y-96200000D03*
X158700000Y-96600000D03*
X160200000Y-84800000D03*
X158700000Y-84950001D03*
X147187347Y-84312653D03*
X156300000Y-88100000D03*
X160925001Y-83525001D03*
X151500000Y-86200000D03*
X154000000Y-86400000D03*
X162100000Y-96300000D03*
X162800000Y-98000000D03*
X157400000Y-89775000D03*
X152200000Y-97000000D03*
X170900000Y-100500000D03*
X157800000Y-88300000D03*
X170600000Y-111800000D03*
X170600000Y-108900000D03*
X172000000Y-100600000D03*
X171413542Y-110713542D03*
X171400000Y-108000000D03*
X159712653Y-89187347D03*
X156300000Y-89300000D03*
X152000000Y-98600000D03*
X152300000Y-89600000D03*
X152900000Y-101100000D03*
X163200000Y-96200000D03*
X162500000Y-110500000D03*
X162500000Y-108750000D03*
X157000000Y-104500000D03*
D20*
X171800000Y-86200000D02*
X176845000Y-86200000D01*
D21*
X171000000Y-102700000D02*
X174300000Y-102700000D01*
X164500000Y-96200000D02*
X167050000Y-98750000D01*
X167050000Y-98750000D02*
X171000000Y-102700000D01*
X166644437Y-116044437D02*
X166600000Y-116000000D01*
X166644437Y-120248892D02*
X166644437Y-116044437D01*
X168500000Y-83200000D02*
X168500000Y-83000000D01*
X166200000Y-85500000D02*
X168500000Y-83200000D01*
X160902158Y-87822844D02*
X161925002Y-86800000D01*
X160902158Y-89096763D02*
X160902158Y-87822844D01*
X158300000Y-96200000D02*
X158700000Y-96600000D01*
X154500000Y-96200000D02*
X158300000Y-96200000D01*
X154615002Y-85675002D02*
X152440000Y-83500000D01*
X159324998Y-85675002D02*
X154615002Y-85675002D01*
X160200000Y-84800000D02*
X159324998Y-85675002D01*
X155160001Y-84950001D02*
X153710000Y-83500000D01*
X158700000Y-84950001D02*
X155160001Y-84950001D01*
X156300000Y-88100000D02*
X157000000Y-87400000D01*
X157000000Y-87400000D02*
X157000000Y-87100000D01*
X157000000Y-87100000D02*
X157000000Y-86600000D01*
X157000000Y-86600000D02*
X157400000Y-86200000D01*
X159873002Y-86200000D02*
X160925001Y-85148001D01*
X160925001Y-85148001D02*
X160925001Y-83525001D01*
X157400000Y-86200000D02*
X159873002Y-86200000D01*
X147587346Y-83912654D02*
X147587346Y-83812654D01*
X147187347Y-84312653D02*
X147587346Y-83912654D01*
X147587346Y-83812654D02*
X148900000Y-82500000D01*
X155250000Y-82500000D02*
X156250000Y-83500000D01*
X148900000Y-82500000D02*
X155250000Y-82500000D01*
X153800000Y-86200000D02*
X154000000Y-86400000D01*
X151500000Y-86200000D02*
X153800000Y-86200000D01*
X162100000Y-96300000D02*
X162600000Y-96800000D01*
X162600000Y-96800000D02*
X162800000Y-97000000D01*
X162800000Y-97000000D02*
X162800000Y-98000000D01*
X157400000Y-90340685D02*
X157400000Y-89775000D01*
X152200000Y-97000000D02*
X157400000Y-91800000D01*
X157400000Y-91800000D02*
X157400000Y-90340685D01*
X170900000Y-100500000D02*
X170000000Y-100500000D01*
X170000000Y-100500000D02*
X164800000Y-95300000D01*
X164800000Y-95300000D02*
X159200000Y-89700000D01*
X159200000Y-89700000D02*
X157800000Y-88300000D01*
X170600000Y-111800000D02*
X170600000Y-108900000D01*
X170200000Y-99400000D02*
X160500000Y-89700000D01*
X171365685Y-99400000D02*
X170200000Y-99400000D01*
X172000000Y-100034315D02*
X171365685Y-99400000D01*
X172000000Y-100600000D02*
X172000000Y-100034315D01*
X171413542Y-108013542D02*
X171400000Y-108000000D01*
X171413542Y-110713542D02*
X171413542Y-108013542D01*
X160225306Y-89700000D02*
X159712653Y-89187347D01*
X160500000Y-89700000D02*
X160225306Y-89700000D01*
X152200000Y-95400000D02*
X152250000Y-95400000D01*
X152200000Y-95400000D02*
X152900000Y-95400000D01*
X156300000Y-92000000D02*
X156300000Y-89300000D01*
X152900000Y-95400000D02*
X156300000Y-92000000D01*
X151474999Y-96125001D02*
X152200000Y-95400000D01*
X151474999Y-98074999D02*
X151474999Y-96125001D01*
X152000000Y-98600000D02*
X151474999Y-98074999D01*
X151024989Y-90875011D02*
X151900001Y-89999999D01*
X151024989Y-99224989D02*
X151024989Y-90875011D01*
X151900001Y-89999999D02*
X152300000Y-89600000D01*
X152900000Y-101100000D02*
X151024989Y-99224989D01*
X163599999Y-98273003D02*
X162623002Y-99250000D01*
X163599999Y-96599999D02*
X163599999Y-98273003D01*
X163200000Y-96200000D02*
X163599999Y-96599999D01*
X162623002Y-99250000D02*
X162623002Y-101376998D01*
X162623002Y-101376998D02*
X161500000Y-102500000D01*
X159000000Y-102500000D02*
X158000000Y-103500000D01*
X161500000Y-102500000D02*
X159000000Y-102500000D01*
X162500000Y-110500000D02*
X162500000Y-108750000D01*
X158000000Y-103500000D02*
X157000000Y-104500000D01*
D22*
G36*
X165649211Y-120550790D02*
G01*
X165699832Y-120673000D01*
X165624012Y-120673000D01*
X165617280Y-120390261D01*
X165649211Y-120550790D01*
G37*
X165649211Y-120550790D02*
X165699832Y-120673000D01*
X165624012Y-120673000D01*
X165617280Y-120390261D01*
X165649211Y-120550790D01*
G36*
X165611268Y-120137748D02*
G01*
X165610132Y-120090028D01*
X165620862Y-120089515D01*
X165611268Y-120137748D01*
G37*
X165611268Y-120137748D02*
X165610132Y-120090028D01*
X165620862Y-120089515D01*
X165611268Y-120137748D01*
G36*
X148359999Y-81959999D02*
G01*
X148336201Y-81988997D01*
X147076347Y-83248852D01*
X147047345Y-83272653D01*
X147035015Y-83287677D01*
X146885449Y-83317427D01*
X146697091Y-83395448D01*
X146527573Y-83508716D01*
X146383410Y-83652879D01*
X146270142Y-83822397D01*
X146192121Y-84010755D01*
X146152347Y-84210714D01*
X146152347Y-84414592D01*
X146192121Y-84614551D01*
X146270142Y-84802909D01*
X146383410Y-84972427D01*
X146527573Y-85116590D01*
X146697091Y-85229858D01*
X146885449Y-85307879D01*
X147085408Y-85347653D01*
X147289286Y-85347653D01*
X147489245Y-85307879D01*
X147677603Y-85229858D01*
X147847121Y-85116590D01*
X147991284Y-84972427D01*
X148104552Y-84802909D01*
X148182573Y-84614551D01*
X148222347Y-84414592D01*
X148222347Y-84336879D01*
X148292892Y-84204901D01*
X148302903Y-84171898D01*
X148761928Y-83712873D01*
X148761928Y-84000000D01*
X148774188Y-84124482D01*
X148810498Y-84244180D01*
X148869463Y-84354494D01*
X148948815Y-84451185D01*
X149045506Y-84530537D01*
X149155820Y-84589502D01*
X149275518Y-84625812D01*
X149400000Y-84638072D01*
X150400000Y-84638072D01*
X150524482Y-84625812D01*
X150644180Y-84589502D01*
X150754494Y-84530537D01*
X150851185Y-84451185D01*
X150930537Y-84354494D01*
X150989502Y-84244180D01*
X151025812Y-84124482D01*
X151038072Y-84000000D01*
X151038072Y-83260000D01*
X151330503Y-83260000D01*
X151305000Y-83388212D01*
X151305000Y-83611788D01*
X151348617Y-83831067D01*
X151434176Y-84037624D01*
X151543000Y-84200490D01*
X151543000Y-84402183D01*
X151706099Y-84500411D01*
X151800196Y-84437549D01*
X151902376Y-84505824D01*
X152108933Y-84591383D01*
X152328212Y-84635000D01*
X152500199Y-84635000D01*
X153305198Y-85440000D01*
X152203711Y-85440000D01*
X152159774Y-85396063D01*
X151990256Y-85282795D01*
X151801898Y-85204774D01*
X151601939Y-85165000D01*
X151398061Y-85165000D01*
X151198102Y-85204774D01*
X151009744Y-85282795D01*
X150840226Y-85396063D01*
X150696063Y-85540226D01*
X150582795Y-85709744D01*
X150504774Y-85898102D01*
X150465000Y-86098061D01*
X150465000Y-86301939D01*
X150504774Y-86501898D01*
X150582795Y-86690256D01*
X150696063Y-86859774D01*
X150840226Y-87003937D01*
X151009744Y-87117205D01*
X151198102Y-87195226D01*
X151398061Y-87235000D01*
X151601939Y-87235000D01*
X151801898Y-87195226D01*
X151990256Y-87117205D01*
X152159774Y-87003937D01*
X152203711Y-86960000D01*
X153129396Y-86960000D01*
X153196063Y-87059774D01*
X153340226Y-87203937D01*
X153509744Y-87317205D01*
X153698102Y-87395226D01*
X153898061Y-87435000D01*
X154101939Y-87435000D01*
X154301898Y-87395226D01*
X154490256Y-87317205D01*
X154659774Y-87203937D01*
X154803937Y-87059774D01*
X154917205Y-86890256D01*
X154995226Y-86701898D01*
X155035000Y-86501939D01*
X155035000Y-86435002D01*
X156255854Y-86435002D01*
X156250997Y-86451014D01*
X156240000Y-86562667D01*
X156240000Y-86562678D01*
X156236324Y-86600000D01*
X156240000Y-86637322D01*
X156240000Y-87065000D01*
X156198061Y-87065000D01*
X155998102Y-87104774D01*
X155809744Y-87182795D01*
X155640226Y-87296063D01*
X155496063Y-87440226D01*
X155382795Y-87609744D01*
X155304774Y-87798102D01*
X155265000Y-87998061D01*
X155265000Y-88201939D01*
X155304774Y-88401898D01*
X155382795Y-88590256D01*
X155456123Y-88700000D01*
X155382795Y-88809744D01*
X155304774Y-88998102D01*
X155265000Y-89198061D01*
X155265000Y-89401939D01*
X155304774Y-89601898D01*
X155382795Y-89790256D01*
X155496063Y-89959774D01*
X155540001Y-90003712D01*
X155540000Y-91685198D01*
X152585199Y-94640000D01*
X152237322Y-94640000D01*
X152199999Y-94636324D01*
X152162676Y-94640000D01*
X152162667Y-94640000D01*
X152051014Y-94650997D01*
X151907753Y-94694454D01*
X151784989Y-94760074D01*
X151784989Y-91189812D01*
X152339802Y-90635000D01*
X152401939Y-90635000D01*
X152601898Y-90595226D01*
X152790256Y-90517205D01*
X152959774Y-90403937D01*
X153103937Y-90259774D01*
X153217205Y-90090256D01*
X153295226Y-89901898D01*
X153335000Y-89701939D01*
X153335000Y-89498061D01*
X153295226Y-89298102D01*
X153217205Y-89109744D01*
X153103937Y-88940226D01*
X152959774Y-88796063D01*
X152790256Y-88682795D01*
X152601898Y-88604774D01*
X152401939Y-88565000D01*
X152198061Y-88565000D01*
X151998102Y-88604774D01*
X151809744Y-88682795D01*
X151640226Y-88796063D01*
X151496063Y-88940226D01*
X151382795Y-89109744D01*
X151304774Y-89298102D01*
X151265000Y-89498061D01*
X151265000Y-89560198D01*
X150513987Y-90311212D01*
X150484989Y-90335010D01*
X150461191Y-90364008D01*
X150461190Y-90364009D01*
X150390015Y-90450735D01*
X150319443Y-90582765D01*
X150289169Y-90682569D01*
X150282200Y-90705545D01*
X150275987Y-90726026D01*
X150261313Y-90875011D01*
X150264990Y-90912343D01*
X150264989Y-99187667D01*
X150261313Y-99224989D01*
X150264989Y-99262311D01*
X150264989Y-99262321D01*
X150275986Y-99373974D01*
X150315663Y-99504774D01*
X150319443Y-99517235D01*
X150390015Y-99649265D01*
X150417533Y-99682795D01*
X150484988Y-99764990D01*
X150513992Y-99788793D01*
X151865000Y-101139802D01*
X151865000Y-101201939D01*
X151904774Y-101401898D01*
X151982795Y-101590256D01*
X152096063Y-101759774D01*
X152240226Y-101903937D01*
X152409744Y-102017205D01*
X152598102Y-102095226D01*
X152798061Y-102135000D01*
X153001939Y-102135000D01*
X153201898Y-102095226D01*
X153390256Y-102017205D01*
X153559774Y-101903937D01*
X153703937Y-101759774D01*
X153817205Y-101590256D01*
X153895226Y-101401898D01*
X153935000Y-101201939D01*
X153935000Y-100998061D01*
X153895226Y-100798102D01*
X153817205Y-100609744D01*
X153703937Y-100440226D01*
X153559774Y-100296063D01*
X153390256Y-100182795D01*
X153201898Y-100104774D01*
X153001939Y-100065000D01*
X152939802Y-100065000D01*
X152420783Y-99545982D01*
X152490256Y-99517205D01*
X152659774Y-99403937D01*
X152803937Y-99259774D01*
X152917205Y-99090256D01*
X152995226Y-98901898D01*
X153035000Y-98701939D01*
X153035000Y-98498061D01*
X152995226Y-98298102D01*
X152917205Y-98109744D01*
X152803937Y-97940226D01*
X152744603Y-97880892D01*
X152859774Y-97803937D01*
X153003937Y-97659774D01*
X153117205Y-97490256D01*
X153195226Y-97301898D01*
X153235000Y-97101939D01*
X153235000Y-97039801D01*
X153583496Y-96691305D01*
X153696063Y-96859774D01*
X153840226Y-97003937D01*
X154009744Y-97117205D01*
X154198102Y-97195226D01*
X154398061Y-97235000D01*
X154601939Y-97235000D01*
X154801898Y-97195226D01*
X154990256Y-97117205D01*
X155159774Y-97003937D01*
X155203711Y-96960000D01*
X157728841Y-96960000D01*
X157782795Y-97090256D01*
X157896063Y-97259774D01*
X158040226Y-97403937D01*
X158209744Y-97517205D01*
X158398102Y-97595226D01*
X158598061Y-97635000D01*
X158801939Y-97635000D01*
X159001898Y-97595226D01*
X159190256Y-97517205D01*
X159359774Y-97403937D01*
X159503937Y-97259774D01*
X159617205Y-97090256D01*
X159695226Y-96901898D01*
X159735000Y-96701939D01*
X159735000Y-96498061D01*
X159695226Y-96298102D01*
X159617205Y-96109744D01*
X159503937Y-95940226D01*
X159359774Y-95796063D01*
X159190256Y-95682795D01*
X159001898Y-95604774D01*
X158801939Y-95565000D01*
X158724227Y-95565000D01*
X158592247Y-95494454D01*
X158448986Y-95450997D01*
X158337333Y-95440000D01*
X158337322Y-95440000D01*
X158300000Y-95436324D01*
X158262678Y-95440000D01*
X155203711Y-95440000D01*
X155159774Y-95396063D01*
X154991305Y-95283496D01*
X157911004Y-92363798D01*
X157940001Y-92340001D01*
X158034974Y-92224276D01*
X158105546Y-92092247D01*
X158149003Y-91948986D01*
X158160000Y-91837333D01*
X158160000Y-91837332D01*
X158163677Y-91800000D01*
X158160000Y-91762667D01*
X158160000Y-90478711D01*
X158203937Y-90434774D01*
X158317205Y-90265256D01*
X158395226Y-90076898D01*
X158412957Y-89987759D01*
X158688997Y-90263799D01*
X158689003Y-90263804D01*
X163743709Y-95318511D01*
X163690256Y-95282795D01*
X163501898Y-95204774D01*
X163301939Y-95165000D01*
X163098061Y-95165000D01*
X162898102Y-95204774D01*
X162709744Y-95282795D01*
X162571630Y-95375080D01*
X162401898Y-95304774D01*
X162201939Y-95265000D01*
X161998061Y-95265000D01*
X161798102Y-95304774D01*
X161609744Y-95382795D01*
X161440226Y-95496063D01*
X161296063Y-95640226D01*
X161182795Y-95809744D01*
X161104774Y-95998102D01*
X161065000Y-96198061D01*
X161065000Y-96401939D01*
X161104774Y-96601898D01*
X161182795Y-96790256D01*
X161296063Y-96959774D01*
X161440226Y-97103937D01*
X161609744Y-97217205D01*
X161798102Y-97295226D01*
X161998061Y-97335000D01*
X162001289Y-97335000D01*
X161996063Y-97340226D01*
X161882795Y-97509744D01*
X161804774Y-97698102D01*
X161765000Y-97898061D01*
X161765000Y-98101939D01*
X161804774Y-98301898D01*
X161882795Y-98490256D01*
X161996063Y-98659774D01*
X162066453Y-98730164D01*
X162038949Y-98763677D01*
X161988028Y-98825724D01*
X161947312Y-98901898D01*
X161917456Y-98957754D01*
X161873999Y-99101015D01*
X161863002Y-99212668D01*
X161863002Y-99212678D01*
X161859326Y-99250000D01*
X161863002Y-99287323D01*
X161863003Y-101062195D01*
X161185199Y-101740000D01*
X159037333Y-101740000D01*
X159000000Y-101736323D01*
X158962667Y-101740000D01*
X158851014Y-101750997D01*
X158707753Y-101794454D01*
X158575724Y-101865026D01*
X158459999Y-101959999D01*
X158436201Y-101988997D01*
X157489002Y-102936197D01*
X157488997Y-102936201D01*
X156960199Y-103465000D01*
X156898061Y-103465000D01*
X156698102Y-103504774D01*
X156509744Y-103582795D01*
X156340226Y-103696063D01*
X156196063Y-103840226D01*
X156082795Y-104009744D01*
X156004774Y-104198102D01*
X155965000Y-104398061D01*
X155965000Y-104601939D01*
X156004774Y-104801898D01*
X156082795Y-104990256D01*
X156196063Y-105159774D01*
X156340226Y-105303937D01*
X156509744Y-105417205D01*
X156698102Y-105495226D01*
X156898061Y-105535000D01*
X157101939Y-105535000D01*
X157301898Y-105495226D01*
X157490256Y-105417205D01*
X157659774Y-105303937D01*
X157803937Y-105159774D01*
X157917205Y-104990256D01*
X157995226Y-104801898D01*
X158035000Y-104601939D01*
X158035000Y-104539801D01*
X158563799Y-104011003D01*
X158563803Y-104010998D01*
X159314802Y-103260000D01*
X161462678Y-103260000D01*
X161500000Y-103263676D01*
X161537322Y-103260000D01*
X161537333Y-103260000D01*
X161648986Y-103249003D01*
X161792247Y-103205546D01*
X161924276Y-103134974D01*
X162040001Y-103040001D01*
X162063804Y-103010998D01*
X163134005Y-101940797D01*
X163163003Y-101916999D01*
X163257976Y-101801274D01*
X163328548Y-101669245D01*
X163372005Y-101525984D01*
X163383002Y-101414331D01*
X163383002Y-101414323D01*
X163386678Y-101376998D01*
X163383002Y-101339673D01*
X163383002Y-99564801D01*
X164111007Y-98836798D01*
X164140000Y-98813004D01*
X164163794Y-98784011D01*
X164163798Y-98784007D01*
X164234972Y-98697280D01*
X164236483Y-98694454D01*
X164305545Y-98565250D01*
X164349002Y-98421989D01*
X164359999Y-98310336D01*
X164359999Y-98310327D01*
X164363675Y-98273004D01*
X164359999Y-98235681D01*
X164359999Y-97227429D01*
X164398061Y-97235000D01*
X164460199Y-97235000D01*
X166015000Y-98789802D01*
X166015000Y-98851939D01*
X166054774Y-99051898D01*
X166132795Y-99240256D01*
X166246063Y-99409774D01*
X166390226Y-99553937D01*
X166559744Y-99667205D01*
X166748102Y-99745226D01*
X166948061Y-99785000D01*
X167010199Y-99785000D01*
X170436201Y-103211003D01*
X170459999Y-103240001D01*
X170488997Y-103263799D01*
X170575724Y-103334974D01*
X170707753Y-103405546D01*
X170851014Y-103449003D01*
X171000000Y-103463677D01*
X171037333Y-103460000D01*
X173596289Y-103460000D01*
X173640226Y-103503937D01*
X173809744Y-103617205D01*
X173998102Y-103695226D01*
X174198061Y-103735000D01*
X174401939Y-103735000D01*
X174601898Y-103695226D01*
X174790256Y-103617205D01*
X174959774Y-103503937D01*
X175103937Y-103359774D01*
X175217205Y-103190256D01*
X175295226Y-103001898D01*
X175335000Y-102801939D01*
X175335000Y-102598061D01*
X175295226Y-102398102D01*
X175217205Y-102209744D01*
X175103937Y-102040226D01*
X174959774Y-101896063D01*
X174790256Y-101782795D01*
X174601898Y-101704774D01*
X174401939Y-101665000D01*
X174198061Y-101665000D01*
X173998102Y-101704774D01*
X173809744Y-101782795D01*
X173640226Y-101896063D01*
X173596289Y-101940000D01*
X171314802Y-101940000D01*
X170909802Y-101535000D01*
X171001939Y-101535000D01*
X171201898Y-101495226D01*
X171371630Y-101424920D01*
X171509744Y-101517205D01*
X171698102Y-101595226D01*
X171898061Y-101635000D01*
X172101939Y-101635000D01*
X172301898Y-101595226D01*
X172490256Y-101517205D01*
X172659774Y-101403937D01*
X172803937Y-101259774D01*
X172917205Y-101090256D01*
X172995226Y-100901898D01*
X173035000Y-100701939D01*
X173035000Y-100498061D01*
X172995226Y-100298102D01*
X172917205Y-100109744D01*
X172803937Y-99940226D01*
X172748987Y-99885276D01*
X172705546Y-99742068D01*
X172702298Y-99735991D01*
X172634974Y-99610038D01*
X172563799Y-99523312D01*
X172540001Y-99494314D01*
X172511002Y-99470515D01*
X171929488Y-98889002D01*
X171905686Y-98859999D01*
X171789961Y-98765026D01*
X171657932Y-98694454D01*
X171514671Y-98650997D01*
X171403018Y-98640000D01*
X171403007Y-98640000D01*
X171365685Y-98636324D01*
X171328363Y-98640000D01*
X170514802Y-98640000D01*
X161668717Y-89793915D01*
X161706095Y-89756537D01*
X161819363Y-89587019D01*
X161897384Y-89398661D01*
X161937158Y-89198702D01*
X161937158Y-88994824D01*
X161897384Y-88794865D01*
X161819363Y-88606507D01*
X161706095Y-88436989D01*
X161662158Y-88393052D01*
X161662158Y-88137645D01*
X161964804Y-87835000D01*
X162026941Y-87835000D01*
X162226900Y-87795226D01*
X162415258Y-87717205D01*
X162584776Y-87603937D01*
X162728939Y-87459774D01*
X162842207Y-87290256D01*
X162920228Y-87101898D01*
X162960002Y-86901939D01*
X162960002Y-86698061D01*
X162920228Y-86498102D01*
X162842207Y-86309744D01*
X162728939Y-86140226D01*
X162584776Y-85996063D01*
X162415258Y-85882795D01*
X162226900Y-85804774D01*
X162026941Y-85765000D01*
X161823063Y-85765000D01*
X161623104Y-85804774D01*
X161434746Y-85882795D01*
X161265228Y-85996063D01*
X161121065Y-86140226D01*
X161007797Y-86309744D01*
X160929776Y-86498102D01*
X160890002Y-86698061D01*
X160890002Y-86760198D01*
X160391156Y-87259045D01*
X160362158Y-87282843D01*
X160338360Y-87311841D01*
X160338359Y-87311842D01*
X160267184Y-87398568D01*
X160196612Y-87530598D01*
X160153156Y-87673859D01*
X160138482Y-87822844D01*
X160142159Y-87860176D01*
X160142159Y-88244978D01*
X160014551Y-88192121D01*
X159814592Y-88152347D01*
X159610714Y-88152347D01*
X159410755Y-88192121D01*
X159222397Y-88270142D01*
X159052879Y-88383410D01*
X159005545Y-88430744D01*
X158835000Y-88260199D01*
X158835000Y-88198061D01*
X158795226Y-87998102D01*
X158717205Y-87809744D01*
X158603937Y-87640226D01*
X158459774Y-87496063D01*
X158290256Y-87382795D01*
X158101898Y-87304774D01*
X157901939Y-87265000D01*
X157760000Y-87265000D01*
X157760000Y-86960000D01*
X159835680Y-86960000D01*
X159873002Y-86963676D01*
X159910324Y-86960000D01*
X159910335Y-86960000D01*
X160021988Y-86949003D01*
X160165249Y-86905546D01*
X160297278Y-86834974D01*
X160413003Y-86740001D01*
X160436806Y-86710998D01*
X161436005Y-85711799D01*
X161465002Y-85688002D01*
X161559975Y-85572277D01*
X161630547Y-85440248D01*
X161674004Y-85296987D01*
X161685001Y-85185334D01*
X161685001Y-85185325D01*
X161688677Y-85148002D01*
X161685001Y-85110679D01*
X161685001Y-84228712D01*
X161728938Y-84184775D01*
X161842206Y-84015257D01*
X161910658Y-83850000D01*
X164471928Y-83850000D01*
X164484188Y-83974482D01*
X164520498Y-84094180D01*
X164579463Y-84204494D01*
X164658815Y-84301185D01*
X164755506Y-84380537D01*
X164865820Y-84439502D01*
X164985518Y-84475812D01*
X165110000Y-84488072D01*
X165420250Y-84485000D01*
X165579000Y-84326250D01*
X165579000Y-83381000D01*
X164633750Y-83381000D01*
X164475000Y-83539750D01*
X164471928Y-83850000D01*
X161910658Y-83850000D01*
X161920227Y-83826899D01*
X161960001Y-83626940D01*
X161960001Y-83423062D01*
X161920227Y-83223103D01*
X161842206Y-83034745D01*
X161728938Y-82865227D01*
X161584775Y-82721064D01*
X161415257Y-82607796D01*
X161226899Y-82529775D01*
X161026940Y-82490001D01*
X160823062Y-82490001D01*
X160623103Y-82529775D01*
X160434745Y-82607796D01*
X160265227Y-82721064D01*
X160121064Y-82865227D01*
X160007796Y-83034745D01*
X159929775Y-83223103D01*
X159910967Y-83317660D01*
X159881383Y-83168933D01*
X159795824Y-82962376D01*
X159671612Y-82776480D01*
X159513520Y-82618388D01*
X159327624Y-82494176D01*
X159121067Y-82408617D01*
X158901788Y-82365000D01*
X158678212Y-82365000D01*
X158458933Y-82408617D01*
X158252376Y-82494176D01*
X158155000Y-82559241D01*
X158057624Y-82494176D01*
X157851067Y-82408617D01*
X157631788Y-82365000D01*
X157408212Y-82365000D01*
X157188933Y-82408617D01*
X156982376Y-82494176D01*
X156885000Y-82559241D01*
X156787624Y-82494176D01*
X156581067Y-82408617D01*
X156361788Y-82365000D01*
X156189801Y-82365000D01*
X155813804Y-81989002D01*
X155790001Y-81959999D01*
X155749792Y-81927000D01*
X164514073Y-81927000D01*
X164484188Y-82025518D01*
X164471928Y-82150000D01*
X164475000Y-82460250D01*
X164633750Y-82619000D01*
X165579000Y-82619000D01*
X165579000Y-82599000D01*
X166341000Y-82599000D01*
X166341000Y-82619000D01*
X166361000Y-82619000D01*
X166361000Y-83381000D01*
X166341000Y-83381000D01*
X166341000Y-84284199D01*
X166160199Y-84465000D01*
X166098061Y-84465000D01*
X165898102Y-84504774D01*
X165709744Y-84582795D01*
X165540226Y-84696063D01*
X165396063Y-84840226D01*
X165282795Y-85009744D01*
X165204774Y-85198102D01*
X165165000Y-85398061D01*
X165165000Y-85601939D01*
X165204774Y-85801898D01*
X165282795Y-85990256D01*
X165396063Y-86159774D01*
X165540226Y-86303937D01*
X165709744Y-86417205D01*
X165898102Y-86495226D01*
X166098061Y-86535000D01*
X166301939Y-86535000D01*
X166501898Y-86495226D01*
X166690256Y-86417205D01*
X166859774Y-86303937D01*
X167003937Y-86159774D01*
X167045172Y-86098061D01*
X170765000Y-86098061D01*
X170765000Y-86301939D01*
X170804774Y-86501898D01*
X170882795Y-86690256D01*
X170996063Y-86859774D01*
X171140226Y-87003937D01*
X171309744Y-87117205D01*
X171498102Y-87195226D01*
X171698061Y-87235000D01*
X171901939Y-87235000D01*
X172101898Y-87195226D01*
X172290256Y-87117205D01*
X172338454Y-87085000D01*
X176306546Y-87085000D01*
X176354744Y-87117205D01*
X176543102Y-87195226D01*
X176743061Y-87235000D01*
X176946939Y-87235000D01*
X177146898Y-87195226D01*
X177335256Y-87117205D01*
X177504774Y-87003937D01*
X177648937Y-86859774D01*
X177762205Y-86690256D01*
X177840226Y-86501898D01*
X177880000Y-86301939D01*
X177880000Y-86098061D01*
X177840226Y-85898102D01*
X177762205Y-85709744D01*
X177648937Y-85540226D01*
X177504774Y-85396063D01*
X177335256Y-85282795D01*
X177146898Y-85204774D01*
X176946939Y-85165000D01*
X176743061Y-85165000D01*
X176543102Y-85204774D01*
X176354744Y-85282795D01*
X176306546Y-85315000D01*
X172338454Y-85315000D01*
X172290256Y-85282795D01*
X172101898Y-85204774D01*
X171901939Y-85165000D01*
X171698061Y-85165000D01*
X171498102Y-85204774D01*
X171309744Y-85282795D01*
X171140226Y-85396063D01*
X170996063Y-85540226D01*
X170882795Y-85709744D01*
X170804774Y-85898102D01*
X170765000Y-86098061D01*
X167045172Y-86098061D01*
X167117205Y-85990256D01*
X167195226Y-85801898D01*
X167235000Y-85601939D01*
X167235000Y-85539801D01*
X168300410Y-84474392D01*
X168353740Y-84485000D01*
X168646260Y-84485000D01*
X168933158Y-84427932D01*
X169203411Y-84315990D01*
X169446632Y-84153475D01*
X169653475Y-83946632D01*
X169770000Y-83772240D01*
X169886525Y-83946632D01*
X170093368Y-84153475D01*
X170336589Y-84315990D01*
X170606842Y-84427932D01*
X170893740Y-84485000D01*
X171186260Y-84485000D01*
X171473158Y-84427932D01*
X171743411Y-84315990D01*
X171986632Y-84153475D01*
X172193475Y-83946632D01*
X172310000Y-83772240D01*
X172426525Y-83946632D01*
X172633368Y-84153475D01*
X172876589Y-84315990D01*
X173146842Y-84427932D01*
X173433740Y-84485000D01*
X173726260Y-84485000D01*
X174013158Y-84427932D01*
X174283411Y-84315990D01*
X174526632Y-84153475D01*
X174733475Y-83946632D01*
X174850000Y-83772240D01*
X174966525Y-83946632D01*
X175173368Y-84153475D01*
X175416589Y-84315990D01*
X175686842Y-84427932D01*
X175973740Y-84485000D01*
X176266260Y-84485000D01*
X176553158Y-84427932D01*
X176823411Y-84315990D01*
X177066632Y-84153475D01*
X177273475Y-83946632D01*
X177435990Y-83703411D01*
X177547932Y-83433158D01*
X177605000Y-83146260D01*
X177605000Y-82853740D01*
X177547932Y-82566842D01*
X177435990Y-82296589D01*
X177273475Y-82053368D01*
X177147107Y-81927000D01*
X187973000Y-81927000D01*
X187973000Y-103664149D01*
X187884737Y-104673000D01*
X177200000Y-104673000D01*
X177175224Y-104675440D01*
X177151399Y-104682667D01*
X177129443Y-104694403D01*
X177110197Y-104710197D01*
X174910197Y-106910197D01*
X174894403Y-106929443D01*
X174882667Y-106951399D01*
X174875440Y-106975224D01*
X174873000Y-107000000D01*
X174873000Y-112400000D01*
X174875466Y-112424907D01*
X174973000Y-112912577D01*
X174973000Y-113700000D01*
X174973374Y-113709740D01*
X175073000Y-115004878D01*
X175073000Y-119647394D01*
X175047394Y-119673000D01*
X167600000Y-119673000D01*
X167575224Y-119675440D01*
X167551399Y-119682667D01*
X167529443Y-119694403D01*
X167522519Y-119700085D01*
X167448374Y-119589118D01*
X167404437Y-119545181D01*
X167404437Y-116659026D01*
X167517205Y-116490256D01*
X167595226Y-116301898D01*
X167635000Y-116101939D01*
X167635000Y-115898061D01*
X167595226Y-115698102D01*
X167517205Y-115509744D01*
X167509399Y-115498061D01*
X168665000Y-115498061D01*
X168665000Y-115701939D01*
X168704774Y-115901898D01*
X168782795Y-116090256D01*
X168896063Y-116259774D01*
X169040226Y-116403937D01*
X169209744Y-116517205D01*
X169398102Y-116595226D01*
X169598061Y-116635000D01*
X169801939Y-116635000D01*
X170001898Y-116595226D01*
X170190256Y-116517205D01*
X170359774Y-116403937D01*
X170503937Y-116259774D01*
X170617205Y-116090256D01*
X170695226Y-115901898D01*
X170735000Y-115701939D01*
X170735000Y-115498061D01*
X170695226Y-115298102D01*
X170617205Y-115109744D01*
X170503937Y-114940226D01*
X170359774Y-114796063D01*
X170190256Y-114682795D01*
X170001898Y-114604774D01*
X169801939Y-114565000D01*
X169598061Y-114565000D01*
X169398102Y-114604774D01*
X169209744Y-114682795D01*
X169040226Y-114796063D01*
X168896063Y-114940226D01*
X168782795Y-115109744D01*
X168704774Y-115298102D01*
X168665000Y-115498061D01*
X167509399Y-115498061D01*
X167403937Y-115340226D01*
X167259774Y-115196063D01*
X167090256Y-115082795D01*
X166901898Y-115004774D01*
X166701939Y-114965000D01*
X166498061Y-114965000D01*
X166298102Y-115004774D01*
X166109744Y-115082795D01*
X165940226Y-115196063D01*
X165796063Y-115340226D01*
X165682795Y-115509744D01*
X165604774Y-115698102D01*
X165565000Y-115898061D01*
X165565000Y-116101939D01*
X165604774Y-116301898D01*
X165682795Y-116490256D01*
X165796063Y-116659774D01*
X165884438Y-116748149D01*
X165884438Y-117266834D01*
X165820387Y-117243820D01*
X165638238Y-117216551D01*
X165541825Y-117221158D01*
X165426964Y-112396977D01*
X165423935Y-112372266D01*
X165416143Y-112348620D01*
X165403887Y-112326949D01*
X165387640Y-112308085D01*
X165368024Y-112292754D01*
X165345794Y-112281544D01*
X165321805Y-112274886D01*
X165300000Y-112273000D01*
X157551257Y-112273000D01*
X154827000Y-109646038D01*
X154827000Y-108648061D01*
X161465000Y-108648061D01*
X161465000Y-108851939D01*
X161504774Y-109051898D01*
X161582795Y-109240256D01*
X161696063Y-109409774D01*
X161740001Y-109453712D01*
X161740000Y-109796289D01*
X161696063Y-109840226D01*
X161582795Y-110009744D01*
X161504774Y-110198102D01*
X161465000Y-110398061D01*
X161465000Y-110601939D01*
X161504774Y-110801898D01*
X161582795Y-110990256D01*
X161696063Y-111159774D01*
X161840226Y-111303937D01*
X162009744Y-111417205D01*
X162198102Y-111495226D01*
X162398061Y-111535000D01*
X162601939Y-111535000D01*
X162801898Y-111495226D01*
X162990256Y-111417205D01*
X163159774Y-111303937D01*
X163303937Y-111159774D01*
X163417205Y-110990256D01*
X163495226Y-110801898D01*
X163535000Y-110601939D01*
X163535000Y-110398061D01*
X163495226Y-110198102D01*
X163417205Y-110009744D01*
X163303937Y-109840226D01*
X163260000Y-109796289D01*
X163260000Y-109453711D01*
X163303937Y-109409774D01*
X163417205Y-109240256D01*
X163495226Y-109051898D01*
X163535000Y-108851939D01*
X163535000Y-108798061D01*
X169565000Y-108798061D01*
X169565000Y-109001939D01*
X169604774Y-109201898D01*
X169682795Y-109390256D01*
X169796063Y-109559774D01*
X169840001Y-109603712D01*
X169840000Y-111096289D01*
X169796063Y-111140226D01*
X169682795Y-111309744D01*
X169604774Y-111498102D01*
X169565000Y-111698061D01*
X169565000Y-111901939D01*
X169604774Y-112101898D01*
X169682795Y-112290256D01*
X169796063Y-112459774D01*
X169940226Y-112603937D01*
X170109744Y-112717205D01*
X170298102Y-112795226D01*
X170498061Y-112835000D01*
X170701939Y-112835000D01*
X170901898Y-112795226D01*
X171090256Y-112717205D01*
X171259774Y-112603937D01*
X171403937Y-112459774D01*
X171517205Y-112290256D01*
X171595226Y-112101898D01*
X171635000Y-111901939D01*
X171635000Y-111724768D01*
X171715440Y-111708768D01*
X171903798Y-111630747D01*
X172073316Y-111517479D01*
X172217479Y-111373316D01*
X172330747Y-111203798D01*
X172408768Y-111015440D01*
X172448542Y-110815481D01*
X172448542Y-110611603D01*
X172408768Y-110411644D01*
X172330747Y-110223286D01*
X172217479Y-110053768D01*
X172173542Y-110009831D01*
X172173542Y-108690169D01*
X172203937Y-108659774D01*
X172317205Y-108490256D01*
X172395226Y-108301898D01*
X172435000Y-108101939D01*
X172435000Y-107898061D01*
X172395226Y-107698102D01*
X172317205Y-107509744D01*
X172203937Y-107340226D01*
X172059774Y-107196063D01*
X171890256Y-107082795D01*
X171701898Y-107004774D01*
X171501939Y-106965000D01*
X171298061Y-106965000D01*
X171098102Y-107004774D01*
X170909744Y-107082795D01*
X170740226Y-107196063D01*
X170596063Y-107340226D01*
X170482795Y-107509744D01*
X170404774Y-107698102D01*
X170366366Y-107891196D01*
X170298102Y-107904774D01*
X170109744Y-107982795D01*
X169940226Y-108096063D01*
X169796063Y-108240226D01*
X169682795Y-108409744D01*
X169604774Y-108598102D01*
X169565000Y-108798061D01*
X163535000Y-108798061D01*
X163535000Y-108648061D01*
X163495226Y-108448102D01*
X163417205Y-108259744D01*
X163303937Y-108090226D01*
X163159774Y-107946063D01*
X162990256Y-107832795D01*
X162801898Y-107754774D01*
X162601939Y-107715000D01*
X162398061Y-107715000D01*
X162198102Y-107754774D01*
X162009744Y-107832795D01*
X161840226Y-107946063D01*
X161696063Y-108090226D01*
X161582795Y-108259744D01*
X161504774Y-108448102D01*
X161465000Y-108648061D01*
X154827000Y-108648061D01*
X154827000Y-106400000D01*
X154824560Y-106375224D01*
X154817333Y-106351399D01*
X154805670Y-106329553D01*
X154605670Y-106029553D01*
X154594247Y-106014874D01*
X151794247Y-102914874D01*
X151775829Y-102898123D01*
X151754496Y-102885287D01*
X151731070Y-102876859D01*
X151700000Y-102873000D01*
X140527000Y-102873000D01*
X140527000Y-91212580D01*
X140596525Y-91316632D01*
X140803368Y-91523475D01*
X141046589Y-91685990D01*
X141316842Y-91797932D01*
X141603740Y-91855000D01*
X141896260Y-91855000D01*
X142183158Y-91797932D01*
X142453411Y-91685990D01*
X142696632Y-91523475D01*
X142903475Y-91316632D01*
X143065990Y-91073411D01*
X143177932Y-90803158D01*
X143235000Y-90516260D01*
X143235000Y-90223740D01*
X143177932Y-89936842D01*
X143065990Y-89666589D01*
X142903475Y-89423368D01*
X142696632Y-89216525D01*
X142522240Y-89100000D01*
X142696632Y-88983475D01*
X142903475Y-88776632D01*
X143065990Y-88533411D01*
X143177932Y-88263158D01*
X143235000Y-87976260D01*
X143235000Y-87683740D01*
X143177932Y-87396842D01*
X143065990Y-87126589D01*
X142903475Y-86883368D01*
X142696632Y-86676525D01*
X142522240Y-86560000D01*
X142696632Y-86443475D01*
X142903475Y-86236632D01*
X143065990Y-85993411D01*
X143177932Y-85723158D01*
X143235000Y-85436260D01*
X143235000Y-85143740D01*
X143177932Y-84856842D01*
X143065990Y-84586589D01*
X142903475Y-84343368D01*
X142771620Y-84211513D01*
X142844180Y-84189502D01*
X142954494Y-84130537D01*
X143051185Y-84051185D01*
X143130537Y-83954494D01*
X143189502Y-83844180D01*
X143225812Y-83724482D01*
X143238072Y-83600000D01*
X143238072Y-81927000D01*
X148400208Y-81927000D01*
X148359999Y-81959999D01*
G37*
X148359999Y-81959999D02*
X148336201Y-81988997D01*
X147076347Y-83248852D01*
X147047345Y-83272653D01*
X147035015Y-83287677D01*
X146885449Y-83317427D01*
X146697091Y-83395448D01*
X146527573Y-83508716D01*
X146383410Y-83652879D01*
X146270142Y-83822397D01*
X146192121Y-84010755D01*
X146152347Y-84210714D01*
X146152347Y-84414592D01*
X146192121Y-84614551D01*
X146270142Y-84802909D01*
X146383410Y-84972427D01*
X146527573Y-85116590D01*
X146697091Y-85229858D01*
X146885449Y-85307879D01*
X147085408Y-85347653D01*
X147289286Y-85347653D01*
X147489245Y-85307879D01*
X147677603Y-85229858D01*
X147847121Y-85116590D01*
X147991284Y-84972427D01*
X148104552Y-84802909D01*
X148182573Y-84614551D01*
X148222347Y-84414592D01*
X148222347Y-84336879D01*
X148292892Y-84204901D01*
X148302903Y-84171898D01*
X148761928Y-83712873D01*
X148761928Y-84000000D01*
X148774188Y-84124482D01*
X148810498Y-84244180D01*
X148869463Y-84354494D01*
X148948815Y-84451185D01*
X149045506Y-84530537D01*
X149155820Y-84589502D01*
X149275518Y-84625812D01*
X149400000Y-84638072D01*
X150400000Y-84638072D01*
X150524482Y-84625812D01*
X150644180Y-84589502D01*
X150754494Y-84530537D01*
X150851185Y-84451185D01*
X150930537Y-84354494D01*
X150989502Y-84244180D01*
X151025812Y-84124482D01*
X151038072Y-84000000D01*
X151038072Y-83260000D01*
X151330503Y-83260000D01*
X151305000Y-83388212D01*
X151305000Y-83611788D01*
X151348617Y-83831067D01*
X151434176Y-84037624D01*
X151543000Y-84200490D01*
X151543000Y-84402183D01*
X151706099Y-84500411D01*
X151800196Y-84437549D01*
X151902376Y-84505824D01*
X152108933Y-84591383D01*
X152328212Y-84635000D01*
X152500199Y-84635000D01*
X153305198Y-85440000D01*
X152203711Y-85440000D01*
X152159774Y-85396063D01*
X151990256Y-85282795D01*
X151801898Y-85204774D01*
X151601939Y-85165000D01*
X151398061Y-85165000D01*
X151198102Y-85204774D01*
X151009744Y-85282795D01*
X150840226Y-85396063D01*
X150696063Y-85540226D01*
X150582795Y-85709744D01*
X150504774Y-85898102D01*
X150465000Y-86098061D01*
X150465000Y-86301939D01*
X150504774Y-86501898D01*
X150582795Y-86690256D01*
X150696063Y-86859774D01*
X150840226Y-87003937D01*
X151009744Y-87117205D01*
X151198102Y-87195226D01*
X151398061Y-87235000D01*
X151601939Y-87235000D01*
X151801898Y-87195226D01*
X151990256Y-87117205D01*
X152159774Y-87003937D01*
X152203711Y-86960000D01*
X153129396Y-86960000D01*
X153196063Y-87059774D01*
X153340226Y-87203937D01*
X153509744Y-87317205D01*
X153698102Y-87395226D01*
X153898061Y-87435000D01*
X154101939Y-87435000D01*
X154301898Y-87395226D01*
X154490256Y-87317205D01*
X154659774Y-87203937D01*
X154803937Y-87059774D01*
X154917205Y-86890256D01*
X154995226Y-86701898D01*
X155035000Y-86501939D01*
X155035000Y-86435002D01*
X156255854Y-86435002D01*
X156250997Y-86451014D01*
X156240000Y-86562667D01*
X156240000Y-86562678D01*
X156236324Y-86600000D01*
X156240000Y-86637322D01*
X156240000Y-87065000D01*
X156198061Y-87065000D01*
X155998102Y-87104774D01*
X155809744Y-87182795D01*
X155640226Y-87296063D01*
X155496063Y-87440226D01*
X155382795Y-87609744D01*
X155304774Y-87798102D01*
X155265000Y-87998061D01*
X155265000Y-88201939D01*
X155304774Y-88401898D01*
X155382795Y-88590256D01*
X155456123Y-88700000D01*
X155382795Y-88809744D01*
X155304774Y-88998102D01*
X155265000Y-89198061D01*
X155265000Y-89401939D01*
X155304774Y-89601898D01*
X155382795Y-89790256D01*
X155496063Y-89959774D01*
X155540001Y-90003712D01*
X155540000Y-91685198D01*
X152585199Y-94640000D01*
X152237322Y-94640000D01*
X152199999Y-94636324D01*
X152162676Y-94640000D01*
X152162667Y-94640000D01*
X152051014Y-94650997D01*
X151907753Y-94694454D01*
X151784989Y-94760074D01*
X151784989Y-91189812D01*
X152339802Y-90635000D01*
X152401939Y-90635000D01*
X152601898Y-90595226D01*
X152790256Y-90517205D01*
X152959774Y-90403937D01*
X153103937Y-90259774D01*
X153217205Y-90090256D01*
X153295226Y-89901898D01*
X153335000Y-89701939D01*
X153335000Y-89498061D01*
X153295226Y-89298102D01*
X153217205Y-89109744D01*
X153103937Y-88940226D01*
X152959774Y-88796063D01*
X152790256Y-88682795D01*
X152601898Y-88604774D01*
X152401939Y-88565000D01*
X152198061Y-88565000D01*
X151998102Y-88604774D01*
X151809744Y-88682795D01*
X151640226Y-88796063D01*
X151496063Y-88940226D01*
X151382795Y-89109744D01*
X151304774Y-89298102D01*
X151265000Y-89498061D01*
X151265000Y-89560198D01*
X150513987Y-90311212D01*
X150484989Y-90335010D01*
X150461191Y-90364008D01*
X150461190Y-90364009D01*
X150390015Y-90450735D01*
X150319443Y-90582765D01*
X150289169Y-90682569D01*
X150282200Y-90705545D01*
X150275987Y-90726026D01*
X150261313Y-90875011D01*
X150264990Y-90912343D01*
X150264989Y-99187667D01*
X150261313Y-99224989D01*
X150264989Y-99262311D01*
X150264989Y-99262321D01*
X150275986Y-99373974D01*
X150315663Y-99504774D01*
X150319443Y-99517235D01*
X150390015Y-99649265D01*
X150417533Y-99682795D01*
X150484988Y-99764990D01*
X150513992Y-99788793D01*
X151865000Y-101139802D01*
X151865000Y-101201939D01*
X151904774Y-101401898D01*
X151982795Y-101590256D01*
X152096063Y-101759774D01*
X152240226Y-101903937D01*
X152409744Y-102017205D01*
X152598102Y-102095226D01*
X152798061Y-102135000D01*
X153001939Y-102135000D01*
X153201898Y-102095226D01*
X153390256Y-102017205D01*
X153559774Y-101903937D01*
X153703937Y-101759774D01*
X153817205Y-101590256D01*
X153895226Y-101401898D01*
X153935000Y-101201939D01*
X153935000Y-100998061D01*
X153895226Y-100798102D01*
X153817205Y-100609744D01*
X153703937Y-100440226D01*
X153559774Y-100296063D01*
X153390256Y-100182795D01*
X153201898Y-100104774D01*
X153001939Y-100065000D01*
X152939802Y-100065000D01*
X152420783Y-99545982D01*
X152490256Y-99517205D01*
X152659774Y-99403937D01*
X152803937Y-99259774D01*
X152917205Y-99090256D01*
X152995226Y-98901898D01*
X153035000Y-98701939D01*
X153035000Y-98498061D01*
X152995226Y-98298102D01*
X152917205Y-98109744D01*
X152803937Y-97940226D01*
X152744603Y-97880892D01*
X152859774Y-97803937D01*
X153003937Y-97659774D01*
X153117205Y-97490256D01*
X153195226Y-97301898D01*
X153235000Y-97101939D01*
X153235000Y-97039801D01*
X153583496Y-96691305D01*
X153696063Y-96859774D01*
X153840226Y-97003937D01*
X154009744Y-97117205D01*
X154198102Y-97195226D01*
X154398061Y-97235000D01*
X154601939Y-97235000D01*
X154801898Y-97195226D01*
X154990256Y-97117205D01*
X155159774Y-97003937D01*
X155203711Y-96960000D01*
X157728841Y-96960000D01*
X157782795Y-97090256D01*
X157896063Y-97259774D01*
X158040226Y-97403937D01*
X158209744Y-97517205D01*
X158398102Y-97595226D01*
X158598061Y-97635000D01*
X158801939Y-97635000D01*
X159001898Y-97595226D01*
X159190256Y-97517205D01*
X159359774Y-97403937D01*
X159503937Y-97259774D01*
X159617205Y-97090256D01*
X159695226Y-96901898D01*
X159735000Y-96701939D01*
X159735000Y-96498061D01*
X159695226Y-96298102D01*
X159617205Y-96109744D01*
X159503937Y-95940226D01*
X159359774Y-95796063D01*
X159190256Y-95682795D01*
X159001898Y-95604774D01*
X158801939Y-95565000D01*
X158724227Y-95565000D01*
X158592247Y-95494454D01*
X158448986Y-95450997D01*
X158337333Y-95440000D01*
X158337322Y-95440000D01*
X158300000Y-95436324D01*
X158262678Y-95440000D01*
X155203711Y-95440000D01*
X155159774Y-95396063D01*
X154991305Y-95283496D01*
X157911004Y-92363798D01*
X157940001Y-92340001D01*
X158034974Y-92224276D01*
X158105546Y-92092247D01*
X158149003Y-91948986D01*
X158160000Y-91837333D01*
X158160000Y-91837332D01*
X158163677Y-91800000D01*
X158160000Y-91762667D01*
X158160000Y-90478711D01*
X158203937Y-90434774D01*
X158317205Y-90265256D01*
X158395226Y-90076898D01*
X158412957Y-89987759D01*
X158688997Y-90263799D01*
X158689003Y-90263804D01*
X163743709Y-95318511D01*
X163690256Y-95282795D01*
X163501898Y-95204774D01*
X163301939Y-95165000D01*
X163098061Y-95165000D01*
X162898102Y-95204774D01*
X162709744Y-95282795D01*
X162571630Y-95375080D01*
X162401898Y-95304774D01*
X162201939Y-95265000D01*
X161998061Y-95265000D01*
X161798102Y-95304774D01*
X161609744Y-95382795D01*
X161440226Y-95496063D01*
X161296063Y-95640226D01*
X161182795Y-95809744D01*
X161104774Y-95998102D01*
X161065000Y-96198061D01*
X161065000Y-96401939D01*
X161104774Y-96601898D01*
X161182795Y-96790256D01*
X161296063Y-96959774D01*
X161440226Y-97103937D01*
X161609744Y-97217205D01*
X161798102Y-97295226D01*
X161998061Y-97335000D01*
X162001289Y-97335000D01*
X161996063Y-97340226D01*
X161882795Y-97509744D01*
X161804774Y-97698102D01*
X161765000Y-97898061D01*
X161765000Y-98101939D01*
X161804774Y-98301898D01*
X161882795Y-98490256D01*
X161996063Y-98659774D01*
X162066453Y-98730164D01*
X162038949Y-98763677D01*
X161988028Y-98825724D01*
X161947312Y-98901898D01*
X161917456Y-98957754D01*
X161873999Y-99101015D01*
X161863002Y-99212668D01*
X161863002Y-99212678D01*
X161859326Y-99250000D01*
X161863002Y-99287323D01*
X161863003Y-101062195D01*
X161185199Y-101740000D01*
X159037333Y-101740000D01*
X159000000Y-101736323D01*
X158962667Y-101740000D01*
X158851014Y-101750997D01*
X158707753Y-101794454D01*
X158575724Y-101865026D01*
X158459999Y-101959999D01*
X158436201Y-101988997D01*
X157489002Y-102936197D01*
X157488997Y-102936201D01*
X156960199Y-103465000D01*
X156898061Y-103465000D01*
X156698102Y-103504774D01*
X156509744Y-103582795D01*
X156340226Y-103696063D01*
X156196063Y-103840226D01*
X156082795Y-104009744D01*
X156004774Y-104198102D01*
X155965000Y-104398061D01*
X155965000Y-104601939D01*
X156004774Y-104801898D01*
X156082795Y-104990256D01*
X156196063Y-105159774D01*
X156340226Y-105303937D01*
X156509744Y-105417205D01*
X156698102Y-105495226D01*
X156898061Y-105535000D01*
X157101939Y-105535000D01*
X157301898Y-105495226D01*
X157490256Y-105417205D01*
X157659774Y-105303937D01*
X157803937Y-105159774D01*
X157917205Y-104990256D01*
X157995226Y-104801898D01*
X158035000Y-104601939D01*
X158035000Y-104539801D01*
X158563799Y-104011003D01*
X158563803Y-104010998D01*
X159314802Y-103260000D01*
X161462678Y-103260000D01*
X161500000Y-103263676D01*
X161537322Y-103260000D01*
X161537333Y-103260000D01*
X161648986Y-103249003D01*
X161792247Y-103205546D01*
X161924276Y-103134974D01*
X162040001Y-103040001D01*
X162063804Y-103010998D01*
X163134005Y-101940797D01*
X163163003Y-101916999D01*
X163257976Y-101801274D01*
X163328548Y-101669245D01*
X163372005Y-101525984D01*
X163383002Y-101414331D01*
X163383002Y-101414323D01*
X163386678Y-101376998D01*
X163383002Y-101339673D01*
X163383002Y-99564801D01*
X164111007Y-98836798D01*
X164140000Y-98813004D01*
X164163794Y-98784011D01*
X164163798Y-98784007D01*
X164234972Y-98697280D01*
X164236483Y-98694454D01*
X164305545Y-98565250D01*
X164349002Y-98421989D01*
X164359999Y-98310336D01*
X164359999Y-98310327D01*
X164363675Y-98273004D01*
X164359999Y-98235681D01*
X164359999Y-97227429D01*
X164398061Y-97235000D01*
X164460199Y-97235000D01*
X166015000Y-98789802D01*
X166015000Y-98851939D01*
X166054774Y-99051898D01*
X166132795Y-99240256D01*
X166246063Y-99409774D01*
X166390226Y-99553937D01*
X166559744Y-99667205D01*
X166748102Y-99745226D01*
X166948061Y-99785000D01*
X167010199Y-99785000D01*
X170436201Y-103211003D01*
X170459999Y-103240001D01*
X170488997Y-103263799D01*
X170575724Y-103334974D01*
X170707753Y-103405546D01*
X170851014Y-103449003D01*
X171000000Y-103463677D01*
X171037333Y-103460000D01*
X173596289Y-103460000D01*
X173640226Y-103503937D01*
X173809744Y-103617205D01*
X173998102Y-103695226D01*
X174198061Y-103735000D01*
X174401939Y-103735000D01*
X174601898Y-103695226D01*
X174790256Y-103617205D01*
X174959774Y-103503937D01*
X175103937Y-103359774D01*
X175217205Y-103190256D01*
X175295226Y-103001898D01*
X175335000Y-102801939D01*
X175335000Y-102598061D01*
X175295226Y-102398102D01*
X175217205Y-102209744D01*
X175103937Y-102040226D01*
X174959774Y-101896063D01*
X174790256Y-101782795D01*
X174601898Y-101704774D01*
X174401939Y-101665000D01*
X174198061Y-101665000D01*
X173998102Y-101704774D01*
X173809744Y-101782795D01*
X173640226Y-101896063D01*
X173596289Y-101940000D01*
X171314802Y-101940000D01*
X170909802Y-101535000D01*
X171001939Y-101535000D01*
X171201898Y-101495226D01*
X171371630Y-101424920D01*
X171509744Y-101517205D01*
X171698102Y-101595226D01*
X171898061Y-101635000D01*
X172101939Y-101635000D01*
X172301898Y-101595226D01*
X172490256Y-101517205D01*
X172659774Y-101403937D01*
X172803937Y-101259774D01*
X172917205Y-101090256D01*
X172995226Y-100901898D01*
X173035000Y-100701939D01*
X173035000Y-100498061D01*
X172995226Y-100298102D01*
X172917205Y-100109744D01*
X172803937Y-99940226D01*
X172748987Y-99885276D01*
X172705546Y-99742068D01*
X172702298Y-99735991D01*
X172634974Y-99610038D01*
X172563799Y-99523312D01*
X172540001Y-99494314D01*
X172511002Y-99470515D01*
X171929488Y-98889002D01*
X171905686Y-98859999D01*
X171789961Y-98765026D01*
X171657932Y-98694454D01*
X171514671Y-98650997D01*
X171403018Y-98640000D01*
X171403007Y-98640000D01*
X171365685Y-98636324D01*
X171328363Y-98640000D01*
X170514802Y-98640000D01*
X161668717Y-89793915D01*
X161706095Y-89756537D01*
X161819363Y-89587019D01*
X161897384Y-89398661D01*
X161937158Y-89198702D01*
X161937158Y-88994824D01*
X161897384Y-88794865D01*
X161819363Y-88606507D01*
X161706095Y-88436989D01*
X161662158Y-88393052D01*
X161662158Y-88137645D01*
X161964804Y-87835000D01*
X162026941Y-87835000D01*
X162226900Y-87795226D01*
X162415258Y-87717205D01*
X162584776Y-87603937D01*
X162728939Y-87459774D01*
X162842207Y-87290256D01*
X162920228Y-87101898D01*
X162960002Y-86901939D01*
X162960002Y-86698061D01*
X162920228Y-86498102D01*
X162842207Y-86309744D01*
X162728939Y-86140226D01*
X162584776Y-85996063D01*
X162415258Y-85882795D01*
X162226900Y-85804774D01*
X162026941Y-85765000D01*
X161823063Y-85765000D01*
X161623104Y-85804774D01*
X161434746Y-85882795D01*
X161265228Y-85996063D01*
X161121065Y-86140226D01*
X161007797Y-86309744D01*
X160929776Y-86498102D01*
X160890002Y-86698061D01*
X160890002Y-86760198D01*
X160391156Y-87259045D01*
X160362158Y-87282843D01*
X160338360Y-87311841D01*
X160338359Y-87311842D01*
X160267184Y-87398568D01*
X160196612Y-87530598D01*
X160153156Y-87673859D01*
X160138482Y-87822844D01*
X160142159Y-87860176D01*
X160142159Y-88244978D01*
X160014551Y-88192121D01*
X159814592Y-88152347D01*
X159610714Y-88152347D01*
X159410755Y-88192121D01*
X159222397Y-88270142D01*
X159052879Y-88383410D01*
X159005545Y-88430744D01*
X158835000Y-88260199D01*
X158835000Y-88198061D01*
X158795226Y-87998102D01*
X158717205Y-87809744D01*
X158603937Y-87640226D01*
X158459774Y-87496063D01*
X158290256Y-87382795D01*
X158101898Y-87304774D01*
X157901939Y-87265000D01*
X157760000Y-87265000D01*
X157760000Y-86960000D01*
X159835680Y-86960000D01*
X159873002Y-86963676D01*
X159910324Y-86960000D01*
X159910335Y-86960000D01*
X160021988Y-86949003D01*
X160165249Y-86905546D01*
X160297278Y-86834974D01*
X160413003Y-86740001D01*
X160436806Y-86710998D01*
X161436005Y-85711799D01*
X161465002Y-85688002D01*
X161559975Y-85572277D01*
X161630547Y-85440248D01*
X161674004Y-85296987D01*
X161685001Y-85185334D01*
X161685001Y-85185325D01*
X161688677Y-85148002D01*
X161685001Y-85110679D01*
X161685001Y-84228712D01*
X161728938Y-84184775D01*
X161842206Y-84015257D01*
X161910658Y-83850000D01*
X164471928Y-83850000D01*
X164484188Y-83974482D01*
X164520498Y-84094180D01*
X164579463Y-84204494D01*
X164658815Y-84301185D01*
X164755506Y-84380537D01*
X164865820Y-84439502D01*
X164985518Y-84475812D01*
X165110000Y-84488072D01*
X165420250Y-84485000D01*
X165579000Y-84326250D01*
X165579000Y-83381000D01*
X164633750Y-83381000D01*
X164475000Y-83539750D01*
X164471928Y-83850000D01*
X161910658Y-83850000D01*
X161920227Y-83826899D01*
X161960001Y-83626940D01*
X161960001Y-83423062D01*
X161920227Y-83223103D01*
X161842206Y-83034745D01*
X161728938Y-82865227D01*
X161584775Y-82721064D01*
X161415257Y-82607796D01*
X161226899Y-82529775D01*
X161026940Y-82490001D01*
X160823062Y-82490001D01*
X160623103Y-82529775D01*
X160434745Y-82607796D01*
X160265227Y-82721064D01*
X160121064Y-82865227D01*
X160007796Y-83034745D01*
X159929775Y-83223103D01*
X159910967Y-83317660D01*
X159881383Y-83168933D01*
X159795824Y-82962376D01*
X159671612Y-82776480D01*
X159513520Y-82618388D01*
X159327624Y-82494176D01*
X159121067Y-82408617D01*
X158901788Y-82365000D01*
X158678212Y-82365000D01*
X158458933Y-82408617D01*
X158252376Y-82494176D01*
X158155000Y-82559241D01*
X158057624Y-82494176D01*
X157851067Y-82408617D01*
X157631788Y-82365000D01*
X157408212Y-82365000D01*
X157188933Y-82408617D01*
X156982376Y-82494176D01*
X156885000Y-82559241D01*
X156787624Y-82494176D01*
X156581067Y-82408617D01*
X156361788Y-82365000D01*
X156189801Y-82365000D01*
X155813804Y-81989002D01*
X155790001Y-81959999D01*
X155749792Y-81927000D01*
X164514073Y-81927000D01*
X164484188Y-82025518D01*
X164471928Y-82150000D01*
X164475000Y-82460250D01*
X164633750Y-82619000D01*
X165579000Y-82619000D01*
X165579000Y-82599000D01*
X166341000Y-82599000D01*
X166341000Y-82619000D01*
X166361000Y-82619000D01*
X166361000Y-83381000D01*
X166341000Y-83381000D01*
X166341000Y-84284199D01*
X166160199Y-84465000D01*
X166098061Y-84465000D01*
X165898102Y-84504774D01*
X165709744Y-84582795D01*
X165540226Y-84696063D01*
X165396063Y-84840226D01*
X165282795Y-85009744D01*
X165204774Y-85198102D01*
X165165000Y-85398061D01*
X165165000Y-85601939D01*
X165204774Y-85801898D01*
X165282795Y-85990256D01*
X165396063Y-86159774D01*
X165540226Y-86303937D01*
X165709744Y-86417205D01*
X165898102Y-86495226D01*
X166098061Y-86535000D01*
X166301939Y-86535000D01*
X166501898Y-86495226D01*
X166690256Y-86417205D01*
X166859774Y-86303937D01*
X167003937Y-86159774D01*
X167045172Y-86098061D01*
X170765000Y-86098061D01*
X170765000Y-86301939D01*
X170804774Y-86501898D01*
X170882795Y-86690256D01*
X170996063Y-86859774D01*
X171140226Y-87003937D01*
X171309744Y-87117205D01*
X171498102Y-87195226D01*
X171698061Y-87235000D01*
X171901939Y-87235000D01*
X172101898Y-87195226D01*
X172290256Y-87117205D01*
X172338454Y-87085000D01*
X176306546Y-87085000D01*
X176354744Y-87117205D01*
X176543102Y-87195226D01*
X176743061Y-87235000D01*
X176946939Y-87235000D01*
X177146898Y-87195226D01*
X177335256Y-87117205D01*
X177504774Y-87003937D01*
X177648937Y-86859774D01*
X177762205Y-86690256D01*
X177840226Y-86501898D01*
X177880000Y-86301939D01*
X177880000Y-86098061D01*
X177840226Y-85898102D01*
X177762205Y-85709744D01*
X177648937Y-85540226D01*
X177504774Y-85396063D01*
X177335256Y-85282795D01*
X177146898Y-85204774D01*
X176946939Y-85165000D01*
X176743061Y-85165000D01*
X176543102Y-85204774D01*
X176354744Y-85282795D01*
X176306546Y-85315000D01*
X172338454Y-85315000D01*
X172290256Y-85282795D01*
X172101898Y-85204774D01*
X171901939Y-85165000D01*
X171698061Y-85165000D01*
X171498102Y-85204774D01*
X171309744Y-85282795D01*
X171140226Y-85396063D01*
X170996063Y-85540226D01*
X170882795Y-85709744D01*
X170804774Y-85898102D01*
X170765000Y-86098061D01*
X167045172Y-86098061D01*
X167117205Y-85990256D01*
X167195226Y-85801898D01*
X167235000Y-85601939D01*
X167235000Y-85539801D01*
X168300410Y-84474392D01*
X168353740Y-84485000D01*
X168646260Y-84485000D01*
X168933158Y-84427932D01*
X169203411Y-84315990D01*
X169446632Y-84153475D01*
X169653475Y-83946632D01*
X169770000Y-83772240D01*
X169886525Y-83946632D01*
X170093368Y-84153475D01*
X170336589Y-84315990D01*
X170606842Y-84427932D01*
X170893740Y-84485000D01*
X171186260Y-84485000D01*
X171473158Y-84427932D01*
X171743411Y-84315990D01*
X171986632Y-84153475D01*
X172193475Y-83946632D01*
X172310000Y-83772240D01*
X172426525Y-83946632D01*
X172633368Y-84153475D01*
X172876589Y-84315990D01*
X173146842Y-84427932D01*
X173433740Y-84485000D01*
X173726260Y-84485000D01*
X174013158Y-84427932D01*
X174283411Y-84315990D01*
X174526632Y-84153475D01*
X174733475Y-83946632D01*
X174850000Y-83772240D01*
X174966525Y-83946632D01*
X175173368Y-84153475D01*
X175416589Y-84315990D01*
X175686842Y-84427932D01*
X175973740Y-84485000D01*
X176266260Y-84485000D01*
X176553158Y-84427932D01*
X176823411Y-84315990D01*
X177066632Y-84153475D01*
X177273475Y-83946632D01*
X177435990Y-83703411D01*
X177547932Y-83433158D01*
X177605000Y-83146260D01*
X177605000Y-82853740D01*
X177547932Y-82566842D01*
X177435990Y-82296589D01*
X177273475Y-82053368D01*
X177147107Y-81927000D01*
X187973000Y-81927000D01*
X187973000Y-103664149D01*
X187884737Y-104673000D01*
X177200000Y-104673000D01*
X177175224Y-104675440D01*
X177151399Y-104682667D01*
X177129443Y-104694403D01*
X177110197Y-104710197D01*
X174910197Y-106910197D01*
X174894403Y-106929443D01*
X174882667Y-106951399D01*
X174875440Y-106975224D01*
X174873000Y-107000000D01*
X174873000Y-112400000D01*
X174875466Y-112424907D01*
X174973000Y-112912577D01*
X174973000Y-113700000D01*
X174973374Y-113709740D01*
X175073000Y-115004878D01*
X175073000Y-119647394D01*
X175047394Y-119673000D01*
X167600000Y-119673000D01*
X167575224Y-119675440D01*
X167551399Y-119682667D01*
X167529443Y-119694403D01*
X167522519Y-119700085D01*
X167448374Y-119589118D01*
X167404437Y-119545181D01*
X167404437Y-116659026D01*
X167517205Y-116490256D01*
X167595226Y-116301898D01*
X167635000Y-116101939D01*
X167635000Y-115898061D01*
X167595226Y-115698102D01*
X167517205Y-115509744D01*
X167509399Y-115498061D01*
X168665000Y-115498061D01*
X168665000Y-115701939D01*
X168704774Y-115901898D01*
X168782795Y-116090256D01*
X168896063Y-116259774D01*
X169040226Y-116403937D01*
X169209744Y-116517205D01*
X169398102Y-116595226D01*
X169598061Y-116635000D01*
X169801939Y-116635000D01*
X170001898Y-116595226D01*
X170190256Y-116517205D01*
X170359774Y-116403937D01*
X170503937Y-116259774D01*
X170617205Y-116090256D01*
X170695226Y-115901898D01*
X170735000Y-115701939D01*
X170735000Y-115498061D01*
X170695226Y-115298102D01*
X170617205Y-115109744D01*
X170503937Y-114940226D01*
X170359774Y-114796063D01*
X170190256Y-114682795D01*
X170001898Y-114604774D01*
X169801939Y-114565000D01*
X169598061Y-114565000D01*
X169398102Y-114604774D01*
X169209744Y-114682795D01*
X169040226Y-114796063D01*
X168896063Y-114940226D01*
X168782795Y-115109744D01*
X168704774Y-115298102D01*
X168665000Y-115498061D01*
X167509399Y-115498061D01*
X167403937Y-115340226D01*
X167259774Y-115196063D01*
X167090256Y-115082795D01*
X166901898Y-115004774D01*
X166701939Y-114965000D01*
X166498061Y-114965000D01*
X166298102Y-115004774D01*
X166109744Y-115082795D01*
X165940226Y-115196063D01*
X165796063Y-115340226D01*
X165682795Y-115509744D01*
X165604774Y-115698102D01*
X165565000Y-115898061D01*
X165565000Y-116101939D01*
X165604774Y-116301898D01*
X165682795Y-116490256D01*
X165796063Y-116659774D01*
X165884438Y-116748149D01*
X165884438Y-117266834D01*
X165820387Y-117243820D01*
X165638238Y-117216551D01*
X165541825Y-117221158D01*
X165426964Y-112396977D01*
X165423935Y-112372266D01*
X165416143Y-112348620D01*
X165403887Y-112326949D01*
X165387640Y-112308085D01*
X165368024Y-112292754D01*
X165345794Y-112281544D01*
X165321805Y-112274886D01*
X165300000Y-112273000D01*
X157551257Y-112273000D01*
X154827000Y-109646038D01*
X154827000Y-108648061D01*
X161465000Y-108648061D01*
X161465000Y-108851939D01*
X161504774Y-109051898D01*
X161582795Y-109240256D01*
X161696063Y-109409774D01*
X161740001Y-109453712D01*
X161740000Y-109796289D01*
X161696063Y-109840226D01*
X161582795Y-110009744D01*
X161504774Y-110198102D01*
X161465000Y-110398061D01*
X161465000Y-110601939D01*
X161504774Y-110801898D01*
X161582795Y-110990256D01*
X161696063Y-111159774D01*
X161840226Y-111303937D01*
X162009744Y-111417205D01*
X162198102Y-111495226D01*
X162398061Y-111535000D01*
X162601939Y-111535000D01*
X162801898Y-111495226D01*
X162990256Y-111417205D01*
X163159774Y-111303937D01*
X163303937Y-111159774D01*
X163417205Y-110990256D01*
X163495226Y-110801898D01*
X163535000Y-110601939D01*
X163535000Y-110398061D01*
X163495226Y-110198102D01*
X163417205Y-110009744D01*
X163303937Y-109840226D01*
X163260000Y-109796289D01*
X163260000Y-109453711D01*
X163303937Y-109409774D01*
X163417205Y-109240256D01*
X163495226Y-109051898D01*
X163535000Y-108851939D01*
X163535000Y-108798061D01*
X169565000Y-108798061D01*
X169565000Y-109001939D01*
X169604774Y-109201898D01*
X169682795Y-109390256D01*
X169796063Y-109559774D01*
X169840001Y-109603712D01*
X169840000Y-111096289D01*
X169796063Y-111140226D01*
X169682795Y-111309744D01*
X169604774Y-111498102D01*
X169565000Y-111698061D01*
X169565000Y-111901939D01*
X169604774Y-112101898D01*
X169682795Y-112290256D01*
X169796063Y-112459774D01*
X169940226Y-112603937D01*
X170109744Y-112717205D01*
X170298102Y-112795226D01*
X170498061Y-112835000D01*
X170701939Y-112835000D01*
X170901898Y-112795226D01*
X171090256Y-112717205D01*
X171259774Y-112603937D01*
X171403937Y-112459774D01*
X171517205Y-112290256D01*
X171595226Y-112101898D01*
X171635000Y-111901939D01*
X171635000Y-111724768D01*
X171715440Y-111708768D01*
X171903798Y-111630747D01*
X172073316Y-111517479D01*
X172217479Y-111373316D01*
X172330747Y-111203798D01*
X172408768Y-111015440D01*
X172448542Y-110815481D01*
X172448542Y-110611603D01*
X172408768Y-110411644D01*
X172330747Y-110223286D01*
X172217479Y-110053768D01*
X172173542Y-110009831D01*
X172173542Y-108690169D01*
X172203937Y-108659774D01*
X172317205Y-108490256D01*
X172395226Y-108301898D01*
X172435000Y-108101939D01*
X172435000Y-107898061D01*
X172395226Y-107698102D01*
X172317205Y-107509744D01*
X172203937Y-107340226D01*
X172059774Y-107196063D01*
X171890256Y-107082795D01*
X171701898Y-107004774D01*
X171501939Y-106965000D01*
X171298061Y-106965000D01*
X171098102Y-107004774D01*
X170909744Y-107082795D01*
X170740226Y-107196063D01*
X170596063Y-107340226D01*
X170482795Y-107509744D01*
X170404774Y-107698102D01*
X170366366Y-107891196D01*
X170298102Y-107904774D01*
X170109744Y-107982795D01*
X169940226Y-108096063D01*
X169796063Y-108240226D01*
X169682795Y-108409744D01*
X169604774Y-108598102D01*
X169565000Y-108798061D01*
X163535000Y-108798061D01*
X163535000Y-108648061D01*
X163495226Y-108448102D01*
X163417205Y-108259744D01*
X163303937Y-108090226D01*
X163159774Y-107946063D01*
X162990256Y-107832795D01*
X162801898Y-107754774D01*
X162601939Y-107715000D01*
X162398061Y-107715000D01*
X162198102Y-107754774D01*
X162009744Y-107832795D01*
X161840226Y-107946063D01*
X161696063Y-108090226D01*
X161582795Y-108259744D01*
X161504774Y-108448102D01*
X161465000Y-108648061D01*
X154827000Y-108648061D01*
X154827000Y-106400000D01*
X154824560Y-106375224D01*
X154817333Y-106351399D01*
X154805670Y-106329553D01*
X154605670Y-106029553D01*
X154594247Y-106014874D01*
X151794247Y-102914874D01*
X151775829Y-102898123D01*
X151754496Y-102885287D01*
X151731070Y-102876859D01*
X151700000Y-102873000D01*
X140527000Y-102873000D01*
X140527000Y-91212580D01*
X140596525Y-91316632D01*
X140803368Y-91523475D01*
X141046589Y-91685990D01*
X141316842Y-91797932D01*
X141603740Y-91855000D01*
X141896260Y-91855000D01*
X142183158Y-91797932D01*
X142453411Y-91685990D01*
X142696632Y-91523475D01*
X142903475Y-91316632D01*
X143065990Y-91073411D01*
X143177932Y-90803158D01*
X143235000Y-90516260D01*
X143235000Y-90223740D01*
X143177932Y-89936842D01*
X143065990Y-89666589D01*
X142903475Y-89423368D01*
X142696632Y-89216525D01*
X142522240Y-89100000D01*
X142696632Y-88983475D01*
X142903475Y-88776632D01*
X143065990Y-88533411D01*
X143177932Y-88263158D01*
X143235000Y-87976260D01*
X143235000Y-87683740D01*
X143177932Y-87396842D01*
X143065990Y-87126589D01*
X142903475Y-86883368D01*
X142696632Y-86676525D01*
X142522240Y-86560000D01*
X142696632Y-86443475D01*
X142903475Y-86236632D01*
X143065990Y-85993411D01*
X143177932Y-85723158D01*
X143235000Y-85436260D01*
X143235000Y-85143740D01*
X143177932Y-84856842D01*
X143065990Y-84586589D01*
X142903475Y-84343368D01*
X142771620Y-84211513D01*
X142844180Y-84189502D01*
X142954494Y-84130537D01*
X143051185Y-84051185D01*
X143130537Y-83954494D01*
X143189502Y-83844180D01*
X143225812Y-83724482D01*
X143238072Y-83600000D01*
X143238072Y-81927000D01*
X148400208Y-81927000D01*
X148359999Y-81959999D01*
G36*
X165884437Y-119105984D02*
G01*
X165835540Y-119154881D01*
X165884437Y-119203778D01*
X165884437Y-119285589D01*
X165680684Y-119489343D01*
X165593760Y-119402419D01*
X165589746Y-119233836D01*
X165743032Y-119080550D01*
X165884437Y-119045330D01*
X165884437Y-119105984D01*
G37*
X165884437Y-119105984D02*
X165835540Y-119154881D01*
X165884437Y-119203778D01*
X165884437Y-119285589D01*
X165680684Y-119489343D01*
X165593760Y-119402419D01*
X165589746Y-119233836D01*
X165743032Y-119080550D01*
X165884437Y-119045330D01*
X165884437Y-119105984D01*
G36*
X165884438Y-118024174D02*
G01*
X165884438Y-118105983D01*
X165835540Y-118154881D01*
X165884437Y-118203778D01*
X165884437Y-118266834D01*
X165820387Y-118243820D01*
X165746592Y-118232772D01*
X165561504Y-118047684D01*
X165557435Y-117876776D01*
X165590881Y-117910222D01*
X165680684Y-117820420D01*
X165884438Y-118024174D01*
G37*
X165884438Y-118024174D02*
X165884438Y-118105983D01*
X165835540Y-118154881D01*
X165884437Y-118203778D01*
X165884437Y-118266834D01*
X165820387Y-118243820D01*
X165746592Y-118232772D01*
X165561504Y-118047684D01*
X165557435Y-117876776D01*
X165590881Y-117910222D01*
X165680684Y-117820420D01*
X165884438Y-118024174D01*
G36*
X154073000Y-106549768D02*
G01*
X154073000Y-109900000D01*
X154075440Y-109924776D01*
X154082667Y-109948601D01*
X154094403Y-109970557D01*
X154110197Y-109989803D01*
X157010197Y-112889803D01*
X157029443Y-112905597D01*
X157051399Y-112917333D01*
X157075224Y-112924560D01*
X157101607Y-112926990D01*
X164873000Y-112828618D01*
X164873000Y-121100000D01*
X164875440Y-121124776D01*
X164882667Y-121148601D01*
X164894403Y-121170557D01*
X164910197Y-121189803D01*
X164929443Y-121205597D01*
X164951399Y-121217333D01*
X164975224Y-121224560D01*
X165000000Y-121227000D01*
X166301213Y-121227000D01*
X166342539Y-121244118D01*
X166542498Y-121283892D01*
X166746376Y-121283892D01*
X166946335Y-121244118D01*
X166987661Y-121227000D01*
X167000000Y-121227000D01*
X167024776Y-121224560D01*
X167048601Y-121217333D01*
X167070557Y-121205597D01*
X167089803Y-121189803D01*
X167095514Y-121182326D01*
X167134693Y-121166097D01*
X167304211Y-121052829D01*
X167448374Y-120908666D01*
X167561642Y-120739148D01*
X167639663Y-120550790D01*
X167664286Y-120427000D01*
X175400000Y-120427000D01*
X175424776Y-120424560D01*
X175448601Y-120417333D01*
X175470557Y-120405597D01*
X175489803Y-120389803D01*
X175505597Y-120370557D01*
X175517333Y-120348601D01*
X175524560Y-120324776D01*
X175527000Y-120300000D01*
X175527000Y-115000000D01*
X183959993Y-115000000D01*
X183979976Y-115202895D01*
X184039159Y-115397993D01*
X184124741Y-115558106D01*
X184103169Y-115584392D01*
X184025722Y-115729284D01*
X183978031Y-115886500D01*
X183961928Y-116050000D01*
X183961928Y-116450000D01*
X183978031Y-116613500D01*
X184025722Y-116770716D01*
X184103169Y-116915608D01*
X184207394Y-117042606D01*
X184334392Y-117146831D01*
X184479284Y-117224278D01*
X184636500Y-117271969D01*
X184800000Y-117288072D01*
X185700000Y-117288072D01*
X185863500Y-117271969D01*
X186020716Y-117224278D01*
X186165608Y-117146831D01*
X186292606Y-117042606D01*
X186396831Y-116915608D01*
X186474278Y-116770716D01*
X186521969Y-116613500D01*
X186538072Y-116450000D01*
X186538072Y-116050000D01*
X186521969Y-115886500D01*
X186474278Y-115729284D01*
X186396831Y-115584392D01*
X186375259Y-115558106D01*
X186460841Y-115397993D01*
X186520024Y-115202895D01*
X186540007Y-115000000D01*
X186520024Y-114797105D01*
X186460841Y-114602007D01*
X186364734Y-114422203D01*
X186235396Y-114264604D01*
X186077797Y-114135266D01*
X185897993Y-114039159D01*
X185702895Y-113979976D01*
X185550838Y-113965000D01*
X184949162Y-113965000D01*
X184797105Y-113979976D01*
X184602007Y-114039159D01*
X184422203Y-114135266D01*
X184264604Y-114264604D01*
X184135266Y-114422203D01*
X184039159Y-114602007D01*
X183979976Y-114797105D01*
X183959993Y-115000000D01*
X175527000Y-115000000D01*
X175527000Y-107154429D01*
X177550800Y-105227000D01*
X187836268Y-105227000D01*
X187821193Y-105399312D01*
X187815778Y-105425066D01*
X187815328Y-105466359D01*
X187814675Y-105473818D01*
X187814961Y-105500000D01*
X187814675Y-105526182D01*
X187815328Y-105533641D01*
X187815778Y-105574934D01*
X187821193Y-105600688D01*
X188004671Y-107697857D01*
X188271436Y-129572544D01*
X164113763Y-129486878D01*
X164277502Y-129352502D01*
X164431833Y-129164449D01*
X164546511Y-128949901D01*
X164617130Y-128717102D01*
X164635000Y-128535665D01*
X164635000Y-127864336D01*
X164617130Y-127682899D01*
X164546511Y-127450100D01*
X164431833Y-127235551D01*
X164277502Y-127047498D01*
X164089449Y-126893167D01*
X163874901Y-126778489D01*
X163642102Y-126707870D01*
X163400000Y-126684025D01*
X163157899Y-126707870D01*
X162925100Y-126778489D01*
X162710552Y-126893167D01*
X162522499Y-127047498D01*
X162368168Y-127235551D01*
X162253489Y-127450099D01*
X162182870Y-127682898D01*
X162165000Y-127864335D01*
X162165000Y-128535664D01*
X162182870Y-128717101D01*
X162253489Y-128949900D01*
X162368167Y-129164448D01*
X162522498Y-129352502D01*
X162680041Y-129481794D01*
X160200485Y-129473001D01*
X140927000Y-129373653D01*
X140927000Y-124900000D01*
X142459993Y-124900000D01*
X142479976Y-125102895D01*
X142539159Y-125297993D01*
X142635266Y-125477797D01*
X142764604Y-125635396D01*
X142922203Y-125764734D01*
X143102007Y-125860841D01*
X143297105Y-125920024D01*
X143449162Y-125935000D01*
X144050838Y-125935000D01*
X144202895Y-125920024D01*
X144397993Y-125860841D01*
X144577797Y-125764734D01*
X144735396Y-125635396D01*
X144864734Y-125477797D01*
X144960841Y-125297993D01*
X145020024Y-125102895D01*
X145030158Y-125000000D01*
X182959993Y-125000000D01*
X182979976Y-125202895D01*
X183039159Y-125397993D01*
X183135266Y-125577797D01*
X183264604Y-125735396D01*
X183422203Y-125864734D01*
X183602007Y-125960841D01*
X183797105Y-126020024D01*
X183949162Y-126035000D01*
X184550838Y-126035000D01*
X184702895Y-126020024D01*
X184897993Y-125960841D01*
X185077797Y-125864734D01*
X185235396Y-125735396D01*
X185364734Y-125577797D01*
X185460841Y-125397993D01*
X185520024Y-125202895D01*
X185540007Y-125000000D01*
X185520024Y-124797105D01*
X185460841Y-124602007D01*
X185375259Y-124441894D01*
X185396831Y-124415608D01*
X185474278Y-124270716D01*
X185521969Y-124113500D01*
X185538072Y-123950000D01*
X185538072Y-123550000D01*
X185521969Y-123386500D01*
X185474278Y-123229284D01*
X185396831Y-123084392D01*
X185292606Y-122957394D01*
X185165608Y-122853169D01*
X185020716Y-122775722D01*
X184863500Y-122728031D01*
X184700000Y-122711928D01*
X183800000Y-122711928D01*
X183636500Y-122728031D01*
X183479284Y-122775722D01*
X183334392Y-122853169D01*
X183207394Y-122957394D01*
X183103169Y-123084392D01*
X183025722Y-123229284D01*
X182978031Y-123386500D01*
X182961928Y-123550000D01*
X182961928Y-123950000D01*
X182978031Y-124113500D01*
X183025722Y-124270716D01*
X183103169Y-124415608D01*
X183124741Y-124441894D01*
X183039159Y-124602007D01*
X182979976Y-124797105D01*
X182959993Y-125000000D01*
X145030158Y-125000000D01*
X145040007Y-124900000D01*
X145020024Y-124697105D01*
X144960841Y-124502007D01*
X144875259Y-124341894D01*
X144896831Y-124315608D01*
X144974278Y-124170716D01*
X145021969Y-124013500D01*
X145038072Y-123850000D01*
X145038072Y-123450000D01*
X145021969Y-123286500D01*
X144974278Y-123129284D01*
X144896831Y-122984392D01*
X144792606Y-122857394D01*
X144665608Y-122753169D01*
X144520716Y-122675722D01*
X144363500Y-122628031D01*
X144200000Y-122611928D01*
X143300000Y-122611928D01*
X143136500Y-122628031D01*
X142979284Y-122675722D01*
X142834392Y-122753169D01*
X142707394Y-122857394D01*
X142603169Y-122984392D01*
X142525722Y-123129284D01*
X142478031Y-123286500D01*
X142461928Y-123450000D01*
X142461928Y-123850000D01*
X142478031Y-124013500D01*
X142525722Y-124170716D01*
X142603169Y-124315608D01*
X142624741Y-124341894D01*
X142539159Y-124502007D01*
X142479976Y-124697105D01*
X142459993Y-124900000D01*
X140927000Y-124900000D01*
X140927000Y-115000000D01*
X143209993Y-115000000D01*
X143229976Y-115202895D01*
X143289159Y-115397993D01*
X143374741Y-115558106D01*
X143353169Y-115584392D01*
X143275722Y-115729284D01*
X143228031Y-115886500D01*
X143211928Y-116050000D01*
X143211928Y-116450000D01*
X143228031Y-116613500D01*
X143275722Y-116770716D01*
X143353169Y-116915608D01*
X143457394Y-117042606D01*
X143584392Y-117146831D01*
X143729284Y-117224278D01*
X143886500Y-117271969D01*
X144050000Y-117288072D01*
X144950000Y-117288072D01*
X145113500Y-117271969D01*
X145270716Y-117224278D01*
X145415608Y-117146831D01*
X145542606Y-117042606D01*
X145646831Y-116915608D01*
X145724278Y-116770716D01*
X145771969Y-116613500D01*
X145788072Y-116450000D01*
X145788072Y-116050000D01*
X145771969Y-115886500D01*
X145724278Y-115729284D01*
X145646831Y-115584392D01*
X145625259Y-115558106D01*
X145710841Y-115397993D01*
X145770024Y-115202895D01*
X145790007Y-115000000D01*
X145770024Y-114797105D01*
X145710841Y-114602007D01*
X145614734Y-114422203D01*
X145485396Y-114264604D01*
X145327797Y-114135266D01*
X145147993Y-114039159D01*
X144952895Y-113979976D01*
X144800838Y-113965000D01*
X144199162Y-113965000D01*
X144047105Y-113979976D01*
X143852007Y-114039159D01*
X143672203Y-114135266D01*
X143514604Y-114264604D01*
X143385266Y-114422203D01*
X143289159Y-114602007D01*
X143229976Y-114797105D01*
X143209993Y-115000000D01*
X140927000Y-115000000D01*
X140927000Y-103927000D01*
X151644511Y-103927000D01*
X154073000Y-106549768D01*
G37*
X154073000Y-106549768D02*
X154073000Y-109900000D01*
X154075440Y-109924776D01*
X154082667Y-109948601D01*
X154094403Y-109970557D01*
X154110197Y-109989803D01*
X157010197Y-112889803D01*
X157029443Y-112905597D01*
X157051399Y-112917333D01*
X157075224Y-112924560D01*
X157101607Y-112926990D01*
X164873000Y-112828618D01*
X164873000Y-121100000D01*
X164875440Y-121124776D01*
X164882667Y-121148601D01*
X164894403Y-121170557D01*
X164910197Y-121189803D01*
X164929443Y-121205597D01*
X164951399Y-121217333D01*
X164975224Y-121224560D01*
X165000000Y-121227000D01*
X166301213Y-121227000D01*
X166342539Y-121244118D01*
X166542498Y-121283892D01*
X166746376Y-121283892D01*
X166946335Y-121244118D01*
X166987661Y-121227000D01*
X167000000Y-121227000D01*
X167024776Y-121224560D01*
X167048601Y-121217333D01*
X167070557Y-121205597D01*
X167089803Y-121189803D01*
X167095514Y-121182326D01*
X167134693Y-121166097D01*
X167304211Y-121052829D01*
X167448374Y-120908666D01*
X167561642Y-120739148D01*
X167639663Y-120550790D01*
X167664286Y-120427000D01*
X175400000Y-120427000D01*
X175424776Y-120424560D01*
X175448601Y-120417333D01*
X175470557Y-120405597D01*
X175489803Y-120389803D01*
X175505597Y-120370557D01*
X175517333Y-120348601D01*
X175524560Y-120324776D01*
X175527000Y-120300000D01*
X175527000Y-115000000D01*
X183959993Y-115000000D01*
X183979976Y-115202895D01*
X184039159Y-115397993D01*
X184124741Y-115558106D01*
X184103169Y-115584392D01*
X184025722Y-115729284D01*
X183978031Y-115886500D01*
X183961928Y-116050000D01*
X183961928Y-116450000D01*
X183978031Y-116613500D01*
X184025722Y-116770716D01*
X184103169Y-116915608D01*
X184207394Y-117042606D01*
X184334392Y-117146831D01*
X184479284Y-117224278D01*
X184636500Y-117271969D01*
X184800000Y-117288072D01*
X185700000Y-117288072D01*
X185863500Y-117271969D01*
X186020716Y-117224278D01*
X186165608Y-117146831D01*
X186292606Y-117042606D01*
X186396831Y-116915608D01*
X186474278Y-116770716D01*
X186521969Y-116613500D01*
X186538072Y-116450000D01*
X186538072Y-116050000D01*
X186521969Y-115886500D01*
X186474278Y-115729284D01*
X186396831Y-115584392D01*
X186375259Y-115558106D01*
X186460841Y-115397993D01*
X186520024Y-115202895D01*
X186540007Y-115000000D01*
X186520024Y-114797105D01*
X186460841Y-114602007D01*
X186364734Y-114422203D01*
X186235396Y-114264604D01*
X186077797Y-114135266D01*
X185897993Y-114039159D01*
X185702895Y-113979976D01*
X185550838Y-113965000D01*
X184949162Y-113965000D01*
X184797105Y-113979976D01*
X184602007Y-114039159D01*
X184422203Y-114135266D01*
X184264604Y-114264604D01*
X184135266Y-114422203D01*
X184039159Y-114602007D01*
X183979976Y-114797105D01*
X183959993Y-115000000D01*
X175527000Y-115000000D01*
X175527000Y-107154429D01*
X177550800Y-105227000D01*
X187836268Y-105227000D01*
X187821193Y-105399312D01*
X187815778Y-105425066D01*
X187815328Y-105466359D01*
X187814675Y-105473818D01*
X187814961Y-105500000D01*
X187814675Y-105526182D01*
X187815328Y-105533641D01*
X187815778Y-105574934D01*
X187821193Y-105600688D01*
X188004671Y-107697857D01*
X188271436Y-129572544D01*
X164113763Y-129486878D01*
X164277502Y-129352502D01*
X164431833Y-129164449D01*
X164546511Y-128949901D01*
X164617130Y-128717102D01*
X164635000Y-128535665D01*
X164635000Y-127864336D01*
X164617130Y-127682899D01*
X164546511Y-127450100D01*
X164431833Y-127235551D01*
X164277502Y-127047498D01*
X164089449Y-126893167D01*
X163874901Y-126778489D01*
X163642102Y-126707870D01*
X163400000Y-126684025D01*
X163157899Y-126707870D01*
X162925100Y-126778489D01*
X162710552Y-126893167D01*
X162522499Y-127047498D01*
X162368168Y-127235551D01*
X162253489Y-127450099D01*
X162182870Y-127682898D01*
X162165000Y-127864335D01*
X162165000Y-128535664D01*
X162182870Y-128717101D01*
X162253489Y-128949900D01*
X162368167Y-129164448D01*
X162522498Y-129352502D01*
X162680041Y-129481794D01*
X160200485Y-129473001D01*
X140927000Y-129373653D01*
X140927000Y-124900000D01*
X142459993Y-124900000D01*
X142479976Y-125102895D01*
X142539159Y-125297993D01*
X142635266Y-125477797D01*
X142764604Y-125635396D01*
X142922203Y-125764734D01*
X143102007Y-125860841D01*
X143297105Y-125920024D01*
X143449162Y-125935000D01*
X144050838Y-125935000D01*
X144202895Y-125920024D01*
X144397993Y-125860841D01*
X144577797Y-125764734D01*
X144735396Y-125635396D01*
X144864734Y-125477797D01*
X144960841Y-125297993D01*
X145020024Y-125102895D01*
X145030158Y-125000000D01*
X182959993Y-125000000D01*
X182979976Y-125202895D01*
X183039159Y-125397993D01*
X183135266Y-125577797D01*
X183264604Y-125735396D01*
X183422203Y-125864734D01*
X183602007Y-125960841D01*
X183797105Y-126020024D01*
X183949162Y-126035000D01*
X184550838Y-126035000D01*
X184702895Y-126020024D01*
X184897993Y-125960841D01*
X185077797Y-125864734D01*
X185235396Y-125735396D01*
X185364734Y-125577797D01*
X185460841Y-125397993D01*
X185520024Y-125202895D01*
X185540007Y-125000000D01*
X185520024Y-124797105D01*
X185460841Y-124602007D01*
X185375259Y-124441894D01*
X185396831Y-124415608D01*
X185474278Y-124270716D01*
X185521969Y-124113500D01*
X185538072Y-123950000D01*
X185538072Y-123550000D01*
X185521969Y-123386500D01*
X185474278Y-123229284D01*
X185396831Y-123084392D01*
X185292606Y-122957394D01*
X185165608Y-122853169D01*
X185020716Y-122775722D01*
X184863500Y-122728031D01*
X184700000Y-122711928D01*
X183800000Y-122711928D01*
X183636500Y-122728031D01*
X183479284Y-122775722D01*
X183334392Y-122853169D01*
X183207394Y-122957394D01*
X183103169Y-123084392D01*
X183025722Y-123229284D01*
X182978031Y-123386500D01*
X182961928Y-123550000D01*
X182961928Y-123950000D01*
X182978031Y-124113500D01*
X183025722Y-124270716D01*
X183103169Y-124415608D01*
X183124741Y-124441894D01*
X183039159Y-124602007D01*
X182979976Y-124797105D01*
X182959993Y-125000000D01*
X145030158Y-125000000D01*
X145040007Y-124900000D01*
X145020024Y-124697105D01*
X144960841Y-124502007D01*
X144875259Y-124341894D01*
X144896831Y-124315608D01*
X144974278Y-124170716D01*
X145021969Y-124013500D01*
X145038072Y-123850000D01*
X145038072Y-123450000D01*
X145021969Y-123286500D01*
X144974278Y-123129284D01*
X144896831Y-122984392D01*
X144792606Y-122857394D01*
X144665608Y-122753169D01*
X144520716Y-122675722D01*
X144363500Y-122628031D01*
X144200000Y-122611928D01*
X143300000Y-122611928D01*
X143136500Y-122628031D01*
X142979284Y-122675722D01*
X142834392Y-122753169D01*
X142707394Y-122857394D01*
X142603169Y-122984392D01*
X142525722Y-123129284D01*
X142478031Y-123286500D01*
X142461928Y-123450000D01*
X142461928Y-123850000D01*
X142478031Y-124013500D01*
X142525722Y-124170716D01*
X142603169Y-124315608D01*
X142624741Y-124341894D01*
X142539159Y-124502007D01*
X142479976Y-124697105D01*
X142459993Y-124900000D01*
X140927000Y-124900000D01*
X140927000Y-115000000D01*
X143209993Y-115000000D01*
X143229976Y-115202895D01*
X143289159Y-115397993D01*
X143374741Y-115558106D01*
X143353169Y-115584392D01*
X143275722Y-115729284D01*
X143228031Y-115886500D01*
X143211928Y-116050000D01*
X143211928Y-116450000D01*
X143228031Y-116613500D01*
X143275722Y-116770716D01*
X143353169Y-116915608D01*
X143457394Y-117042606D01*
X143584392Y-117146831D01*
X143729284Y-117224278D01*
X143886500Y-117271969D01*
X144050000Y-117288072D01*
X144950000Y-117288072D01*
X145113500Y-117271969D01*
X145270716Y-117224278D01*
X145415608Y-117146831D01*
X145542606Y-117042606D01*
X145646831Y-116915608D01*
X145724278Y-116770716D01*
X145771969Y-116613500D01*
X145788072Y-116450000D01*
X145788072Y-116050000D01*
X145771969Y-115886500D01*
X145724278Y-115729284D01*
X145646831Y-115584392D01*
X145625259Y-115558106D01*
X145710841Y-115397993D01*
X145770024Y-115202895D01*
X145790007Y-115000000D01*
X145770024Y-114797105D01*
X145710841Y-114602007D01*
X145614734Y-114422203D01*
X145485396Y-114264604D01*
X145327797Y-114135266D01*
X145147993Y-114039159D01*
X144952895Y-113979976D01*
X144800838Y-113965000D01*
X144199162Y-113965000D01*
X144047105Y-113979976D01*
X143852007Y-114039159D01*
X143672203Y-114135266D01*
X143514604Y-114264604D01*
X143385266Y-114422203D01*
X143289159Y-114602007D01*
X143229976Y-114797105D01*
X143209993Y-115000000D01*
X140927000Y-115000000D01*
X140927000Y-103927000D01*
X151644511Y-103927000D01*
X154073000Y-106549768D01*
G36*
X160187363Y-111426370D02*
G01*
X160195385Y-111426916D01*
X162225886Y-111500753D01*
X162398061Y-111535000D01*
X162601939Y-111535000D01*
X162689381Y-111517607D01*
X165573000Y-111622466D01*
X165573000Y-114700000D01*
X165575440Y-114724776D01*
X165582667Y-114748601D01*
X165594403Y-114770557D01*
X165610197Y-114789803D01*
X165629443Y-114805597D01*
X165651399Y-114817333D01*
X165675224Y-114824560D01*
X165700000Y-114827000D01*
X167573000Y-114827000D01*
X167573000Y-115644444D01*
X167517205Y-115509744D01*
X167403937Y-115340226D01*
X167259774Y-115196063D01*
X167090256Y-115082795D01*
X166901898Y-115004774D01*
X166701939Y-114965000D01*
X166498061Y-114965000D01*
X166298102Y-115004774D01*
X166109744Y-115082795D01*
X165940226Y-115196063D01*
X165796063Y-115340226D01*
X165682795Y-115509744D01*
X165604774Y-115698102D01*
X165565000Y-115898061D01*
X165565000Y-116101939D01*
X165604774Y-116301898D01*
X165682795Y-116490256D01*
X165796063Y-116659774D01*
X165884438Y-116748149D01*
X165884437Y-119545181D01*
X165840500Y-119589118D01*
X165727232Y-119758636D01*
X165649211Y-119946994D01*
X165609437Y-120146953D01*
X165609437Y-120350831D01*
X165649211Y-120550790D01*
X165727232Y-120739148D01*
X165840500Y-120908666D01*
X165984663Y-121052829D01*
X166154181Y-121166097D01*
X166342539Y-121244118D01*
X166542498Y-121283892D01*
X166746376Y-121283892D01*
X166946335Y-121244118D01*
X167134693Y-121166097D01*
X167304211Y-121052829D01*
X167448374Y-120908666D01*
X167561642Y-120739148D01*
X167573000Y-120711728D01*
X167573000Y-121569093D01*
X164527000Y-121476790D01*
X164527000Y-120200000D01*
X164524560Y-120175224D01*
X164517333Y-120151399D01*
X164505597Y-120129443D01*
X164489803Y-120110197D01*
X164470557Y-120094403D01*
X164448601Y-120082667D01*
X164424776Y-120075440D01*
X164400000Y-120073000D01*
X163331304Y-120073000D01*
X163422838Y-117327000D01*
X164100000Y-117327000D01*
X164124776Y-117324560D01*
X164148601Y-117317333D01*
X164170557Y-117305597D01*
X164189803Y-117289803D01*
X164205597Y-117270557D01*
X164217333Y-117248601D01*
X164224560Y-117224776D01*
X164227000Y-117200000D01*
X164227000Y-113400000D01*
X164224560Y-113375224D01*
X164217333Y-113351399D01*
X164205597Y-113329443D01*
X164189803Y-113310197D01*
X164170557Y-113294403D01*
X164148601Y-113282667D01*
X164124776Y-113275440D01*
X164102396Y-113273023D01*
X158805178Y-113173075D01*
X157251637Y-113075979D01*
X156533853Y-112437949D01*
X158447324Y-111617890D01*
X159216848Y-111329318D01*
X160187363Y-111426370D01*
G37*
X160187363Y-111426370D02*
X160195385Y-111426916D01*
X162225886Y-111500753D01*
X162398061Y-111535000D01*
X162601939Y-111535000D01*
X162689381Y-111517607D01*
X165573000Y-111622466D01*
X165573000Y-114700000D01*
X165575440Y-114724776D01*
X165582667Y-114748601D01*
X165594403Y-114770557D01*
X165610197Y-114789803D01*
X165629443Y-114805597D01*
X165651399Y-114817333D01*
X165675224Y-114824560D01*
X165700000Y-114827000D01*
X167573000Y-114827000D01*
X167573000Y-115644444D01*
X167517205Y-115509744D01*
X167403937Y-115340226D01*
X167259774Y-115196063D01*
X167090256Y-115082795D01*
X166901898Y-115004774D01*
X166701939Y-114965000D01*
X166498061Y-114965000D01*
X166298102Y-115004774D01*
X166109744Y-115082795D01*
X165940226Y-115196063D01*
X165796063Y-115340226D01*
X165682795Y-115509744D01*
X165604774Y-115698102D01*
X165565000Y-115898061D01*
X165565000Y-116101939D01*
X165604774Y-116301898D01*
X165682795Y-116490256D01*
X165796063Y-116659774D01*
X165884438Y-116748149D01*
X165884437Y-119545181D01*
X165840500Y-119589118D01*
X165727232Y-119758636D01*
X165649211Y-119946994D01*
X165609437Y-120146953D01*
X165609437Y-120350831D01*
X165649211Y-120550790D01*
X165727232Y-120739148D01*
X165840500Y-120908666D01*
X165984663Y-121052829D01*
X166154181Y-121166097D01*
X166342539Y-121244118D01*
X166542498Y-121283892D01*
X166746376Y-121283892D01*
X166946335Y-121244118D01*
X167134693Y-121166097D01*
X167304211Y-121052829D01*
X167448374Y-120908666D01*
X167561642Y-120739148D01*
X167573000Y-120711728D01*
X167573000Y-121569093D01*
X164527000Y-121476790D01*
X164527000Y-120200000D01*
X164524560Y-120175224D01*
X164517333Y-120151399D01*
X164505597Y-120129443D01*
X164489803Y-120110197D01*
X164470557Y-120094403D01*
X164448601Y-120082667D01*
X164424776Y-120075440D01*
X164400000Y-120073000D01*
X163331304Y-120073000D01*
X163422838Y-117327000D01*
X164100000Y-117327000D01*
X164124776Y-117324560D01*
X164148601Y-117317333D01*
X164170557Y-117305597D01*
X164189803Y-117289803D01*
X164205597Y-117270557D01*
X164217333Y-117248601D01*
X164224560Y-117224776D01*
X164227000Y-117200000D01*
X164227000Y-113400000D01*
X164224560Y-113375224D01*
X164217333Y-113351399D01*
X164205597Y-113329443D01*
X164189803Y-113310197D01*
X164170557Y-113294403D01*
X164148601Y-113282667D01*
X164124776Y-113275440D01*
X164102396Y-113273023D01*
X158805178Y-113173075D01*
X157251637Y-113075979D01*
X156533853Y-112437949D01*
X158447324Y-111617890D01*
X159216848Y-111329318D01*
X160187363Y-111426370D01*
G36*
X176178241Y-120571576D02*
G01*
X167701477Y-120473009D01*
X167676673Y-120475161D01*
X167653358Y-120481938D01*
X167679437Y-120350831D01*
X167679437Y-120146953D01*
X167639663Y-119946994D01*
X167561642Y-119758636D01*
X167448374Y-119589118D01*
X167404437Y-119545181D01*
X167404437Y-116659026D01*
X167517205Y-116490256D01*
X167573000Y-116355556D01*
X167573000Y-119200000D01*
X167575440Y-119224776D01*
X167582667Y-119248601D01*
X167594403Y-119270557D01*
X167610197Y-119289803D01*
X167629443Y-119305597D01*
X167651399Y-119317333D01*
X167675224Y-119324560D01*
X167698211Y-119326987D01*
X174798211Y-119426987D01*
X174823020Y-119424896D01*
X174846944Y-119418006D01*
X174869063Y-119406580D01*
X174888529Y-119391058D01*
X174904593Y-119372038D01*
X174916637Y-119350248D01*
X174924198Y-119326528D01*
X174927000Y-119300000D01*
X174927000Y-115600000D01*
X174924560Y-115575224D01*
X174917333Y-115551399D01*
X174905597Y-115529443D01*
X174889803Y-115510197D01*
X174870557Y-115494403D01*
X174848601Y-115482667D01*
X174824776Y-115475440D01*
X174800000Y-115473000D01*
X171049919Y-115473000D01*
X171357585Y-113627000D01*
X176467598Y-113627000D01*
X176178241Y-120571576D01*
G37*
X176178241Y-120571576D02*
X167701477Y-120473009D01*
X167676673Y-120475161D01*
X167653358Y-120481938D01*
X167679437Y-120350831D01*
X167679437Y-120146953D01*
X167639663Y-119946994D01*
X167561642Y-119758636D01*
X167448374Y-119589118D01*
X167404437Y-119545181D01*
X167404437Y-116659026D01*
X167517205Y-116490256D01*
X167573000Y-116355556D01*
X167573000Y-119200000D01*
X167575440Y-119224776D01*
X167582667Y-119248601D01*
X167594403Y-119270557D01*
X167610197Y-119289803D01*
X167629443Y-119305597D01*
X167651399Y-119317333D01*
X167675224Y-119324560D01*
X167698211Y-119326987D01*
X174798211Y-119426987D01*
X174823020Y-119424896D01*
X174846944Y-119418006D01*
X174869063Y-119406580D01*
X174888529Y-119391058D01*
X174904593Y-119372038D01*
X174916637Y-119350248D01*
X174924198Y-119326528D01*
X174927000Y-119300000D01*
X174927000Y-115600000D01*
X174924560Y-115575224D01*
X174917333Y-115551399D01*
X174905597Y-115529443D01*
X174889803Y-115510197D01*
X174870557Y-115494403D01*
X174848601Y-115482667D01*
X174824776Y-115475440D01*
X174800000Y-115473000D01*
X171049919Y-115473000D01*
X171357585Y-113627000D01*
X176467598Y-113627000D01*
X176178241Y-120571576D01*
M02*
